<svg xmlns="http://www.w3.org/2000/svg" xmlns:xlink="http://www.w3.org/1999/xlink" width="500" zoomAndPan="magnify" viewBox="0 0 375 374.999991" height="500" preserveAspectRatio="xMidYMid meet" version="1.0"><defs><g/><clipPath id="9174c04c8d"><path d="M 250 131 L 349 131 L 349 250 L 250 250 Z M 250 131 " clip-rule="nonzero"/></clipPath><clipPath id="9172d405d5"><path d="M 202.421875 165.898438 L 312.105469 97.996094 L 366.980469 186.636719 L 257.296875 254.539062 Z M 202.421875 165.898438 " clip-rule="nonzero"/></clipPath><clipPath id="f97dd21294"><path d="M 202.421875 165.898438 L 312.105469 97.996094 L 366.980469 186.636719 L 257.296875 254.539062 Z M 202.421875 165.898438 " clip-rule="nonzero"/></clipPath><clipPath id="bc46435323"><path d="M 40 136 L 147 136 L 147 243 L 40 243 Z M 40 136 " clip-rule="nonzero"/></clipPath><clipPath id="2167388dfa"><path d="M 19.011719 139.371094 L 146.726562 112.554688 L 172.621094 235.863281 L 44.90625 262.683594 Z M 19.011719 139.371094 " clip-rule="nonzero"/></clipPath><clipPath id="80d6209dbb"><path d="M 19.011719 139.371094 L 146.726562 112.554688 L 172.621094 235.863281 L 44.90625 262.683594 Z M 19.011719 139.371094 " clip-rule="nonzero"/></clipPath><clipPath id="921ecadef9"><path d="M 19.011719 139.371094 L 146.726562 112.554688 L 172.621094 235.863281 L 44.90625 262.683594 Z M 19.011719 139.371094 " clip-rule="nonzero"/></clipPath><clipPath id="0e8bc2d94f"><path d="M 35 131 L 152 131 L 152 249 L 35 249 Z M 35 131 " clip-rule="nonzero"/></clipPath><clipPath id="72ca7f57bf"><path d="M 19.011719 139.371094 L 146.726562 112.554688 L 172.621094 235.863281 L 44.90625 262.683594 Z M 19.011719 139.371094 " clip-rule="nonzero"/></clipPath><clipPath id="b3ec6a5cde"><path d="M 19.011719 139.371094 L 146.726562 112.554688 L 172.621094 235.863281 L 44.90625 262.683594 Z M 19.011719 139.371094 " clip-rule="nonzero"/></clipPath><clipPath id="02a352d6b0"><path d="M 19.011719 139.371094 L 146.726562 112.554688 L 172.621094 235.863281 L 44.90625 262.683594 Z M 19.011719 139.371094 " clip-rule="nonzero"/></clipPath><clipPath id="8b451bf9a6"><path d="M 29 125 L 158 125 L 158 254 L 29 254 Z M 29 125 " clip-rule="nonzero"/></clipPath><clipPath id="7e2e3ea9d5"><path d="M 19.011719 139.371094 L 146.726562 112.554688 L 172.621094 235.863281 L 44.90625 262.683594 Z M 19.011719 139.371094 " clip-rule="nonzero"/></clipPath><clipPath id="a162399764"><path d="M 19.011719 139.371094 L 146.726562 112.554688 L 172.621094 235.863281 L 44.90625 262.683594 Z M 19.011719 139.371094 " clip-rule="nonzero"/></clipPath><clipPath id="591b079f4e"><path d="M 19.011719 139.371094 L 146.726562 112.554688 L 172.621094 235.863281 L 44.90625 262.683594 Z M 19.011719 139.371094 " clip-rule="nonzero"/></clipPath><clipPath id="f9459090ea"><path d="M 31 127 L 156 127 L 156 253 L 31 253 Z M 31 127 " clip-rule="nonzero"/></clipPath><clipPath id="695e282e34"><path d="M 19.011719 139.371094 L 146.726562 112.554688 L 172.621094 235.863281 L 44.90625 262.683594 Z M 19.011719 139.371094 " clip-rule="nonzero"/></clipPath><clipPath id="d551c22d06"><path d="M 19.011719 139.371094 L 146.726562 112.554688 L 172.621094 235.863281 L 44.90625 262.683594 Z M 19.011719 139.371094 " clip-rule="nonzero"/></clipPath><clipPath id="f85ab26bdc"><path d="M 19.011719 139.371094 L 146.726562 112.554688 L 172.621094 235.863281 L 44.90625 262.683594 Z M 19.011719 139.371094 " clip-rule="nonzero"/></clipPath><clipPath id="6499b25c84"><path d="M 40 136 L 147 136 L 147 243 L 40 243 Z M 40 136 " clip-rule="nonzero"/></clipPath><clipPath id="7aa6503ca9"><path d="M 19.011719 139.371094 L 146.726562 112.554688 L 172.621094 235.863281 L 44.90625 262.683594 Z M 19.011719 139.371094 " clip-rule="nonzero"/></clipPath><clipPath id="d95fd77af5"><path d="M 19.011719 139.371094 L 146.726562 112.554688 L 172.621094 235.863281 L 44.90625 262.683594 Z M 19.011719 139.371094 " clip-rule="nonzero"/></clipPath><clipPath id="54c69afaaf"><path d="M 19.011719 139.371094 L 146.726562 112.554688 L 172.621094 235.863281 L 44.90625 262.683594 Z M 19.011719 139.371094 " clip-rule="nonzero"/></clipPath><clipPath id="8e28b65407"><path d="M 35 131 L 152 131 L 152 249 L 35 249 Z M 35 131 " clip-rule="nonzero"/></clipPath><clipPath id="b15a707319"><path d="M 19.011719 139.371094 L 146.726562 112.554688 L 172.621094 235.863281 L 44.90625 262.683594 Z M 19.011719 139.371094 " clip-rule="nonzero"/></clipPath><clipPath id="5d46494699"><path d="M 19.011719 139.371094 L 146.726562 112.554688 L 172.621094 235.863281 L 44.90625 262.683594 Z M 19.011719 139.371094 " clip-rule="nonzero"/></clipPath><clipPath id="4a8d0d7bae"><path d="M 19.011719 139.371094 L 146.726562 112.554688 L 172.621094 235.863281 L 44.90625 262.683594 Z M 19.011719 139.371094 " clip-rule="nonzero"/></clipPath><clipPath id="550080ca7c"><path d="M 29 125 L 158 125 L 158 254 L 29 254 Z M 29 125 " clip-rule="nonzero"/></clipPath><clipPath id="90fe270879"><path d="M 19.011719 139.371094 L 146.726562 112.554688 L 172.621094 235.863281 L 44.90625 262.683594 Z M 19.011719 139.371094 " clip-rule="nonzero"/></clipPath><clipPath id="eb627cda8f"><path d="M 19.011719 139.371094 L 146.726562 112.554688 L 172.621094 235.863281 L 44.90625 262.683594 Z M 19.011719 139.371094 " clip-rule="nonzero"/></clipPath><clipPath id="3a63190736"><path d="M 19.011719 139.371094 L 146.726562 112.554688 L 172.621094 235.863281 L 44.90625 262.683594 Z M 19.011719 139.371094 " clip-rule="nonzero"/></clipPath><clipPath id="8f2efe050c"><path d="M 31 127 L 156 127 L 156 253 L 31 253 Z M 31 127 " clip-rule="nonzero"/></clipPath><clipPath id="790baf0976"><path d="M 19.011719 139.371094 L 146.726562 112.554688 L 172.621094 235.863281 L 44.90625 262.683594 Z M 19.011719 139.371094 " clip-rule="nonzero"/></clipPath><clipPath id="ab3cae07d8"><path d="M 19.011719 139.371094 L 146.726562 112.554688 L 172.621094 235.863281 L 44.90625 262.683594 Z M 19.011719 139.371094 " clip-rule="nonzero"/></clipPath><clipPath id="edc193be92"><path d="M 19.011719 139.371094 L 146.726562 112.554688 L 172.621094 235.863281 L 44.90625 262.683594 Z M 19.011719 139.371094 " clip-rule="nonzero"/></clipPath></defs><rect x="-37.5" width="450" fill="#ffffff" y="-37.499999" height="449.999989" fill-opacity="1"/><rect x="-37.5" width="450" fill="#ffffff" y="-37.499999" height="449.999989" fill-opacity="1"/><g clip-path="url(#9174c04c8d)"><g clip-path="url(#9172d405d5)"><g clip-path="url(#f97dd21294)"><path fill="#fff48b" d="M 293.222656 231.957031 C 280.25 239.984375 267.125 245.996094 254.875 249.859375 C 262.847656 246.457031 271.003906 242.230469 279.101562 237.21875 C 319.683594 212.09375 343.3125 176.742188 331.867188 158.257812 C 324.085938 145.683594 302.074219 144.164062 276.007812 152.378906 C 307.980469 138.703125 336.832031 138.199219 345.996094 153.003906 C 357.433594 171.480469 333.808594 206.832031 293.222656 231.957031 Z M 250.765625 160.328125 L 250.597656 160.058594 C 266.800781 150.027344 266.347656 146.671875 257.210938 131.914062 L 257.484375 131.746094 C 266.617188 146.503906 269.429688 148.398438 285.632812 138.371094 L 285.796875 138.640625 C 269.597656 148.671875 270.035156 152.023438 279.171875 166.78125 L 278.902344 166.949219 C 269.765625 152.191406 266.96875 150.296875 250.765625 160.328125 " fill-opacity="1" fill-rule="evenodd"/></g></g></g><g clip-path="url(#bc46435323)"><g clip-path="url(#2167388dfa)"><g clip-path="url(#80d6209dbb)"><g clip-path="url(#921ecadef9)"><path fill="#f2e3e6" d="M 139.261719 231.613281 C 136.777344 232.136719 132.863281 230.394531 131.558594 229.828125 L 131.390625 229.75 C 125.84375 227.320312 117.503906 224.292969 105.136719 220.277344 C 104.234375 219.96875 103.273438 219.941406 102.359375 220.132812 C 101.445312 220.324219 100.585938 220.773438 99.84375 221.425781 C 91.730469 228.75 86.269531 233.988281 82.574219 238.011719 L 82.449219 238.152344 C 81.484375 239.195312 78.566406 242.371094 76.117188 242.886719 C 75.824219 242.945312 75.5625 242.964844 75.328125 242.9375 C 75.050781 242.878906 74.726562 242.796875 74.503906 242.652344 C 73.746094 242.121094 72.820312 240.441406 72.644531 235.433594 L 72.660156 235.316406 C 72.453125 229.433594 71.851562 220.386719 71.066406 209.195312 C 70.9375 207.503906 70.039062 205.933594 68.585938 205.015625 C 59.097656 198.902344 52.410156 194.839844 47.484375 192.28125 L 47.316406 192.203125 C 42.21875 189.566406 40.984375 187.683594 40.828125 186.570312 C 40.789062 186.195312 40.863281 185.835938 40.878906 185.71875 C 41.148438 184.820312 42.503906 183.464844 47.34375 181.988281 L 47.453125 181.96875 C 53.257812 180.175781 62.222656 177.070312 72.488281 173.460938 C 74.160156 172.878906 75.472656 171.496094 75.917969 169.796875 C 78.945312 158.417969 80.835938 150.527344 81.800781 144.9375 L 81.84375 144.773438 C 82.824219 139.101562 84.25 137.351562 85.257812 136.871094 C 85.394531 136.804688 85.578125 136.765625 85.722656 136.734375 C 85.796875 136.71875 85.941406 136.6875 86.097656 136.695312 C 87.019531 136.730469 88.691406 137.601562 91.582031 141.734375 L 91.640625 141.839844 C 95.035156 146.746094 100.679688 154.351562 107.113281 163.015625 C 108.226562 164.503906 110.046875 165.34375 111.882812 165.1875 C 122.726562 164.324219 132.21875 163.554688 138.109375 162.894531 L 138.21875 162.871094 C 143.25 162.308594 145 163.011719 145.636719 163.683594 C 145.734375 163.777344 145.949219 164.074219 146.023438 164.441406 C 146.328125 165.523438 145.964844 167.78125 142.359375 172.246094 L 142.238281 172.386719 C 139.089844 176.296875 134.964844 182.09375 129.597656 190.140625 C 128.636719 191.5625 128.445312 193.363281 129.007812 194.964844 C 133.300781 206.871094 136.984375 217.144531 139.417969 223.285156 L 139.441406 223.394531 C 141.296875 228.050781 141.125 229.960938 140.644531 230.75 C 140.527344 230.925781 140.273438 231.171875 140.003906 231.34375 C 139.800781 231.460938 139.554688 231.550781 139.261719 231.613281 Z M 139.261719 231.613281 " fill-opacity="1" fill-rule="nonzero"/></g></g></g></g><g clip-path="url(#0e8bc2d94f)"><g clip-path="url(#72ca7f57bf)"><g clip-path="url(#b3ec6a5cde)"><g clip-path="url(#02a352d6b0)"><path fill="#ed83b5" d="M 87.308594 145.003906 C 90.761719 150.011719 96.390625 157.546875 102.824219 166.210938 C 105.058594 169.21875 108.644531 170.839844 112.359375 170.554688 C 123.542969 169.660156 132.625 168.9375 138.585938 168.257812 C 138.46875 168.4375 138.3125 168.585938 138.160156 168.769531 L 138.035156 168.910156 C 134.738281 173.003906 130.640625 178.757812 125.101562 187.070312 C 123.179688 189.917969 122.753906 193.527344 123.929688 196.757812 C 128.179688 208.632812 131.855469 218.871094 134.347656 225.113281 C 134.140625 225.042969 133.929688 224.933594 133.722656 224.863281 L 133.554688 224.785156 C 127.839844 222.277344 119.332031 219.207031 106.796875 215.113281 C 104.953125 214.503906 103.035156 214.449219 101.246094 214.824219 C 99.417969 215.207031 97.652344 216.074219 96.210938 217.375 C 87.964844 224.800781 82.378906 230.179688 78.589844 234.300781 L 78.464844 234.441406 C 78.3125 234.625 78.152344 234.773438 77.996094 234.921875 C 77.773438 228.964844 77.171875 219.917969 76.402344 208.804688 C 76.175781 205.371094 74.34375 202.277344 71.476562 200.433594 C 61.851562 194.195312 54.996094 190.09375 49.902344 187.453125 L 49.734375 187.375 C 49.519531 187.265625 49.34375 187.152344 49.136719 187.078125 C 55.007812 185.234375 63.972656 182.128906 74.210938 178.566406 C 77.589844 177.398438 80.140625 174.644531 81.09375 171.195312 C 84.253906 159.714844 86.1875 151.660156 87.183594 145.871094 L 87.226562 145.707031 C 87.210938 145.445312 87.238281 145.210938 87.308594 145.003906 M 84.636719 131.382812 C 84.125 131.488281 83.550781 131.648438 82.960938 131.925781 C 78.066406 134.253906 76.886719 141.535156 76.488281 143.988281 C 75.511719 149.699219 73.484375 157.847656 70.636719 168.269531 C 59.726562 172.089844 51.257812 175.011719 45.777344 176.699219 C 43.308594 177.484375 37.167969 179.308594 35.660156 183.945312 C 35.570312 184.234375 35.15625 185.542969 35.394531 187.214844 C 36.140625 192.601562 42.753906 195.914062 44.929688 197.023438 C 49.9375 199.605469 56.855469 203.847656 65.597656 209.503906 C 66.386719 220.882812 66.988281 229.742188 67.191406 235.433594 C 67.273438 238.015625 67.441406 244.441406 71.546875 247.09375 C 71.8125 247.269531 72.953125 247.984375 74.605469 248.210938 C 75.507812 248.328125 76.371094 248.261719 77.210938 248.085938 C 81.484375 247.1875 85.164062 243.089844 86.5625 241.570312 C 90.289062 237.5 95.984375 232.101562 103.449219 225.332031 C 114.839844 229.058594 123.535156 232.125 129.214844 234.640625 C 131.105469 235.46875 136.085938 237.746094 140.359375 236.851562 C 141.199219 236.671875 142.054688 236.378906 142.832031 235.910156 C 144.253906 235.039062 145.011719 233.921875 145.183594 233.65625 C 147.839844 229.582031 145.40625 223.632812 144.472656 221.191406 C 142.128906 215.300781 138.648438 205.632812 134.136719 193.046875 C 139.152344 185.496094 143.269531 179.660156 146.480469 175.699219 C 148.023438 173.769531 152.742188 168.078125 151.269531 162.882812 C 150.8125 161.257812 149.910156 160.222656 149.707031 159.996094 C 146.464844 156.359375 140.101562 157.121094 137.53125 157.433594 C 131.835938 158.09375 122.941406 158.8125 111.5 159.726562 C 104.648438 150.539062 99.367188 143.386719 96.128906 138.679688 C 94.648438 136.542969 91.058594 131.257812 86.167969 131.214844 C 85.941406 131.222656 85.367188 131.226562 84.636719 131.382812 Z M 84.636719 131.382812 " fill-opacity="1" fill-rule="nonzero"/></g></g></g></g><g clip-path="url(#8b451bf9a6)"><g clip-path="url(#7e2e3ea9d5)"><g clip-path="url(#a162399764)"><g clip-path="url(#591b079f4e)"><path fill="#fff48b" d="M 84.636719 131.382812 C 85.40625 131.21875 85.976562 131.214844 86.167969 131.214844 C 91.058594 131.257812 94.65625 136.578125 96.128906 138.679688 C 99.367188 143.386719 104.683594 150.53125 111.492188 159.691406 C 122.9375 158.777344 131.828125 158.058594 137.53125 157.433594 C 140.101562 157.121094 146.464844 156.359375 149.707031 159.996094 C 149.910156 160.222656 150.8125 161.257812 151.269531 162.882812 C 152.75 168.113281 148.03125 173.808594 146.480469 175.699219 C 143.269531 179.660156 139.160156 185.53125 134.136719 193.046875 C 138.648438 205.632812 142.128906 215.300781 144.472656 221.191406 C 145.433594 223.589844 147.867188 229.539062 145.183594 233.65625 C 145.011719 233.921875 144.253906 235.039062 142.832031 235.910156 C 142.054688 236.378906 141.238281 236.664062 140.359375 236.851562 C 136.085938 237.746094 131.066406 235.476562 129.214844 234.640625 C 123.535156 232.125 114.839844 229.058594 103.449219 225.332031 C 95.976562 232.0625 90.289062 237.5 86.5625 241.570312 C 85.164062 243.089844 81.523438 247.179688 77.210938 248.085938 C 76.371094 248.261719 75.46875 248.335938 74.605469 248.210938 C 72.953125 247.984375 71.804688 247.230469 71.546875 247.09375 C 67.476562 244.433594 67.308594 238.007812 67.191406 235.433594 C 66.988281 229.742188 66.386719 220.882812 65.597656 209.503906 C 56.855469 203.847656 49.945312 199.640625 44.929688 197.023438 C 42.746094 195.878906 36.136719 192.5625 35.394531 187.214844 C 35.15625 185.542969 35.570312 184.234375 35.660156 183.945312 C 37.167969 179.308594 43.300781 177.449219 45.777344 176.699219 C 51.25 174.976562 59.71875 172.050781 70.636719 168.269531 C 73.484375 157.847656 75.511719 149.699219 76.488281 143.988281 C 76.886719 141.535156 78.066406 134.253906 82.960938 131.925781 C 83.550781 131.648438 84.125 131.488281 84.636719 131.382812 M 83.484375 125.890625 C 82.460938 126.105469 81.5 126.421875 80.59375 126.839844 C 73.167969 130.351562 71.554688 139.75 71.019531 142.84375 L 70.976562 143.003906 C 70.175781 147.722656 68.523438 154.566406 66.023438 163.921875 C 57.023438 167.035156 49.238281 169.742188 44.109375 171.316406 L 44 171.339844 C 40.921875 172.292969 32.722656 174.855469 30.332031 182.199219 C 29.976562 183.230469 29.472656 185.359375 29.828125 187.960938 C 30.925781 196.101562 39.398438 200.480469 42.183594 201.921875 L 42.351562 202 C 46.503906 204.148438 52.351562 207.660156 60.195312 212.664062 C 60.878906 222.460938 61.390625 230.34375 61.574219 235.578125 L 61.558594 235.695312 C 61.664062 238.925781 61.984375 247.535156 68.445312 251.761719 C 68.445312 251.761719 68.488281 251.789062 68.488281 251.789062 C 70.117188 252.824219 71.941406 253.511719 73.859375 253.757812 C 75.347656 253.941406 76.863281 253.890625 78.363281 253.578125 C 84.28125 252.332031 88.660156 247.554688 90.558594 245.511719 L 90.679688 245.371094 C 93.722656 242.054688 98.351562 237.566406 104.824219 231.695312 C 115.15625 235.109375 122.265625 237.707031 127.007812 239.769531 L 127.179688 239.847656 C 129.699219 240.960938 135.667969 243.570312 141.585938 242.328125 C 143.121094 242.003906 144.527344 241.441406 145.78125 240.679688 C 147.847656 239.445312 149.152344 237.832031 149.910156 236.71875 C 149.910156 236.71875 149.9375 236.671875 149.9375 236.671875 C 154.152344 230.207031 150.945312 222.203125 149.777344 219.199219 L 149.71875 219.097656 C 147.53125 213.59375 144.242188 204.457031 140.398438 193.796875 C 144.824219 187.246094 148.242188 182.441406 150.875 179.171875 L 150.996094 179.03125 C 151.964844 177.835938 153.714844 175.632812 155.144531 172.808594 C 157.183594 168.710938 157.703125 164.816406 156.6875 161.246094 C 155.964844 158.722656 154.652344 157.011719 153.902344 156.171875 C 148.761719 150.410156 140.226562 151.363281 137.023438 151.730469 L 136.914062 151.75 C 131.734375 152.34375 123.597656 153.019531 114.140625 153.78125 C 108.515625 146.246094 103.703125 139.6875 100.738281 135.378906 L 100.679688 135.277344 C 98.820312 132.609375 93.941406 125.527344 86.21875 125.46875 C 86.21875 125.46875 86.183594 125.476562 86.183594 125.476562 C 85.253906 125.59375 84.363281 125.707031 83.484375 125.890625 Z M 83.484375 125.890625 " fill-opacity="1" fill-rule="nonzero"/></g></g></g></g><g clip-path="url(#f9459090ea)"><g clip-path="url(#695e282e34)"><g clip-path="url(#d551c22d06)"><g clip-path="url(#f85ab26bdc)"><path fill="#ec297b" d="M 141.144531 240.773438 C 135.773438 241.902344 130.183594 239.445312 127.785156 238.382812 L 127.617188 238.300781 C 122.695312 236.125 115.265625 233.441406 104.359375 229.84375 C 97.507812 236.101562 92.589844 240.839844 89.425781 244.296875 L 89.300781 244.4375 C 87.128906 246.804688 81.316406 253.109375 74.058594 252.148438 C 72.40625 251.921875 70.796875 251.34375 69.390625 250.453125 C 69.390625 250.453125 69.390625 250.453125 69.34375 250.425781 C 63.632812 246.652344 63.332031 238.6875 63.238281 235.6875 L 63.25 235.570312 C 63.074219 230.179688 62.523438 221.925781 61.835938 211.746094 C 53.585938 206.445312 47.433594 202.765625 43.148438 200.53125 L 42.980469 200.453125 C 40.109375 198.953125 32.496094 195.046875 31.539062 187.753906 C 31.214844 185.492188 31.667969 183.636719 31.972656 182.734375 C 34.074219 176.214844 41.667969 173.855469 44.539062 172.984375 L 44.648438 172.960938 C 49.949219 171.3125 58.054688 168.5 67.441406 165.230469 C 70.105469 155.382812 71.84375 148.214844 72.679688 143.296875 L 72.722656 143.136719 C 73.277344 139.960938 74.699219 131.480469 81.371094 128.359375 C 82.867188 127.664062 84.574219 127.265625 86.214844 127.265625 C 93.09375 127.3125 97.632812 133.851562 99.335938 136.324219 L 99.394531 136.425781 C 102.507812 140.894531 107.527344 147.714844 113.382812 155.621094 C 123.253906 154.847656 131.765625 154.132812 137.136719 153.539062 L 137.246094 153.515625 C 140.230469 153.195312 148.128906 152.300781 152.671875 157.386719 C 153.277344 158.101562 154.429688 159.582031 155.078125 161.773438 C 157.097656 168.84375 151.707031 175.519531 149.710938 178.003906 L 149.589844 178.144531 C 146.832031 181.550781 143.207031 186.632812 138.558594 193.570312 C 142.515625 204.589844 145.910156 214.046875 148.171875 219.726562 L 148.230469 219.828125 C 149.351562 222.613281 152.28125 230.027344 148.566406 235.777344 C 148.566406 235.777344 148.566406 235.777344 148.539062 235.820312 C 147.902344 236.796875 146.746094 238.183594 144.945312 239.25 C 143.664062 240.054688 142.425781 240.507812 141.144531 240.773438 Z M 102.621094 221.570312 C 103.28125 221.429688 103.976562 221.476562 104.628906 221.683594 C 116.960938 225.707031 125.257812 228.707031 130.761719 231.105469 L 130.929688 231.183594 C 137.992188 234.289062 140.085938 233.007812 140.765625 232.597656 C 141.375 232.238281 141.730469 231.746094 141.875 231.523438 C 143.367188 229.183594 141.519531 224.566406 140.84375 222.796875 L 140.78125 222.691406 C 138.355469 216.589844 134.671875 206.316406 130.386719 194.445312 C 129.953125 193.277344 130.136719 191.976562 130.800781 190.957031 C 136.140625 182.957031 140.226562 177.164062 143.34375 173.300781 L 143.46875 173.160156 C 148.316406 167.171875 147.625 164.792969 147.425781 164.03125 C 147.183594 163.242188 146.734375 162.726562 146.726562 162.6875 C 144.875 160.59375 139.882812 161.179688 138.019531 161.382812 L 137.910156 161.40625 C 132.019531 162.070312 122.984375 162.820312 111.757812 163.6875 C 110.402344 163.777344 109.101562 163.210938 108.300781 162.117188 C 101.863281 153.453125 96.230469 145.882812 92.832031 140.976562 L 92.773438 140.875 C 91.691406 139.34375 88.835938 135.203125 86.082031 135.167969 C 85.929688 135.164062 85.285156 135.183594 84.589844 135.519531 C 81.640625 136.90625 80.671875 142.652344 80.339844 144.519531 L 80.296875 144.679688 C 79.324219 150.234375 77.464844 158.082031 74.367188 169.320312 C 74.019531 170.578125 73.085938 171.578125 71.875 171.984375 C 61.597656 175.554688 52.636719 178.660156 46.867188 180.445312 L 46.757812 180.46875 C 44.96875 181.035156 40.164062 182.503906 39.3125 185.167969 C 39.285156 185.210938 39.078125 185.867188 39.210938 186.679688 C 39.660156 189.910156 44.800781 192.578125 46.507812 193.441406 L 46.675781 193.523438 C 51.558594 196.054688 58.238281 200.078125 67.679688 206.160156 C 68.734375 206.820312 69.390625 207.941406 69.460938 209.191406 C 70.246094 220.378906 70.84375 229.390625 71.039062 235.234375 L 71.0625 235.34375 C 71.117188 237.246094 71.320312 242.210938 73.628906 243.753906 C 74.0625 244.003906 74.5625 244.207031 75.078125 244.289062 C 78.296875 244.722656 82.210938 240.460938 83.511719 239.039062 L 83.636719 238.898438 C 87.265625 234.925781 92.730469 229.6875 100.816406 222.40625 C 101.34375 222.027344 101.964844 221.707031 102.621094 221.570312 Z M 146.453125 175.742188 Z M 146.453125 175.742188 " fill-opacity="1" fill-rule="nonzero"/></g></g></g></g><g clip-path="url(#6499b25c84)"><g clip-path="url(#7aa6503ca9)"><g clip-path="url(#d95fd77af5)"><g clip-path="url(#54c69afaaf)"><path fill="#f2e3e6" d="M 139.261719 231.613281 C 136.777344 232.136719 132.863281 230.394531 131.558594 229.828125 L 131.390625 229.75 C 125.84375 227.320312 117.503906 224.292969 105.136719 220.277344 C 104.234375 219.96875 103.273438 219.941406 102.359375 220.132812 C 101.445312 220.324219 100.585938 220.773438 99.84375 221.425781 C 91.730469 228.75 86.269531 233.988281 82.574219 238.011719 L 82.449219 238.152344 C 81.484375 239.195312 78.566406 242.371094 76.117188 242.886719 C 75.824219 242.945312 75.5625 242.964844 75.328125 242.9375 C 75.050781 242.878906 74.726562 242.796875 74.503906 242.652344 C 73.746094 242.121094 72.820312 240.441406 72.644531 235.433594 L 72.660156 235.316406 C 72.453125 229.433594 71.851562 220.386719 71.066406 209.195312 C 70.9375 207.503906 70.039062 205.933594 68.585938 205.015625 C 59.097656 198.902344 52.410156 194.839844 47.484375 192.28125 L 47.316406 192.203125 C 42.21875 189.566406 40.984375 187.683594 40.828125 186.570312 C 40.789062 186.195312 40.863281 185.835938 40.878906 185.71875 C 41.148438 184.820312 42.503906 183.464844 47.34375 181.988281 L 47.453125 181.96875 C 53.257812 180.175781 62.222656 177.070312 72.488281 173.460938 C 74.160156 172.878906 75.472656 171.496094 75.917969 169.796875 C 78.945312 158.417969 80.835938 150.527344 81.800781 144.9375 L 81.84375 144.773438 C 82.824219 139.101562 84.25 137.351562 85.257812 136.871094 C 85.394531 136.804688 85.578125 136.765625 85.722656 136.734375 C 85.796875 136.71875 85.941406 136.6875 86.097656 136.695312 C 87.019531 136.730469 88.691406 137.601562 91.582031 141.734375 L 91.640625 141.839844 C 95.035156 146.746094 100.679688 154.351562 107.113281 163.015625 C 108.226562 164.503906 110.046875 165.34375 111.882812 165.1875 C 122.726562 164.324219 132.21875 163.554688 138.109375 162.894531 L 138.21875 162.871094 C 143.25 162.308594 145 163.011719 145.636719 163.683594 C 145.734375 163.777344 145.949219 164.074219 146.023438 164.441406 C 146.328125 165.523438 145.964844 167.78125 142.359375 172.246094 L 142.238281 172.386719 C 139.089844 176.296875 134.964844 182.09375 129.597656 190.140625 C 128.636719 191.5625 128.445312 193.363281 129.007812 194.964844 C 133.300781 206.871094 136.984375 217.144531 139.417969 223.285156 L 139.441406 223.394531 C 141.296875 228.050781 141.125 229.960938 140.644531 230.75 C 140.527344 230.925781 140.273438 231.171875 140.003906 231.34375 C 139.800781 231.460938 139.554688 231.550781 139.261719 231.613281 Z M 139.261719 231.613281 " fill-opacity="1" fill-rule="nonzero"/></g></g></g></g><g clip-path="url(#8e28b65407)"><g clip-path="url(#b15a707319)"><g clip-path="url(#5d46494699)"><g clip-path="url(#4a8d0d7bae)"><path fill="#ed83b5" d="M 87.308594 145.003906 C 90.761719 150.011719 96.390625 157.546875 102.824219 166.210938 C 105.058594 169.21875 108.644531 170.839844 112.359375 170.554688 C 123.542969 169.660156 132.625 168.9375 138.585938 168.257812 C 138.46875 168.4375 138.3125 168.585938 138.160156 168.769531 L 138.035156 168.910156 C 134.738281 173.003906 130.640625 178.757812 125.101562 187.070312 C 123.179688 189.917969 122.753906 193.527344 123.929688 196.757812 C 128.179688 208.632812 131.855469 218.871094 134.347656 225.113281 C 134.140625 225.042969 133.929688 224.933594 133.722656 224.863281 L 133.554688 224.785156 C 127.839844 222.277344 119.332031 219.207031 106.796875 215.113281 C 104.953125 214.503906 103.035156 214.449219 101.246094 214.824219 C 99.417969 215.207031 97.652344 216.074219 96.210938 217.375 C 87.964844 224.800781 82.378906 230.179688 78.589844 234.300781 L 78.464844 234.441406 C 78.3125 234.625 78.152344 234.773438 77.996094 234.921875 C 77.773438 228.964844 77.171875 219.917969 76.402344 208.804688 C 76.175781 205.371094 74.34375 202.277344 71.476562 200.433594 C 61.851562 194.195312 54.996094 190.09375 49.902344 187.453125 L 49.734375 187.375 C 49.519531 187.265625 49.34375 187.152344 49.136719 187.078125 C 55.007812 185.234375 63.972656 182.128906 74.210938 178.566406 C 77.589844 177.398438 80.140625 174.644531 81.09375 171.195312 C 84.253906 159.714844 86.1875 151.660156 87.183594 145.871094 L 87.226562 145.707031 C 87.210938 145.445312 87.238281 145.210938 87.308594 145.003906 M 84.636719 131.382812 C 84.125 131.488281 83.550781 131.648438 82.960938 131.925781 C 78.066406 134.253906 76.886719 141.535156 76.488281 143.988281 C 75.511719 149.699219 73.484375 157.847656 70.636719 168.269531 C 59.726562 172.089844 51.257812 175.011719 45.777344 176.699219 C 43.308594 177.484375 37.167969 179.308594 35.660156 183.945312 C 35.570312 184.234375 35.15625 185.542969 35.394531 187.214844 C 36.140625 192.601562 42.753906 195.914062 44.929688 197.023438 C 49.9375 199.605469 56.855469 203.847656 65.597656 209.503906 C 66.386719 220.882812 66.988281 229.742188 67.191406 235.433594 C 67.273438 238.015625 67.441406 244.441406 71.546875 247.09375 C 71.8125 247.269531 72.953125 247.984375 74.605469 248.210938 C 75.507812 248.328125 76.371094 248.261719 77.210938 248.085938 C 81.484375 247.1875 85.164062 243.089844 86.5625 241.570312 C 90.289062 237.5 95.984375 232.101562 103.449219 225.332031 C 114.839844 229.058594 123.535156 232.125 129.214844 234.640625 C 131.105469 235.46875 136.085938 237.746094 140.359375 236.851562 C 141.199219 236.671875 142.054688 236.378906 142.832031 235.910156 C 144.253906 235.039062 145.011719 233.921875 145.183594 233.65625 C 147.839844 229.582031 145.40625 223.632812 144.472656 221.191406 C 142.128906 215.300781 138.648438 205.632812 134.136719 193.046875 C 139.152344 185.496094 143.269531 179.660156 146.480469 175.699219 C 148.023438 173.769531 152.742188 168.078125 151.269531 162.882812 C 150.8125 161.257812 149.910156 160.222656 149.707031 159.996094 C 146.464844 156.359375 140.101562 157.121094 137.53125 157.433594 C 131.835938 158.09375 122.941406 158.8125 111.5 159.726562 C 104.648438 150.539062 99.367188 143.386719 96.128906 138.679688 C 94.648438 136.542969 91.058594 131.257812 86.167969 131.214844 C 85.941406 131.222656 85.367188 131.226562 84.636719 131.382812 Z M 84.636719 131.382812 " fill-opacity="1" fill-rule="nonzero"/></g></g></g></g><g clip-path="url(#550080ca7c)"><g clip-path="url(#90fe270879)"><g clip-path="url(#eb627cda8f)"><g clip-path="url(#3a63190736)"><path fill="#fff48b" d="M 84.636719 131.382812 C 85.40625 131.21875 85.976562 131.214844 86.167969 131.214844 C 91.058594 131.257812 94.65625 136.578125 96.128906 138.679688 C 99.367188 143.386719 104.683594 150.53125 111.492188 159.691406 C 122.9375 158.777344 131.828125 158.058594 137.53125 157.433594 C 140.101562 157.121094 146.464844 156.359375 149.707031 159.996094 C 149.910156 160.222656 150.8125 161.257812 151.269531 162.882812 C 152.75 168.113281 148.03125 173.808594 146.480469 175.699219 C 143.269531 179.660156 139.160156 185.53125 134.136719 193.046875 C 138.648438 205.632812 142.128906 215.300781 144.472656 221.191406 C 145.433594 223.589844 147.867188 229.539062 145.183594 233.65625 C 145.011719 233.921875 144.253906 235.039062 142.832031 235.910156 C 142.054688 236.378906 141.238281 236.664062 140.359375 236.851562 C 136.085938 237.746094 131.066406 235.476562 129.214844 234.640625 C 123.535156 232.125 114.839844 229.058594 103.449219 225.332031 C 95.976562 232.0625 90.289062 237.5 86.5625 241.570312 C 85.164062 243.089844 81.523438 247.179688 77.210938 248.085938 C 76.371094 248.261719 75.46875 248.335938 74.605469 248.210938 C 72.953125 247.984375 71.804688 247.230469 71.546875 247.09375 C 67.476562 244.433594 67.308594 238.007812 67.191406 235.433594 C 66.988281 229.742188 66.386719 220.882812 65.597656 209.503906 C 56.855469 203.847656 49.945312 199.640625 44.929688 197.023438 C 42.746094 195.878906 36.136719 192.5625 35.394531 187.214844 C 35.15625 185.542969 35.570312 184.234375 35.660156 183.945312 C 37.167969 179.308594 43.300781 177.449219 45.777344 176.699219 C 51.25 174.976562 59.71875 172.050781 70.636719 168.269531 C 73.484375 157.847656 75.511719 149.699219 76.488281 143.988281 C 76.886719 141.535156 78.066406 134.253906 82.960938 131.925781 C 83.550781 131.648438 84.125 131.488281 84.636719 131.382812 M 83.484375 125.890625 C 82.460938 126.105469 81.5 126.421875 80.59375 126.839844 C 73.167969 130.351562 71.554688 139.75 71.019531 142.84375 L 70.976562 143.003906 C 70.175781 147.722656 68.523438 154.566406 66.023438 163.921875 C 57.023438 167.035156 49.238281 169.742188 44.109375 171.316406 L 44 171.339844 C 40.921875 172.292969 32.722656 174.855469 30.332031 182.199219 C 29.976562 183.230469 29.472656 185.359375 29.828125 187.960938 C 30.925781 196.101562 39.398438 200.480469 42.183594 201.921875 L 42.351562 202 C 46.503906 204.148438 52.351562 207.660156 60.195312 212.664062 C 60.878906 222.460938 61.390625 230.34375 61.574219 235.578125 L 61.558594 235.695312 C 61.664062 238.925781 61.984375 247.535156 68.445312 251.761719 C 68.445312 251.761719 68.488281 251.789062 68.488281 251.789062 C 70.117188 252.824219 71.941406 253.511719 73.859375 253.757812 C 75.347656 253.941406 76.863281 253.890625 78.363281 253.578125 C 84.28125 252.332031 88.660156 247.554688 90.558594 245.511719 L 90.679688 245.371094 C 93.722656 242.054688 98.351562 237.566406 104.824219 231.695312 C 115.15625 235.109375 122.265625 237.707031 127.007812 239.769531 L 127.179688 239.847656 C 129.699219 240.960938 135.667969 243.570312 141.585938 242.328125 C 143.121094 242.003906 144.527344 241.441406 145.78125 240.679688 C 147.847656 239.445312 149.152344 237.832031 149.910156 236.71875 C 149.910156 236.71875 149.9375 236.671875 149.9375 236.671875 C 154.152344 230.207031 150.945312 222.203125 149.777344 219.199219 L 149.71875 219.097656 C 147.53125 213.59375 144.242188 204.457031 140.398438 193.796875 C 144.824219 187.246094 148.242188 182.441406 150.875 179.171875 L 150.996094 179.03125 C 151.964844 177.835938 153.714844 175.632812 155.144531 172.808594 C 157.183594 168.710938 157.703125 164.816406 156.6875 161.246094 C 155.964844 158.722656 154.652344 157.011719 153.902344 156.171875 C 148.761719 150.410156 140.226562 151.363281 137.023438 151.730469 L 136.914062 151.75 C 131.734375 152.34375 123.597656 153.019531 114.140625 153.78125 C 108.515625 146.246094 103.703125 139.6875 100.738281 135.378906 L 100.679688 135.277344 C 98.820312 132.609375 93.941406 125.527344 86.21875 125.46875 C 86.21875 125.46875 86.183594 125.476562 86.183594 125.476562 C 85.253906 125.59375 84.363281 125.707031 83.484375 125.890625 Z M 83.484375 125.890625 " fill-opacity="1" fill-rule="nonzero"/></g></g></g></g><g clip-path="url(#8f2efe050c)"><g clip-path="url(#790baf0976)"><g clip-path="url(#ab3cae07d8)"><g clip-path="url(#edc193be92)"><path fill="#ec297b" d="M 141.144531 240.773438 C 135.773438 241.902344 130.183594 239.445312 127.785156 238.382812 L 127.617188 238.300781 C 122.695312 236.125 115.265625 233.441406 104.359375 229.84375 C 97.507812 236.101562 92.589844 240.839844 89.425781 244.296875 L 89.300781 244.4375 C 87.128906 246.804688 81.316406 253.109375 74.058594 252.148438 C 72.40625 251.921875 70.796875 251.34375 69.390625 250.453125 C 69.390625 250.453125 69.390625 250.453125 69.34375 250.425781 C 63.632812 246.652344 63.332031 238.6875 63.238281 235.6875 L 63.25 235.570312 C 63.074219 230.179688 62.523438 221.925781 61.835938 211.746094 C 53.585938 206.445312 47.433594 202.765625 43.148438 200.53125 L 42.980469 200.453125 C 40.109375 198.953125 32.496094 195.046875 31.539062 187.753906 C 31.214844 185.492188 31.667969 183.636719 31.972656 182.734375 C 34.074219 176.214844 41.667969 173.855469 44.539062 172.984375 L 44.648438 172.960938 C 49.949219 171.3125 58.054688 168.5 67.441406 165.230469 C 70.105469 155.382812 71.84375 148.214844 72.679688 143.296875 L 72.722656 143.136719 C 73.277344 139.960938 74.699219 131.480469 81.371094 128.359375 C 82.867188 127.664062 84.574219 127.265625 86.214844 127.265625 C 93.09375 127.3125 97.632812 133.851562 99.335938 136.324219 L 99.394531 136.425781 C 102.507812 140.894531 107.527344 147.714844 113.382812 155.621094 C 123.253906 154.847656 131.765625 154.132812 137.136719 153.539062 L 137.246094 153.515625 C 140.230469 153.195312 148.128906 152.300781 152.671875 157.386719 C 153.277344 158.101562 154.429688 159.582031 155.078125 161.773438 C 157.097656 168.84375 151.707031 175.519531 149.710938 178.003906 L 149.589844 178.144531 C 146.832031 181.550781 143.207031 186.632812 138.558594 193.570312 C 142.515625 204.589844 145.910156 214.046875 148.171875 219.726562 L 148.230469 219.828125 C 149.351562 222.613281 152.28125 230.027344 148.566406 235.777344 C 148.566406 235.777344 148.566406 235.777344 148.539062 235.820312 C 147.902344 236.796875 146.746094 238.183594 144.945312 239.25 C 143.664062 240.054688 142.425781 240.507812 141.144531 240.773438 Z M 102.621094 221.570312 C 103.28125 221.429688 103.976562 221.476562 104.628906 221.683594 C 116.960938 225.707031 125.257812 228.707031 130.761719 231.105469 L 130.929688 231.183594 C 137.992188 234.289062 140.085938 233.007812 140.765625 232.597656 C 141.375 232.238281 141.730469 231.746094 141.875 231.523438 C 143.367188 229.183594 141.519531 224.566406 140.84375 222.796875 L 140.78125 222.691406 C 138.355469 216.589844 134.671875 206.316406 130.386719 194.445312 C 129.953125 193.277344 130.136719 191.976562 130.800781 190.957031 C 136.140625 182.957031 140.226562 177.164062 143.34375 173.300781 L 143.46875 173.160156 C 148.316406 167.171875 147.625 164.792969 147.425781 164.03125 C 147.183594 163.242188 146.734375 162.726562 146.726562 162.6875 C 144.875 160.59375 139.882812 161.179688 138.019531 161.382812 L 137.910156 161.40625 C 132.019531 162.070312 122.984375 162.820312 111.757812 163.6875 C 110.402344 163.777344 109.101562 163.210938 108.300781 162.117188 C 101.863281 153.453125 96.230469 145.882812 92.832031 140.976562 L 92.773438 140.875 C 91.691406 139.34375 88.835938 135.203125 86.082031 135.167969 C 85.929688 135.164062 85.285156 135.183594 84.589844 135.519531 C 81.640625 136.90625 80.671875 142.652344 80.339844 144.519531 L 80.296875 144.679688 C 79.324219 150.234375 77.464844 158.082031 74.367188 169.320312 C 74.019531 170.578125 73.085938 171.578125 71.875 171.984375 C 61.597656 175.554688 52.636719 178.660156 46.867188 180.445312 L 46.757812 180.46875 C 44.96875 181.035156 40.164062 182.503906 39.3125 185.167969 C 39.285156 185.210938 39.078125 185.867188 39.210938 186.679688 C 39.660156 189.910156 44.800781 192.578125 46.507812 193.441406 L 46.675781 193.523438 C 51.558594 196.054688 58.238281 200.078125 67.679688 206.160156 C 68.734375 206.820312 69.390625 207.941406 69.460938 209.191406 C 70.246094 220.378906 70.84375 229.390625 71.039062 235.234375 L 71.0625 235.34375 C 71.117188 237.246094 71.320312 242.210938 73.628906 243.753906 C 74.0625 244.003906 74.5625 244.207031 75.078125 244.289062 C 78.296875 244.722656 82.210938 240.460938 83.511719 239.039062 L 83.636719 238.898438 C 87.265625 234.925781 92.730469 229.6875 100.816406 222.40625 C 101.34375 222.027344 101.964844 221.707031 102.621094 221.570312 Z M 146.453125 175.742188 Z M 146.453125 175.742188 " fill-opacity="1" fill-rule="nonzero"/></g></g></g></g><path stroke-linecap="butt" transform="matrix(0.602775, 0, 0, 0.602775, 77.995744, 165.88436)" fill="none" stroke-linejoin="miter" d="M 8.152976 69.999163 L 24.386482 69.999163 C 25.293744 69.999163 26.013073 69.286315 26.013073 68.379053 L 26.013073 59.24163 C 26.013073 58.334368 26.725921 57.615039 27.652625 57.615039 C 28.559886 57.615039 29.272735 58.399173 29.272735 59.306434 L 29.272735 68.379053 C 29.272735 69.286315 30.056868 69.999163 30.96413 69.999163 L 47.197637 69.999163 C 48.117859 69.999163 48.837188 69.286315 48.837188 68.379053 L 48.837188 31.148915 C 48.837188 23.450151 43.231606 17.844569 35.526361 17.844569 L 19.759447 17.844569 C 12.067162 17.844569 6.448619 23.450151 6.448619 31.148915 L 6.448619 68.379053 C 6.448619 69.286315 7.245714 69.999163 8.152976 69.999163 Z M 27.652625 41.971253 C 26.725921 41.971253 26.013073 41.258404 26.013073 40.331701 L 26.013073 35.127907 C 26.013073 34.207684 26.725921 33.488355 27.652625 33.488355 C 28.559886 33.488355 29.272735 34.207684 29.272735 35.127907 L 29.272735 40.331701 C 29.272735 41.258404 28.559886 41.971253 27.652625 41.971253 Z M 53.788246 69.999163 L 102.676698 69.999163 C 103.58396 69.999163 104.303289 69.286315 104.303289 68.379053 L 104.303289 55.975487 C 104.303289 55.068226 103.519155 54.355377 102.611894 54.355377 L 73.281414 54.355377 C 72.361192 54.355377 71.641863 53.636048 71.641863 52.728786 C 71.641863 51.808563 72.361192 51.089234 73.281414 51.089234 L 100.06508 51.089234 C 100.972342 51.089234 101.691671 50.376386 101.691671 49.469124 L 101.691671 38.374608 C 101.691671 37.467346 100.914018 36.754497 100.006756 36.754497 L 73.281414 36.754497 C 72.361192 36.754497 71.641863 36.035168 71.641863 35.127907 C 71.641863 34.207684 72.361192 33.488355 73.281414 33.488355 L 102.676698 33.488355 C 103.58396 33.488355 104.303289 32.775506 104.303289 31.868244 L 104.303289 19.48412 C 104.303289 18.563898 103.58396 17.844569 102.676698 17.844569 L 53.723441 17.844569 C 52.796738 17.844569 52.08389 18.563898 52.08389 19.48412 L 52.08389 68.379053 C 52.08389 69.286315 52.880984 69.999163 53.788246 69.999163 Z M 109.196022 69.999163 L 146.42616 69.999163 C 154.111964 69.999163 159.711065 64.400062 159.711065 56.694816 L 159.711065 49.40432 C 159.711065 41.699074 154.111964 36.099973 146.42616 36.099973 L 128.753995 36.099973 C 127.833773 36.099973 127.114444 35.380644 127.114444 34.473382 C 127.114444 33.553159 127.833773 32.840311 128.753995 32.840311 L 158.090955 32.840311 C 158.998217 32.840311 159.711065 32.120982 159.711065 31.21372 L 159.711065 19.48412 C 159.711065 18.563898 158.998217 17.844569 158.090955 17.844569 L 120.860817 17.844569 C 113.175013 17.844569 107.556471 23.450151 107.556471 31.148915 L 107.556471 38.452373 C 107.556471 46.144657 113.175013 51.743759 120.860817 51.743759 L 138.526501 51.743759 C 139.433763 51.743759 140.153092 52.463088 140.153092 53.383311 C 140.153092 54.290573 139.433763 55.009902 138.526501 55.009902 L 109.196022 55.009902 C 108.2758 55.009902 107.556471 55.72275 107.556471 56.630012 L 107.556471 68.379053 C 107.556471 69.286315 108.2758 69.999163 109.196022 69.999163 Z M 174.505914 69.999163 L 190.73942 69.999163 C 191.659643 69.999163 192.378972 69.22151 192.378972 68.314248 L 192.378972 37.085 C 192.378972 36.164777 193.156625 35.445448 194.063887 35.445448 L 200.589691 35.445448 C 201.496953 35.445448 202.216282 34.7326 202.216282 33.825338 L 202.216282 19.48412 C 202.216282 18.622222 201.496953 17.844569 200.589691 17.844569 L 164.603799 17.779764 C 163.683576 17.779764 162.964247 18.499093 162.964247 19.419316 L 162.964247 33.825338 C 162.964247 34.7326 163.683576 35.445448 164.603799 35.445448 L 171.116643 35.445448 C 172.036865 35.445448 172.820999 36.164777 172.820999 37.085 L 172.820999 68.379053 C 172.820999 69.286315 173.598652 69.999163 174.505914 69.999163 Z M 207.17382 69.999163 L 223.407326 69.999163 C 224.314588 69.999163 225.027437 69.286315 225.027437 68.379053 L 225.027437 54.018394 C 225.027437 53.111132 225.746766 52.398284 226.666989 52.398284 C 227.57425 52.398284 228.293579 53.175937 228.293579 54.10264 L 228.293579 68.379053 C 228.293579 69.286315 229.071232 69.999163 229.978494 69.999163 L 246.212001 69.999163 C 247.138704 69.999163 247.851552 69.286315 247.851552 68.379053 L 247.851552 19.48412 C 247.851552 18.563898 247.073899 17.844569 246.147196 17.844569 L 229.91369 17.844569 C 229.006428 17.844569 228.293579 18.563898 228.293579 19.48412 L 228.293579 33.825338 C 228.293579 34.7326 227.57425 35.445448 226.666989 35.445448 C 225.746766 35.445448 225.027437 34.7326 225.027437 33.825338 L 225.027437 19.48412 C 225.027437 18.563898 224.249784 17.844569 223.342522 17.844569 L 207.109016 17.844569 C 206.182312 17.844569 205.469464 18.563898 205.469464 19.48412 L 205.469464 68.379053 C 205.469464 69.286315 206.266558 69.999163 207.17382 69.999163 Z M 252.80261 69.999163 L 301.697542 69.999163 C 302.604804 69.999163 303.317653 69.286315 303.317653 68.379053 L 303.317653 55.975487 C 303.317653 55.068226 302.54 54.355377 301.632738 54.355377 L 272.302259 54.355377 C 271.375556 54.355377 270.662707 53.636048 270.662707 52.728786 C 270.662707 51.808563 271.375556 51.089234 272.302259 51.089234 L 299.085924 51.089234 C 299.993186 51.089234 300.706035 50.376386 300.706035 49.469124 L 300.706035 38.374608 C 300.706035 37.467346 299.928382 36.754497 299.02112 36.754497 L 272.302259 36.754497 C 271.375556 36.754497 270.662707 36.035168 270.662707 35.127907 C 270.662707 34.207684 271.375556 33.488355 272.302259 33.488355 L 301.697542 33.488355 C 302.604804 33.488355 303.317653 32.775506 303.317653 31.868244 L 303.317653 19.48412 C 303.317653 18.563898 302.604804 17.844569 301.697542 17.844569 L 252.737806 17.844569 C 251.817583 17.844569 251.098254 18.563898 251.098254 19.48412 L 251.098254 68.379053 C 251.098254 69.286315 251.895348 69.999163 252.80261 69.999163 Z M 318.112501 69.999163 L 334.346008 69.999163 C 335.272711 69.999163 335.985559 69.22151 335.985559 68.314248 L 335.985559 37.085 C 335.985559 36.164777 336.763212 35.445448 337.670474 35.445448 L 344.196279 35.445448 C 345.103541 35.445448 345.82287 34.7326 345.82287 33.825338 L 345.82287 19.48412 C 345.82287 18.622222 345.103541 17.844569 344.196279 17.844569 L 308.216867 17.779764 C 307.290164 17.779764 306.577315 18.499093 306.577315 19.419316 L 306.577315 33.825338 C 306.577315 34.7326 307.290164 35.445448 308.216867 35.445448 L 314.72323 35.445448 C 315.643453 35.445448 316.427586 36.164777 316.427586 37.085 L 316.427586 68.379053 C 316.427586 69.286315 317.205239 69.999163 318.112501 69.999163 Z M 350.780408 69.999163 L 367.013914 69.999163 C 367.921176 69.999163 368.634025 69.286315 368.634025 68.379053 L 368.634025 19.48412 C 368.634025 18.563898 367.856372 17.844569 366.94911 17.844569 L 350.715603 17.844569 C 349.795381 17.844569 349.076052 18.563898 349.076052 19.48412 L 349.076052 68.379053 C 349.076052 69.286315 349.873146 69.999163 350.780408 69.999163 Z M 385.198033 69.999163 L 422.421691 69.999163 C 423.328952 69.999163 424.048281 69.22151 424.048281 68.314248 L 424.048281 54.018394 C 424.048281 53.111132 423.328952 52.398284 422.421691 52.398284 L 393.091211 52.398284 C 392.170989 52.398284 391.45166 51.678955 391.45166 50.771693 L 391.45166 37.085 C 391.45166 36.164777 392.170989 35.445448 393.091211 35.445448 L 422.421691 35.445448 C 423.328952 35.445448 424.048281 34.667795 424.048281 33.760533 L 424.048281 19.48412 C 424.048281 18.563898 423.328952 17.844569 422.421691 17.844569 L 385.198033 17.844569 C 377.51223 17.844569 371.893687 23.450151 371.893687 31.148915 L 371.893687 56.694816 C 371.893687 64.400062 377.51223 69.999163 385.198033 69.999163 Z M 385.198033 69.999163 " stroke="#fff48b" stroke-width="9.453347" stroke-opacity="1" stroke-miterlimit="4"/><g fill="#ec297b" fill-opacity="1"><g transform="translate(80.906019, 208.078629)"><g><path d="M 2.003906 0 L 11.789062 0 C 12.339844 0 12.769531 -0.433594 12.769531 -0.980469 L 12.769531 -6.484375 C 12.769531 -7.035156 13.203125 -7.464844 13.753906 -7.464844 C 14.304688 -7.464844 14.734375 -6.996094 14.734375 -6.445312 L 14.734375 -0.980469 C 14.734375 -0.433594 15.207031 0 15.757812 0 L 25.542969 0 C 26.09375 0 26.523438 -0.433594 26.523438 -0.980469 L 26.523438 -23.417969 C 26.523438 -28.054688 23.144531 -31.4375 18.507812 -31.4375 L 9 -31.4375 C 4.363281 -31.4375 0.980469 -28.054688 0.980469 -23.417969 L 0.980469 -0.980469 C 0.980469 -0.433594 1.453125 0 2.003906 0 Z M 13.753906 -16.898438 C 13.203125 -16.898438 12.769531 -17.328125 12.769531 -17.878906 L 12.769531 -21.023438 C 12.769531 -21.574219 13.203125 -22.003906 13.753906 -22.003906 C 14.304688 -22.003906 14.734375 -21.574219 14.734375 -21.023438 L 14.734375 -17.878906 C 14.734375 -17.328125 14.304688 -16.898438 13.753906 -16.898438 Z M 13.753906 -16.898438 "/></g></g></g><g fill="#ec297b" fill-opacity="1"><g transform="translate(108.411393, 208.078629)"><g><path d="M 2.003906 0 L 31.476562 0 C 32.023438 0 32.457031 -0.433594 32.457031 -0.980469 L 32.457031 -8.449219 C 32.457031 -9 31.984375 -9.429688 31.4375 -9.429688 L 13.753906 -9.429688 C 13.203125 -9.429688 12.769531 -9.863281 12.769531 -10.414062 C 12.769531 -10.964844 13.203125 -11.394531 13.753906 -11.394531 L 29.902344 -11.394531 C 30.453125 -11.394531 30.886719 -11.828125 30.886719 -12.378906 L 30.886719 -19.058594 C 30.886719 -19.609375 30.414062 -20.039062 29.863281 -20.039062 L 13.753906 -20.039062 C 13.203125 -20.039062 12.769531 -20.472656 12.769531 -21.023438 C 12.769531 -21.574219 13.203125 -22.003906 13.753906 -22.003906 L 31.476562 -22.003906 C 32.023438 -22.003906 32.457031 -22.4375 32.457031 -22.988281 L 32.457031 -30.453125 C 32.457031 -31.003906 32.023438 -31.4375 31.476562 -31.4375 L 1.964844 -31.4375 C 1.414062 -31.4375 0.980469 -31.003906 0.980469 -30.453125 L 0.980469 -0.980469 C 0.980469 -0.433594 1.453125 0 2.003906 0 Z M 2.003906 0 "/></g></g></g><g fill="#ec297b" fill-opacity="1"><g transform="translate(141.850061, 208.078629)"><g><path d="M 1.964844 0 L 24.402344 0 C 29.039062 0 32.417969 -3.378906 32.417969 -8.015625 L 32.417969 -12.417969 C 32.417969 -17.054688 29.039062 -20.433594 24.402344 -20.433594 L 13.753906 -20.433594 C 13.203125 -20.433594 12.769531 -20.867188 12.769531 -21.414062 C 12.769531 -21.964844 13.203125 -22.398438 13.753906 -22.398438 L 31.4375 -22.398438 C 31.984375 -22.398438 32.417969 -22.832031 32.417969 -23.378906 L 32.417969 -30.453125 C 32.417969 -31.003906 31.984375 -31.4375 31.4375 -31.4375 L 9 -31.4375 C 4.363281 -31.4375 0.980469 -28.054688 0.980469 -23.417969 L 0.980469 -19.019531 C 0.980469 -14.382812 4.363281 -11.003906 9 -11.003906 L 19.648438 -11.003906 C 20.199219 -11.003906 20.628906 -10.570312 20.628906 -10.019531 C 20.628906 -9.46875 20.199219 -9.039062 19.648438 -9.039062 L 1.964844 -9.039062 C 1.414062 -9.039062 0.980469 -8.605469 0.980469 -8.054688 L 0.980469 -0.980469 C 0.980469 -0.433594 1.414062 0 1.964844 0 Z M 1.964844 0 "/></g></g></g><g fill="#ec297b" fill-opacity="1"><g transform="translate(175.249436, 208.078629)"><g><path d="M 7.9375 0 L 17.722656 0 C 18.273438 0 18.703125 -0.472656 18.703125 -1.023438 L 18.703125 -19.84375 C 18.703125 -20.394531 19.175781 -20.828125 19.726562 -20.828125 L 23.65625 -20.828125 C 24.207031 -20.828125 24.636719 -21.257812 24.636719 -21.808594 L 24.636719 -30.453125 C 24.636719 -30.964844 24.207031 -31.4375 23.65625 -31.4375 L 1.964844 -31.476562 C 1.414062 -31.476562 0.980469 -31.042969 0.980469 -30.492188 L 0.980469 -21.808594 C 0.980469 -21.257812 1.414062 -20.828125 1.964844 -20.828125 L 5.894531 -20.828125 C 6.445312 -20.828125 6.914062 -20.394531 6.914062 -19.84375 L 6.914062 -0.980469 C 6.914062 -0.433594 7.386719 0 7.9375 0 Z M 7.9375 0 "/></g></g></g><g fill="#ec297b" fill-opacity="1"><g transform="translate(200.868728, 208.078629)"><g><path d="M 2.003906 0 L 11.789062 0 C 12.339844 0 12.769531 -0.433594 12.769531 -0.980469 L 12.769531 -9.628906 C 12.769531 -10.175781 13.203125 -10.609375 13.753906 -10.609375 C 14.304688 -10.609375 14.734375 -10.136719 14.734375 -9.589844 L 14.734375 -0.980469 C 14.734375 -0.433594 15.207031 0 15.757812 0 L 25.542969 0 C 26.09375 0 26.523438 -0.433594 26.523438 -0.980469 L 26.523438 -30.453125 C 26.523438 -31.003906 26.050781 -31.4375 25.503906 -31.4375 L 15.71875 -31.4375 C 15.167969 -31.4375 14.734375 -31.003906 14.734375 -30.453125 L 14.734375 -21.808594 C 14.734375 -21.257812 14.304688 -20.828125 13.753906 -20.828125 C 13.203125 -20.828125 12.769531 -21.257812 12.769531 -21.808594 L 12.769531 -30.453125 C 12.769531 -31.003906 12.300781 -31.4375 11.75 -31.4375 L 1.964844 -31.4375 C 1.414062 -31.4375 0.980469 -31.003906 0.980469 -30.453125 L 0.980469 -0.980469 C 0.980469 -0.433594 1.453125 0 2.003906 0 Z M 2.003906 0 "/></g></g></g><g fill="#ec297b" fill-opacity="1"><g transform="translate(228.374103, 208.078629)"><g><path d="M 2.003906 0 L 31.476562 0 C 32.023438 0 32.457031 -0.433594 32.457031 -0.980469 L 32.457031 -8.449219 C 32.457031 -9 31.984375 -9.429688 31.4375 -9.429688 L 13.753906 -9.429688 C 13.203125 -9.429688 12.769531 -9.863281 12.769531 -10.414062 C 12.769531 -10.964844 13.203125 -11.394531 13.753906 -11.394531 L 29.902344 -11.394531 C 30.453125 -11.394531 30.886719 -11.828125 30.886719 -12.378906 L 30.886719 -19.058594 C 30.886719 -19.609375 30.414062 -20.039062 29.863281 -20.039062 L 13.753906 -20.039062 C 13.203125 -20.039062 12.769531 -20.472656 12.769531 -21.023438 C 12.769531 -21.574219 13.203125 -22.003906 13.753906 -22.003906 L 31.476562 -22.003906 C 32.023438 -22.003906 32.457031 -22.4375 32.457031 -22.988281 L 32.457031 -30.453125 C 32.457031 -31.003906 32.023438 -31.4375 31.476562 -31.4375 L 1.964844 -31.4375 C 1.414062 -31.4375 0.980469 -31.003906 0.980469 -30.453125 L 0.980469 -0.980469 C 0.980469 -0.433594 1.453125 0 2.003906 0 Z M 2.003906 0 "/></g></g></g><g fill="#ec297b" fill-opacity="1"><g transform="translate(261.812771, 208.078629)"><g><path d="M 7.9375 0 L 17.722656 0 C 18.273438 0 18.703125 -0.472656 18.703125 -1.023438 L 18.703125 -19.84375 C 18.703125 -20.394531 19.175781 -20.828125 19.726562 -20.828125 L 23.65625 -20.828125 C 24.207031 -20.828125 24.636719 -21.257812 24.636719 -21.808594 L 24.636719 -30.453125 C 24.636719 -30.964844 24.207031 -31.4375 23.65625 -31.4375 L 1.964844 -31.476562 C 1.414062 -31.476562 0.980469 -31.042969 0.980469 -30.492188 L 0.980469 -21.808594 C 0.980469 -21.257812 1.414062 -20.828125 1.964844 -20.828125 L 5.894531 -20.828125 C 6.445312 -20.828125 6.914062 -20.394531 6.914062 -19.84375 L 6.914062 -0.980469 C 6.914062 -0.433594 7.386719 0 7.9375 0 Z M 7.9375 0 "/></g></g></g><g fill="#ec297b" fill-opacity="1"><g transform="translate(287.432063, 208.078629)"><g><path d="M 2.003906 0 L 11.789062 0 C 12.339844 0 12.769531 -0.433594 12.769531 -0.980469 L 12.769531 -30.453125 C 12.769531 -31.003906 12.300781 -31.4375 11.75 -31.4375 L 1.964844 -31.4375 C 1.414062 -31.4375 0.980469 -31.003906 0.980469 -30.453125 L 0.980469 -0.980469 C 0.980469 -0.433594 1.453125 0 2.003906 0 Z M 2.003906 0 "/></g></g></g><g fill="#ec297b" fill-opacity="1"><g transform="translate(301.18475, 208.078629)"><g><path d="M 9 0 L 31.4375 0 C 31.984375 0 32.417969 -0.472656 32.417969 -1.023438 L 32.417969 -9.628906 C 32.417969 -10.175781 31.984375 -10.609375 31.4375 -10.609375 L 13.753906 -10.609375 C 13.203125 -10.609375 12.769531 -11.042969 12.769531 -11.59375 L 12.769531 -19.84375 C 12.769531 -20.394531 13.203125 -20.828125 13.753906 -20.828125 L 31.4375 -20.828125 C 31.984375 -20.828125 32.417969 -21.296875 32.417969 -21.847656 L 32.417969 -30.453125 C 32.417969 -31.003906 31.984375 -31.4375 31.4375 -31.4375 L 9 -31.4375 C 4.363281 -31.4375 0.980469 -28.054688 0.980469 -23.417969 L 0.980469 -8.015625 C 0.980469 -3.378906 4.363281 0 9 0 Z M 9 0 "/></g></g></g><path stroke-linecap="butt" transform="matrix(1.21655, 0, 0, 1.21655, 162.824627, 222.372993)" fill="none" stroke-linejoin="miter" d="M 1.82347 4.907942 L 1.293667 8.606926 L 0.50378 14.277419 C 0.36571 15.333813 0.288648 16.046638 0.262961 16.415894 L 0.262961 16.550753 C 0.262961 16.891111 0.314335 17.154407 0.394608 17.369539 C 0.555155 17.632834 0.869825 17.812646 1.345042 17.89613 C 1.714298 17.947505 2.507397 17.99888 3.724337 17.99888 L 9.555375 17.99888 C 10.740206 17.99888 11.507617 17.973192 11.873663 17.921818 C 12.45484 17.838334 12.852995 17.658522 13.090603 17.369539 C 13.247938 17.128719 13.382797 16.788361 13.485547 16.338832 C 13.588296 15.995263 13.697468 15.308125 13.825905 14.277419 L 14.619003 8.632614 C 14.779549 7.524845 14.856611 6.808809 14.856611 6.494138 L 14.856611 6.336803 C 14.856611 5.912961 14.805236 5.623978 14.64469 5.437744 C 14.490566 5.196925 14.175895 5.0428 13.67178 4.991426 C 13.325 4.933629 12.564011 4.907942 11.372758 4.907942 L 10.817269 8.947284 L 10.056279 14.277419 C 9.7095 14.277419 9.471891 14.251731 9.369142 14.251731 C 9.266392 14.226044 9.179697 14.171458 9.128322 14.094396 C 9.102635 14.043021 9.102635 13.93385 9.102635 13.805413 C 9.102635 13.696241 9.128322 13.542117 9.15401 13.304509 L 9.818671 8.606926 C 9.921421 7.711079 9.998483 7.123479 9.998483 6.808809 C 10.02417 6.654684 10.02417 6.519826 10.02417 6.417076 C 10.02417 6.04782 9.972795 5.752415 9.870046 5.546916 C 9.7095 5.229034 9.369142 5.0428 8.839339 4.991426 C 8.498981 4.933629 7.757258 4.907942 6.598114 4.907942 L 5.965562 9.236268 L 5.275213 14.277419 C 4.909168 14.277419 4.697247 14.251731 4.594497 14.251731 C 4.485326 14.226044 4.433951 14.171458 4.382576 14.120083 C 4.356889 14.068709 4.331202 13.985225 4.331202 13.882475 C 4.331202 13.779725 4.356889 13.593492 4.382576 13.330196 L 5.037605 8.606926 C 5.172464 7.813828 5.249526 7.258338 5.249526 6.969355 C 5.300901 6.706059 5.300901 6.494138 5.300901 6.336803 C 5.300901 5.861586 5.249526 5.572603 5.037605 5.360682 C 4.857793 5.14555 4.511013 5.017113 4.01332 4.965738 C 3.66654 4.907942 2.931239 4.907942 1.82347 4.907942 Z M 15.6176 8.606926 C 15.190547 11.827483 14.927252 13.696241 14.824502 14.251731 C 14.689643 15.231063 14.612581 15.886092 14.586894 16.236082 L 14.586894 16.550753 C 14.586894 16.916798 14.663956 17.208992 14.773127 17.420913 C 14.927252 17.632834 15.190547 17.786959 15.6176 17.870443 C 15.983646 17.921818 16.725369 17.973192 17.858825 17.973192 L 24.055909 17.973192 C 25.247162 17.973192 26.014573 17.921818 26.383829 17.870443 C 26.884733 17.761271 27.225091 17.575038 27.440223 17.260367 C 27.594348 17.019548 27.729207 16.653503 27.831956 16.175075 C 27.909018 15.834717 28.01819 15.205376 28.146627 14.251731 L 28.939725 8.606926 C 29.100271 7.601907 29.177333 6.91798 29.177333 6.60331 L 29.177333 6.336803 C 29.177333 5.938648 29.125959 5.649665 28.9911 5.463432 C 28.862663 5.254721 28.625054 5.094175 28.307173 5.0428 C 27.941128 4.933629 27.122342 4.907942 25.828339 4.907942 L 19.759693 4.907942 C 18.703299 4.907942 17.987262 4.907942 17.621217 4.965738 C 17.091415 5.017113 16.725369 5.171237 16.48455 5.437744 C 16.221254 5.70104 16.009333 6.227632 15.855209 7.046417 C 15.797412 7.309713 15.72035 7.839516 15.6176 8.606926 Z M 20.65554 8.606926 L 25.195787 8.606926 L 24.534337 13.304509 C 24.482962 13.619179 24.457275 13.805413 24.402689 13.908162 C 24.402689 14.017334 24.344892 14.094396 24.293518 14.145771 C 24.242143 14.197146 24.165081 14.226044 24.055909 14.251731 L 18.56844 14.251731 L 19.22989 9.579836 C 19.255577 9.425712 19.281265 9.287642 19.281265 9.236268 C 19.33264 8.998659 19.384014 8.844535 19.441811 8.786738 C 19.522084 8.709676 19.650521 8.658301 19.811067 8.632614 C 19.939504 8.606926 20.234909 8.606926 20.65554 8.606926 Z M 30.227306 8.632614 L 28.907616 17.99888 C 30.330055 17.99888 31.225903 17.947505 31.59837 17.870443 C 31.967627 17.761271 32.230922 17.607147 32.417156 17.395226 C 32.622655 17.154407 32.760725 16.788361 32.863474 16.313145 C 32.946958 15.969576 33.049708 15.308125 33.184567 14.309528 L 33.817119 9.740383 C 33.868494 9.400025 33.919869 9.184893 33.945556 9.082143 C 33.996931 8.921597 34.054727 8.818847 34.157477 8.761051 C 34.234539 8.709676 34.343711 8.658301 34.472147 8.658301 C 34.607006 8.632614 34.873513 8.632614 35.265246 8.632614 L 39.750907 8.632614 C 40.858676 8.632614 41.574712 8.606926 41.91507 8.581239 C 42.467349 8.529864 42.868714 8.395005 43.106323 8.179873 C 43.369619 7.974374 43.552641 7.601907 43.6875 7.097792 C 43.79025 6.731747 43.892999 6.015711 44.053545 4.933629 L 33.919869 4.933629 C 33.024021 4.933629 32.417156 4.965738 32.044689 5.017113 C 31.624058 5.068488 31.2837 5.229034 31.071779 5.463432 C 30.859858 5.675353 30.670413 6.073507 30.541976 6.654684 C 30.490601 6.969355 30.38143 7.627595 30.227306 8.632614 Z M 54.73308 3.244683 L 54.49226 4.907942 L 48.346551 4.907942 C 47.341532 4.907942 46.631918 4.933629 46.25945 5.017113 C 45.84203 5.068488 45.498461 5.229034 45.28654 5.437744 C 45.074619 5.649665 44.920495 5.990023 44.785636 6.468451 C 44.705363 6.808809 44.596192 7.524845 44.442067 8.632614 C 44.332896 9.261955 44.204459 10.189912 44.018225 11.455016 C 43.864101 12.723331 43.726031 13.644867 43.648969 14.277419 C 43.546219 15.125103 43.462735 15.680593 43.411361 15.995263 C 43.411361 16.203973 43.385673 16.415894 43.385673 16.57644 C 43.385673 16.993861 43.488423 17.318164 43.648969 17.523663 C 43.806304 17.684209 44.0696 17.812646 44.442067 17.89613 C 44.811324 17.947505 45.601211 17.99888 46.81494 17.99888 L 52.729463 17.99888 C 53.914294 17.99888 54.707392 17.973192 55.073437 17.921818 C 55.471592 17.838334 55.763786 17.735584 55.975707 17.607147 C 56.26469 17.395226 56.476611 16.993861 56.608259 16.467269 C 56.711009 16.1237 56.82018 15.385188 56.948617 14.277419 L 57.083476 13.304509 L 59.010031 -0.470356 C 57.876574 -0.470356 57.134851 -0.470356 56.768805 -0.418982 C 56.26469 -0.367607 55.892223 -0.207061 55.661037 0.00486034 C 55.445905 0.184672 55.259671 0.528241 55.131234 1.003458 C 55.022063 1.375925 54.893626 2.111227 54.73308 3.244683 Z M 49.088275 8.632614 L 53.965669 8.632614 L 53.333117 13.304509 C 53.281742 13.567804 53.256054 13.721929 53.20468 13.8311 C 53.178992 13.985225 53.121196 14.094396 53.044133 14.145771 C 52.992759 14.197146 52.915696 14.226044 52.806525 14.251731 C 52.703775 14.251731 52.488643 14.277419 52.122598 14.277419 L 47.399329 14.277419 L 48.057568 9.605524 C 48.108943 9.34865 48.13463 9.159205 48.13463 9.082143 C 48.186005 8.921597 48.218114 8.844535 48.269489 8.786738 C 48.320864 8.709676 48.423613 8.658301 48.532785 8.658301 C 48.635534 8.632614 48.824979 8.632614 49.088275 8.632614 Z M 64.279157 -0.470356 C 63.222763 -0.470356 62.48104 -0.470356 62.111783 -0.418982 C 61.694363 -0.367607 61.347583 -0.290545 61.106764 -0.129998 C 60.792094 0.0562351 60.554485 0.42228 60.400361 0.97777 C 60.323299 1.318128 60.185229 2.059852 59.998995 3.218996 L 58.762789 12.219216 L 57.944004 17.99888 C 59.000398 17.99888 59.710012 17.973192 60.056792 17.947505 C 60.689344 17.870443 61.138873 17.684209 61.40538 17.420913 C 61.610879 17.183305 61.771425 16.814049 61.874175 16.313145 C 61.983346 15.943888 62.086096 15.282438 62.224166 14.309528 L 63.14249 7.57622 Z M 68.633171 4.907942 C 67.413019 4.907942 66.623132 4.933629 66.253876 4.991426 C 65.778659 5.0428 65.409403 5.196925 65.146107 5.437744 C 64.908498 5.649665 64.722265 6.099195 64.590617 6.731747 C 64.539242 7.046417 64.430071 7.653282 64.275946 8.606926 L 63.482848 14.251731 C 63.347989 15.308125 63.270927 15.995263 63.24524 16.364519 L 63.24524 16.550753 C 63.24524 16.916798 63.296614 17.183305 63.405786 17.369539 C 63.55991 17.607147 63.826417 17.761271 64.192462 17.870443 C 64.56493 17.921818 65.248856 17.973192 66.305251 17.973192 L 76.278381 17.973192 L 76.278381 17.54935 C 76.278381 16.756252 76.278381 16.236082 76.227006 15.911779 C 76.201319 15.333813 76.098569 14.964556 75.886648 14.752635 C 75.726102 14.540714 75.433908 14.412277 75.016488 14.360903 C 74.727505 14.309528 74.062844 14.277419 73.038559 14.277419 L 67.226786 14.277419 C 67.284582 13.985225 67.31027 13.805413 67.31027 13.721929 C 67.335957 13.567804 67.361645 13.458633 67.413019 13.407258 C 67.464394 13.355883 67.547878 13.330196 67.628151 13.330196 C 67.705213 13.304509 67.840072 13.304509 68.019884 13.304509 L 73.561939 13.304509 C 74.486686 13.304509 75.119238 13.278821 75.459596 13.224235 C 75.989398 13.166439 76.361865 13.012314 76.602685 12.800393 C 76.808184 12.562785 76.994417 12.193529 77.097167 11.692625 C 77.206338 11.352267 77.309088 10.661918 77.447158 9.605524 L 77.601282 8.606926 C 77.710453 7.762453 77.787516 7.206963 77.813203 6.91798 C 77.83889 6.680372 77.83889 6.494138 77.83889 6.336803 C 77.83889 5.810211 77.736141 5.437744 77.472845 5.254721 C 77.257713 5.094175 76.859559 4.991426 76.278381 4.933629 C 75.963711 4.907942 75.331159 4.907942 74.377514 4.907942 Z M 68.684545 8.632614 L 73.825235 8.632614 C 73.799548 8.921597 73.77386 9.133518 73.748173 9.236268 C 73.748173 9.34865 73.722486 9.400025 73.671111 9.451399 C 73.619736 9.502774 73.507354 9.554149 73.353229 9.579836 L 67.891447 9.579836 C 67.942822 9.261955 67.968509 9.082143 67.968509 8.998659 C 68.019884 8.89591 68.045571 8.818847 68.077681 8.761051 C 68.129055 8.709676 68.18043 8.658301 68.231805 8.658301 C 68.28318 8.632614 68.443726 8.632614 68.684545 8.632614 Z M 68.684545 8.632614 " stroke="#fff48b" stroke-width="6.92769" stroke-opacity="1" stroke-miterlimit="4"/><g fill="#ec297b" fill-opacity="1"><g transform="translate(162.824627, 244.270894)"><g><path d="M 2.214844 -15.925781 L 1.574219 -11.429688 L 0.609375 -4.527344 C 0.449219 -3.242188 0.351562 -2.375 0.320312 -1.925781 L 0.320312 -1.765625 C 0.320312 -1.347656 0.386719 -1.027344 0.480469 -0.769531 C 0.675781 -0.449219 1.058594 -0.226562 1.636719 -0.128906 C 2.085938 -0.0625 3.050781 0 4.527344 0 L 11.621094 0 C 13.066406 0 13.996094 -0.03125 14.445312 -0.0976562 C 15.152344 -0.191406 15.636719 -0.417969 15.925781 -0.769531 C 16.117188 -1.058594 16.277344 -1.476562 16.40625 -2.023438 C 16.535156 -2.441406 16.664062 -3.273438 16.824219 -4.527344 L 17.785156 -11.398438 C 17.980469 -12.746094 18.074219 -13.613281 18.074219 -13.996094 L 18.074219 -14.191406 C 18.074219 -14.703125 18.011719 -15.058594 17.816406 -15.28125 C 17.625 -15.570312 17.242188 -15.761719 16.628906 -15.828125 C 16.214844 -15.890625 15.28125 -15.925781 13.835938 -15.925781 L 13.164062 -11.011719 L 12.230469 -4.527344 C 11.816406 -4.527344 11.527344 -4.558594 11.398438 -4.558594 C 11.269531 -4.589844 11.171875 -4.65625 11.109375 -4.75 C 11.074219 -4.816406 11.074219 -4.945312 11.074219 -5.105469 C 11.074219 -5.234375 11.109375 -5.425781 11.140625 -5.714844 L 11.941406 -11.429688 C 12.070312 -12.519531 12.167969 -13.226562 12.167969 -13.613281 C 12.199219 -13.804688 12.199219 -13.964844 12.199219 -14.09375 C 12.199219 -14.542969 12.136719 -14.898438 12.007812 -15.152344 C 11.816406 -15.539062 11.398438 -15.761719 10.753906 -15.828125 C 10.335938 -15.890625 9.4375 -15.925781 8.027344 -15.925781 L 7.253906 -10.660156 L 6.421875 -4.527344 C 5.972656 -4.527344 5.714844 -4.558594 5.585938 -4.558594 C 5.457031 -4.589844 5.394531 -4.65625 5.328125 -4.71875 C 5.296875 -4.785156 5.265625 -4.878906 5.265625 -5.007812 C 5.265625 -5.136719 5.296875 -5.363281 5.328125 -5.683594 L 6.132812 -11.429688 C 6.292969 -12.390625 6.390625 -13.066406 6.390625 -13.417969 C 6.453125 -13.742188 6.453125 -13.996094 6.453125 -14.191406 C 6.453125 -14.769531 6.390625 -15.121094 6.132812 -15.378906 C 5.90625 -15.636719 5.488281 -15.796875 4.878906 -15.859375 C 4.460938 -15.925781 3.5625 -15.925781 2.214844 -15.925781 Z M 2.214844 -15.925781 "/></g></g></g><g fill="#ec297b" fill-opacity="1"><g transform="translate(180.247068, 244.270894)"><g><path d="M 1.574219 -11.429688 C 1.058594 -7.511719 0.738281 -5.234375 0.609375 -4.558594 C 0.449219 -3.371094 0.351562 -2.570312 0.320312 -2.152344 L 0.320312 -1.765625 C 0.320312 -1.316406 0.417969 -0.964844 0.546875 -0.707031 C 0.738281 -0.449219 1.058594 -0.257812 1.574219 -0.160156 C 2.023438 -0.0976562 2.921875 -0.03125 4.300781 -0.03125 L 11.847656 -0.03125 C 13.292969 -0.03125 14.222656 -0.0976562 14.671875 -0.160156 C 15.28125 -0.289062 15.699219 -0.515625 15.957031 -0.898438 C 16.148438 -1.1875 16.308594 -1.636719 16.4375 -2.214844 C 16.535156 -2.632812 16.664062 -3.402344 16.824219 -4.558594 L 17.785156 -11.429688 C 17.980469 -12.648438 18.074219 -13.484375 18.074219 -13.871094 L 18.074219 -14.191406 C 18.074219 -14.671875 18.011719 -15.023438 17.851562 -15.25 C 17.691406 -15.507812 17.402344 -15.699219 17.015625 -15.761719 C 16.566406 -15.890625 15.570312 -15.925781 13.996094 -15.925781 L 6.613281 -15.925781 C 5.328125 -15.925781 4.460938 -15.925781 4.011719 -15.859375 C 3.371094 -15.796875 2.921875 -15.601562 2.632812 -15.28125 C 2.3125 -14.960938 2.054688 -14.320312 1.863281 -13.324219 C 1.796875 -13.003906 1.703125 -12.359375 1.574219 -11.429688 Z M 7.707031 -11.429688 L 13.226562 -11.429688 L 12.425781 -5.714844 C 12.359375 -5.328125 12.328125 -5.105469 12.265625 -4.976562 C 12.265625 -4.847656 12.199219 -4.75 12.136719 -4.6875 C 12.070312 -4.625 11.976562 -4.589844 11.847656 -4.558594 L 5.167969 -4.558594 L 5.972656 -10.242188 C 6.003906 -10.433594 6.035156 -10.59375 6.035156 -10.660156 C 6.101562 -10.949219 6.164062 -11.140625 6.226562 -11.203125 C 6.324219 -11.300781 6.484375 -11.363281 6.679688 -11.398438 C 6.839844 -11.429688 7.191406 -11.429688 7.707031 -11.429688 Z M 7.707031 -11.429688 "/></g></g></g><g fill="#ec297b" fill-opacity="1"><g transform="translate(197.66951, 244.270894)"><g><path d="M 1.925781 -11.398438 L 0.320312 0 C 2.054688 0 3.144531 -0.0625 3.597656 -0.160156 C 4.046875 -0.289062 4.367188 -0.480469 4.589844 -0.738281 C 4.847656 -1.027344 5.007812 -1.476562 5.136719 -2.054688 C 5.234375 -2.472656 5.363281 -3.273438 5.523438 -4.496094 L 6.292969 -10.046875 C 6.355469 -10.464844 6.421875 -10.722656 6.453125 -10.851562 C 6.515625 -11.042969 6.582031 -11.171875 6.710938 -11.238281 C 6.804688 -11.300781 6.933594 -11.363281 7.09375 -11.363281 C 7.253906 -11.398438 7.578125 -11.398438 8.058594 -11.398438 L 13.515625 -11.398438 C 14.863281 -11.398438 15.730469 -11.429688 16.148438 -11.460938 C 16.824219 -11.527344 17.304688 -11.6875 17.59375 -11.941406 C 17.914062 -12.199219 18.140625 -12.648438 18.300781 -13.257812 C 18.429688 -13.707031 18.554688 -14.574219 18.75 -15.890625 L 6.421875 -15.890625 C 5.328125 -15.890625 4.589844 -15.859375 4.140625 -15.796875 C 3.628906 -15.730469 3.210938 -15.539062 2.953125 -15.25 C 2.695312 -14.992188 2.472656 -14.511719 2.3125 -13.804688 C 2.246094 -13.417969 2.117188 -12.617188 1.925781 -11.398438 Z M 1.925781 -11.398438 "/></g></g></g><g fill="#ec297b" fill-opacity="1"><g transform="translate(215.284467, 244.270894)"><g><path d="M 14.125 -17.945312 L 13.835938 -15.925781 L 6.355469 -15.925781 C 5.136719 -15.925781 4.269531 -15.890625 3.820312 -15.796875 C 3.308594 -15.730469 2.890625 -15.539062 2.632812 -15.28125 C 2.375 -15.023438 2.183594 -14.609375 2.023438 -14.03125 C 1.925781 -13.613281 1.796875 -12.746094 1.605469 -11.398438 C 1.476562 -10.625 1.316406 -9.503906 1.089844 -7.960938 C 0.898438 -6.421875 0.738281 -5.296875 0.640625 -4.527344 C 0.515625 -3.5 0.417969 -2.824219 0.351562 -2.441406 C 0.351562 -2.183594 0.320312 -1.925781 0.320312 -1.734375 C 0.320312 -1.21875 0.449219 -0.835938 0.640625 -0.578125 C 0.835938 -0.386719 1.15625 -0.226562 1.605469 -0.128906 C 2.054688 -0.0625 3.019531 0 4.496094 0 L 11.6875 0 C 13.128906 0 14.09375 -0.03125 14.542969 -0.0976562 C 15.023438 -0.191406 15.378906 -0.320312 15.636719 -0.480469 C 15.988281 -0.738281 16.246094 -1.21875 16.40625 -1.863281 C 16.535156 -2.28125 16.664062 -3.179688 16.824219 -4.527344 L 16.984375 -5.714844 L 19.328125 -22.472656 C 17.945312 -22.472656 17.046875 -22.472656 16.597656 -22.410156 C 15.988281 -22.34375 15.539062 -22.152344 15.25 -21.894531 C 14.992188 -21.671875 14.769531 -21.253906 14.609375 -20.675781 C 14.480469 -20.226562 14.320312 -19.328125 14.125 -17.945312 Z M 7.253906 -11.398438 L 13.195312 -11.398438 L 12.425781 -5.714844 C 12.359375 -5.394531 12.328125 -5.199219 12.265625 -5.074219 C 12.230469 -4.878906 12.167969 -4.75 12.070312 -4.6875 C 12.007812 -4.625 11.910156 -4.589844 11.78125 -4.558594 C 11.652344 -4.558594 11.398438 -4.527344 10.949219 -4.527344 L 5.199219 -4.527344 L 6.003906 -10.210938 C 6.066406 -10.53125 6.101562 -10.753906 6.101562 -10.851562 C 6.164062 -11.042969 6.195312 -11.140625 6.261719 -11.203125 C 6.324219 -11.300781 6.453125 -11.363281 6.582031 -11.363281 C 6.710938 -11.398438 6.933594 -11.398438 7.253906 -11.398438 Z M 7.253906 -11.398438 "/></g></g></g><g fill="#ec297b" fill-opacity="1"><g transform="translate(232.995697, 244.270894)"><g><path d="M 8.027344 -22.472656 C 6.742188 -22.472656 5.84375 -22.472656 5.394531 -22.410156 C 4.878906 -22.34375 4.460938 -22.25 4.171875 -22.054688 C 3.789062 -21.832031 3.5 -21.382812 3.308594 -20.707031 C 3.210938 -20.289062 3.050781 -19.390625 2.824219 -17.980469 L 1.316406 -7.03125 L 0.320312 0 C 1.605469 0 2.472656 -0.03125 2.890625 -0.0625 C 3.660156 -0.160156 4.207031 -0.386719 4.527344 -0.707031 C 4.785156 -0.996094 4.976562 -1.445312 5.105469 -2.054688 C 5.234375 -2.503906 5.363281 -3.308594 5.523438 -4.496094 L 6.644531 -12.679688 Z M 8.027344 -22.472656 "/></g></g></g><g fill="#ec297b" fill-opacity="1"><g transform="translate(239.444539, 244.270894)"><g><path d="M 6.871094 -15.925781 C 5.394531 -15.925781 4.429688 -15.890625 3.980469 -15.828125 C 3.402344 -15.761719 2.953125 -15.570312 2.632812 -15.28125 C 2.34375 -15.023438 2.117188 -14.480469 1.957031 -13.707031 C 1.894531 -13.324219 1.765625 -12.585938 1.574219 -11.429688 L 0.609375 -4.558594 C 0.449219 -3.273438 0.351562 -2.441406 0.320312 -1.992188 L 0.320312 -1.765625 C 0.320312 -1.316406 0.386719 -0.996094 0.515625 -0.769531 C 0.707031 -0.480469 1.027344 -0.289062 1.476562 -0.160156 C 1.925781 -0.0976562 2.761719 -0.03125 4.046875 -0.03125 L 16.179688 -0.03125 L 16.179688 -0.546875 C 16.179688 -1.507812 16.179688 -2.152344 16.117188 -2.535156 C 16.085938 -3.242188 15.957031 -3.691406 15.699219 -3.949219 C 15.507812 -4.207031 15.152344 -4.367188 14.640625 -4.429688 C 14.285156 -4.496094 13.484375 -4.527344 12.230469 -4.527344 L 5.167969 -4.527344 C 5.234375 -4.878906 5.265625 -5.105469 5.265625 -5.199219 C 5.296875 -5.394531 5.328125 -5.523438 5.394531 -5.585938 C 5.457031 -5.652344 5.554688 -5.683594 5.652344 -5.683594 C 5.746094 -5.714844 5.90625 -5.714844 6.132812 -5.714844 L 12.875 -5.714844 C 13.996094 -5.714844 14.769531 -5.746094 15.1875 -5.8125 C 15.828125 -5.875 16.277344 -6.066406 16.566406 -6.324219 C 16.824219 -6.613281 17.046875 -7.0625 17.175781 -7.671875 C 17.304688 -8.089844 17.433594 -8.925781 17.59375 -10.210938 L 17.785156 -11.429688 C 17.914062 -12.457031 18.011719 -13.128906 18.042969 -13.484375 C 18.074219 -13.773438 18.074219 -13.996094 18.074219 -14.191406 C 18.074219 -14.832031 17.945312 -15.28125 17.625 -15.507812 C 17.367188 -15.699219 16.886719 -15.828125 16.179688 -15.890625 C 15.796875 -15.925781 15.023438 -15.925781 13.871094 -15.925781 Z M 6.933594 -11.398438 L 13.195312 -11.398438 C 13.164062 -11.042969 13.128906 -10.789062 13.097656 -10.660156 C 13.097656 -10.53125 13.066406 -10.464844 13.003906 -10.402344 C 12.9375 -10.335938 12.808594 -10.273438 12.617188 -10.242188 L 5.972656 -10.242188 C 6.035156 -10.625 6.066406 -10.851562 6.066406 -10.949219 C 6.132812 -11.074219 6.164062 -11.171875 6.195312 -11.238281 C 6.261719 -11.300781 6.324219 -11.363281 6.390625 -11.363281 C 6.453125 -11.398438 6.644531 -11.398438 6.933594 -11.398438 Z M 6.933594 -11.398438 "/></g></g></g></svg>