<svg xmlns="http://www.w3.org/2000/svg" xmlns:xlink="http://www.w3.org/1999/xlink" width="336" zoomAndPan="magnify" viewBox="0 0 252 143.999998" height="192" preserveAspectRatio="xMidYMid meet" version="1.0"><defs><g/><clipPath id="ad33af3a48"><path d="M 168 33 L 236 33 L 236 115 L 168 115 Z M 168 33 " clip-rule="nonzero"/></clipPath><clipPath id="3ecfac0213"><path d="M 135.25 57.34375 L 210.457031 10.78125 L 247.945312 71.339844 L 172.738281 117.898438 Z M 135.25 57.34375 " clip-rule="nonzero"/></clipPath><clipPath id="e36bcac3f6"><path d="M 135.25 57.34375 L 210.457031 10.78125 L 247.945312 71.339844 L 172.738281 117.898438 Z M 135.25 57.34375 " clip-rule="nonzero"/></clipPath><clipPath id="eb987bd745"><path d="M 19 37 L 92 37 L 92 110 L 19 110 Z M 19 37 " clip-rule="nonzero"/></clipPath><clipPath id="35d0f6ec88"><path d="M 4.152344 39.136719 L 91.839844 20.722656 L 109.546875 105.039062 L 21.855469 123.453125 Z M 4.152344 39.136719 " clip-rule="nonzero"/></clipPath><clipPath id="dca1d75ad2"><path d="M 4.152344 39.136719 L 91.839844 20.722656 L 109.546875 105.039062 L 21.855469 123.453125 Z M 4.152344 39.136719 " clip-rule="nonzero"/></clipPath><clipPath id="26c1ae6ba5"><path d="M 4.152344 39.136719 L 91.839844 20.722656 L 109.546875 105.039062 L 21.855469 123.453125 Z M 4.152344 39.136719 " clip-rule="nonzero"/></clipPath><clipPath id="268faaeafe"><path d="M 15 33 L 96 33 L 96 114 L 15 114 Z M 15 33 " clip-rule="nonzero"/></clipPath><clipPath id="cc379cf118"><path d="M 4.152344 39.136719 L 91.839844 20.722656 L 109.546875 105.039062 L 21.855469 123.453125 Z M 4.152344 39.136719 " clip-rule="nonzero"/></clipPath><clipPath id="6723625b48"><path d="M 4.152344 39.136719 L 91.839844 20.722656 L 109.546875 105.039062 L 21.855469 123.453125 Z M 4.152344 39.136719 " clip-rule="nonzero"/></clipPath><clipPath id="0baf0538fd"><path d="M 4.152344 39.136719 L 91.839844 20.722656 L 109.546875 105.039062 L 21.855469 123.453125 Z M 4.152344 39.136719 " clip-rule="nonzero"/></clipPath><clipPath id="11fa8c6260"><path d="M 11 29 L 99 29 L 99 118 L 11 118 Z M 11 29 " clip-rule="nonzero"/></clipPath><clipPath id="6b5560c519"><path d="M 4.152344 39.136719 L 91.839844 20.722656 L 109.546875 105.039062 L 21.855469 123.453125 Z M 4.152344 39.136719 " clip-rule="nonzero"/></clipPath><clipPath id="6e355e5660"><path d="M 4.152344 39.136719 L 91.839844 20.722656 L 109.546875 105.039062 L 21.855469 123.453125 Z M 4.152344 39.136719 " clip-rule="nonzero"/></clipPath><clipPath id="f380c806d8"><path d="M 4.152344 39.136719 L 91.839844 20.722656 L 109.546875 105.039062 L 21.855469 123.453125 Z M 4.152344 39.136719 " clip-rule="nonzero"/></clipPath><clipPath id="d30039cb8d"><path d="M 12 30 L 98 30 L 98 117 L 12 117 Z M 12 30 " clip-rule="nonzero"/></clipPath><clipPath id="e19cf81dbb"><path d="M 4.152344 39.136719 L 91.839844 20.722656 L 109.546875 105.039062 L 21.855469 123.453125 Z M 4.152344 39.136719 " clip-rule="nonzero"/></clipPath><clipPath id="200b836a6c"><path d="M 4.152344 39.136719 L 91.839844 20.722656 L 109.546875 105.039062 L 21.855469 123.453125 Z M 4.152344 39.136719 " clip-rule="nonzero"/></clipPath><clipPath id="0b7148e0b4"><path d="M 4.152344 39.136719 L 91.839844 20.722656 L 109.546875 105.039062 L 21.855469 123.453125 Z M 4.152344 39.136719 " clip-rule="nonzero"/></clipPath><clipPath id="e239f41bb3"><path d="M 19 37 L 92 37 L 92 110 L 19 110 Z M 19 37 " clip-rule="nonzero"/></clipPath><clipPath id="c34e44a547"><path d="M 4.152344 39.136719 L 91.839844 20.722656 L 109.546875 105.039062 L 21.855469 123.453125 Z M 4.152344 39.136719 " clip-rule="nonzero"/></clipPath><clipPath id="a6084faea4"><path d="M 4.152344 39.136719 L 91.839844 20.722656 L 109.546875 105.039062 L 21.855469 123.453125 Z M 4.152344 39.136719 " clip-rule="nonzero"/></clipPath><clipPath id="3145ce5562"><path d="M 4.152344 39.136719 L 91.839844 20.722656 L 109.546875 105.039062 L 21.855469 123.453125 Z M 4.152344 39.136719 " clip-rule="nonzero"/></clipPath><clipPath id="a5adb13f2b"><path d="M 15 33 L 96 33 L 96 114 L 15 114 Z M 15 33 " clip-rule="nonzero"/></clipPath><clipPath id="5c031a835f"><path d="M 4.152344 39.136719 L 91.839844 20.722656 L 109.546875 105.039062 L 21.855469 123.453125 Z M 4.152344 39.136719 " clip-rule="nonzero"/></clipPath><clipPath id="de18a74bc9"><path d="M 4.152344 39.136719 L 91.839844 20.722656 L 109.546875 105.039062 L 21.855469 123.453125 Z M 4.152344 39.136719 " clip-rule="nonzero"/></clipPath><clipPath id="6605b3ec4a"><path d="M 4.152344 39.136719 L 91.839844 20.722656 L 109.546875 105.039062 L 21.855469 123.453125 Z M 4.152344 39.136719 " clip-rule="nonzero"/></clipPath><clipPath id="18cf5cdd93"><path d="M 11 29 L 99 29 L 99 118 L 11 118 Z M 11 29 " clip-rule="nonzero"/></clipPath><clipPath id="98a20f4fd9"><path d="M 4.152344 39.136719 L 91.839844 20.722656 L 109.546875 105.039062 L 21.855469 123.453125 Z M 4.152344 39.136719 " clip-rule="nonzero"/></clipPath><clipPath id="816d4d823c"><path d="M 4.152344 39.136719 L 91.839844 20.722656 L 109.546875 105.039062 L 21.855469 123.453125 Z M 4.152344 39.136719 " clip-rule="nonzero"/></clipPath><clipPath id="843cf20b49"><path d="M 4.152344 39.136719 L 91.839844 20.722656 L 109.546875 105.039062 L 21.855469 123.453125 Z M 4.152344 39.136719 " clip-rule="nonzero"/></clipPath><clipPath id="9359c6d22f"><path d="M 12 30 L 98 30 L 98 117 L 12 117 Z M 12 30 " clip-rule="nonzero"/></clipPath><clipPath id="478e4ad519"><path d="M 4.152344 39.136719 L 91.839844 20.722656 L 109.546875 105.039062 L 21.855469 123.453125 Z M 4.152344 39.136719 " clip-rule="nonzero"/></clipPath><clipPath id="7ffebab43c"><path d="M 4.152344 39.136719 L 91.839844 20.722656 L 109.546875 105.039062 L 21.855469 123.453125 Z M 4.152344 39.136719 " clip-rule="nonzero"/></clipPath><clipPath id="087eba2ede"><path d="M 4.152344 39.136719 L 91.839844 20.722656 L 109.546875 105.039062 L 21.855469 123.453125 Z M 4.152344 39.136719 " clip-rule="nonzero"/></clipPath></defs><g clip-path="url(#ad33af3a48)"><g clip-path="url(#3ecfac0213)"><g clip-path="url(#e36bcac3f6)"><path fill="#fff48b" d="M 197.417969 102.570312 C 188.535156 108.070312 179.546875 112.183594 171.164062 114.828125 C 176.621094 112.5 182.203125 109.605469 187.75 106.175781 C 215.535156 88.972656 231.714844 64.765625 223.878906 52.109375 C 218.550781 43.5 203.480469 42.460938 185.632812 48.085938 C 207.523438 38.722656 227.277344 38.378906 233.550781 48.511719 C 241.382812 61.164062 225.207031 85.367188 197.417969 102.570312 Z M 168.347656 53.527344 L 168.234375 53.34375 C 179.328125 46.476562 179.015625 44.175781 172.761719 34.074219 L 172.945312 33.957031 C 179.203125 44.0625 181.125 45.359375 192.21875 38.492188 L 192.335938 38.679688 C 181.242188 45.546875 181.542969 47.84375 187.796875 57.945312 L 187.613281 58.0625 C 181.355469 47.957031 179.441406 46.660156 168.347656 53.527344 " fill-opacity="1" fill-rule="evenodd"/></g></g></g><g clip-path="url(#eb987bd745)"><g clip-path="url(#35d0f6ec88)"><g clip-path="url(#dca1d75ad2)"><g clip-path="url(#26c1ae6ba5)"><path fill="#f2e3e6" d="M 86.648438 102.148438 C 84.941406 102.507812 82.253906 101.320312 81.363281 100.933594 L 81.246094 100.878906 C 77.4375 99.222656 71.714844 97.15625 63.226562 94.417969 C 62.605469 94.207031 61.949219 94.1875 61.320312 94.320312 C 60.695312 94.453125 60.101562 94.757812 59.59375 95.207031 C 54.019531 100.21875 50.265625 103.804688 47.726562 106.558594 L 47.644531 106.65625 C 46.980469 107.367188 44.976562 109.542969 43.292969 109.894531 C 43.09375 109.9375 42.914062 109.949219 42.75 109.929688 C 42.558594 109.890625 42.339844 109.832031 42.1875 109.734375 C 41.664062 109.375 41.03125 108.226562 40.914062 104.800781 L 40.925781 104.71875 C 40.785156 100.695312 40.378906 94.507812 39.84375 86.859375 C 39.757812 85.699219 39.140625 84.628906 38.144531 84 C 31.636719 79.824219 27.046875 77.050781 23.664062 75.304688 L 23.550781 75.25 C 20.054688 73.449219 19.207031 72.164062 19.101562 71.402344 C 19.074219 71.144531 19.125 70.898438 19.136719 70.816406 C 19.320312 70.203125 20.253906 69.277344 23.578125 68.265625 L 23.652344 68.25 C 27.636719 67.019531 33.792969 64.890625 40.84375 62.417969 C 41.992188 62.019531 42.890625 61.074219 43.199219 59.910156 C 45.285156 52.128906 46.585938 46.730469 47.25 42.90625 L 47.28125 42.792969 C 47.957031 38.914062 48.9375 37.714844 49.628906 37.386719 C 49.722656 37.339844 49.847656 37.316406 49.949219 37.292969 C 50 37.285156 50.097656 37.261719 50.203125 37.265625 C 50.839844 37.289062 51.984375 37.886719 53.96875 40.710938 L 54.007812 40.78125 C 56.335938 44.132812 60.203125 49.332031 64.617188 55.253906 C 65.382812 56.269531 66.628906 56.847656 67.890625 56.738281 C 75.335938 56.140625 81.851562 55.609375 85.894531 55.152344 L 85.96875 55.136719 C 89.425781 54.75 90.625 55.230469 91.0625 55.6875 C 91.128906 55.753906 91.277344 55.957031 91.328125 56.207031 C 91.535156 56.949219 91.285156 58.492188 88.808594 61.546875 L 88.722656 61.640625 C 86.5625 64.320312 83.726562 68.285156 80.035156 73.792969 C 79.378906 74.765625 79.242188 75.996094 79.628906 77.09375 C 82.570312 85.230469 85.09375 92.253906 86.761719 96.453125 L 86.777344 96.527344 C 88.046875 99.710938 87.929688 101.019531 87.597656 101.558594 C 87.515625 101.679688 87.34375 101.847656 87.15625 101.964844 C 87.019531 102.046875 86.847656 102.109375 86.648438 102.148438 Z M 86.648438 102.148438 " fill-opacity="1" fill-rule="nonzero"/></g></g></g></g><g clip-path="url(#268faaeafe)"><g clip-path="url(#cc379cf118)"><g clip-path="url(#6723625b48)"><g clip-path="url(#0baf0538fd)"><path fill="#ed83b5" d="M 51.03125 42.949219 C 53.402344 46.371094 57.257812 51.519531 61.671875 57.441406 C 63.203125 59.5 65.664062 60.605469 68.214844 60.40625 C 75.890625 59.789062 82.125 59.289062 86.21875 58.824219 C 86.140625 58.945312 86.03125 59.046875 85.925781 59.171875 L 85.839844 59.269531 C 83.574219 62.070312 80.761719 66.007812 76.949219 71.695312 C 75.632812 73.644531 75.335938 76.113281 76.140625 78.320312 C 79.050781 86.441406 81.570312 93.441406 83.277344 97.707031 C 83.136719 97.660156 82.988281 97.585938 82.847656 97.535156 L 82.734375 97.484375 C 78.808594 95.769531 72.972656 93.675781 64.371094 90.882812 C 63.105469 90.46875 61.789062 90.433594 60.558594 90.691406 C 59.304688 90.953125 58.09375 91.546875 57.101562 92.433594 C 51.4375 97.519531 47.597656 101.199219 44.996094 104.023438 L 44.910156 104.117188 C 44.804688 104.246094 44.695312 104.347656 44.585938 104.445312 C 44.4375 100.375 44.03125 94.1875 43.507812 86.585938 C 43.355469 84.238281 42.097656 82.125 40.132812 80.863281 C 33.527344 76.605469 28.824219 73.800781 25.328125 72 L 25.214844 71.945312 C 25.066406 71.871094 24.945312 71.792969 24.804688 71.746094 C 28.835938 70.480469 34.988281 68.351562 42.019531 65.90625 C 44.339844 65.105469 46.09375 63.222656 46.75 60.863281 C 48.925781 53.007812 50.257812 47.5 50.945312 43.539062 L 50.976562 43.429688 C 50.964844 43.25 50.980469 43.089844 51.03125 42.949219 M 49.207031 33.632812 C 48.855469 33.707031 48.460938 33.816406 48.054688 34.007812 C 44.695312 35.601562 43.878906 40.582031 43.605469 42.257812 C 42.929688 46.164062 41.535156 51.738281 39.574219 58.867188 C 32.082031 61.488281 26.265625 63.492188 22.503906 64.648438 C 20.808594 65.1875 16.589844 66.4375 15.554688 69.609375 C 15.492188 69.804688 15.207031 70.703125 15.367188 71.84375 C 15.878906 75.527344 20.414062 77.789062 21.910156 78.546875 C 25.347656 80.308594 30.09375 83.207031 36.089844 87.070312 C 36.625 94.851562 37.03125 100.910156 37.167969 104.800781 C 37.226562 106.566406 37.335938 110.960938 40.152344 112.777344 C 40.335938 112.894531 41.117188 113.382812 42.25 113.539062 C 42.871094 113.617188 43.464844 113.570312 44.039062 113.449219 C 46.976562 112.832031 49.503906 110.027344 50.464844 108.988281 C 53.023438 106.203125 56.9375 102.507812 62.066406 97.875 C 69.882812 100.414062 75.851562 102.507812 79.746094 104.226562 C 81.046875 104.789062 84.464844 106.347656 87.398438 105.730469 C 87.976562 105.609375 88.5625 105.40625 89.097656 105.085938 C 90.070312 104.488281 90.59375 103.726562 90.710938 103.542969 C 92.535156 100.757812 90.871094 96.6875 90.230469 95.019531 C 88.625 90.992188 86.242188 84.382812 83.152344 75.777344 C 86.597656 70.609375 89.429688 66.617188 91.636719 63.90625 C 92.695312 62.585938 95.9375 58.691406 94.929688 55.136719 C 94.617188 54.027344 93.996094 53.320312 93.859375 53.167969 C 91.636719 50.679688 87.265625 51.207031 85.503906 51.417969 C 81.589844 51.875 75.488281 52.371094 67.628906 53.003906 C 62.929688 46.722656 59.3125 41.835938 57.089844 38.617188 C 56.078125 37.15625 53.613281 33.542969 50.257812 33.519531 C 50.101562 33.523438 49.707031 33.527344 49.207031 33.632812 Z M 49.207031 33.632812 " fill-opacity="1" fill-rule="nonzero"/></g></g></g></g><g clip-path="url(#11fa8c6260)"><g clip-path="url(#6b5560c519)"><g clip-path="url(#6e355e5660)"><g clip-path="url(#f380c806d8)"><path fill="#fff48b" d="M 49.207031 33.632812 C 49.734375 33.523438 50.125 33.519531 50.257812 33.519531 C 53.613281 33.542969 56.082031 37.183594 57.089844 38.617188 C 59.3125 41.835938 62.957031 46.71875 67.625 52.976562 C 75.480469 52.347656 81.585938 51.847656 85.503906 51.417969 C 87.265625 51.207031 91.636719 50.679688 93.859375 53.167969 C 93.996094 53.320312 94.617188 54.027344 94.929688 55.136719 C 95.941406 58.714844 92.699219 62.609375 91.636719 63.90625 C 89.429688 66.617188 86.605469 70.636719 83.152344 75.777344 C 86.242188 84.382812 88.625 90.992188 90.230469 95.019531 C 90.890625 96.660156 92.554688 100.726562 90.710938 103.542969 C 90.59375 103.726562 90.070312 104.488281 89.097656 105.085938 C 88.5625 105.40625 88 105.601562 87.398438 105.730469 C 84.464844 106.347656 81.019531 104.796875 79.746094 104.226562 C 75.851562 102.507812 69.882812 100.414062 62.066406 97.875 C 56.929688 102.480469 53.023438 106.203125 50.464844 108.988281 C 49.503906 110.027344 47 112.828125 44.039062 113.449219 C 43.464844 113.570312 42.84375 113.621094 42.25 113.539062 C 41.117188 113.382812 40.328125 112.867188 40.152344 112.777344 C 37.359375 110.957031 37.25 106.5625 37.167969 104.800781 C 37.03125 100.910156 36.625 94.851562 36.089844 87.070312 C 30.09375 83.207031 25.351562 80.335938 21.910156 78.546875 C 20.410156 77.765625 15.875 75.503906 15.367188 71.84375 C 15.207031 70.703125 15.492188 69.804688 15.554688 69.609375 C 16.589844 66.4375 20.804688 65.160156 22.503906 64.648438 C 26.261719 63.464844 32.074219 61.460938 39.574219 58.867188 C 41.535156 51.738281 42.929688 46.164062 43.605469 42.257812 C 43.878906 40.582031 44.695312 35.601562 48.054688 34.007812 C 48.460938 33.816406 48.855469 33.707031 49.207031 33.632812 M 48.417969 29.878906 C 47.714844 30.027344 47.054688 30.242188 46.433594 30.53125 C 41.332031 32.933594 40.21875 39.363281 39.851562 41.480469 L 39.824219 41.589844 C 39.269531 44.816406 38.128906 49.5 36.410156 55.898438 C 30.230469 58.03125 24.882812 59.886719 21.363281 60.964844 L 21.289062 60.984375 C 19.171875 61.636719 13.542969 63.394531 11.898438 68.417969 C 11.652344 69.121094 11.304688 70.582031 11.546875 72.359375 C 12.296875 77.925781 18.113281 80.914062 20.019531 81.898438 L 20.136719 81.953125 C 22.984375 83.417969 27 85.816406 32.378906 89.234375 C 32.84375 95.933594 33.191406 101.324219 33.3125 104.90625 L 33.304688 104.988281 C 33.375 107.195312 33.589844 113.082031 38.019531 115.96875 C 38.019531 115.96875 38.050781 115.988281 38.050781 115.988281 C 39.167969 116.695312 40.417969 117.164062 41.738281 117.332031 C 42.761719 117.457031 43.800781 117.421875 44.828125 117.203125 C 48.894531 116.351562 51.902344 113.078125 53.203125 111.679688 L 53.289062 111.585938 C 55.378906 109.316406 58.558594 106.246094 63.007812 102.226562 C 70.097656 104.554688 74.976562 106.324219 78.230469 107.734375 L 78.347656 107.789062 C 80.078125 108.546875 84.171875 110.328125 88.238281 109.472656 C 89.289062 109.253906 90.257812 108.867188 91.117188 108.347656 C 92.539062 107.5 93.433594 106.398438 93.953125 105.632812 C 93.953125 105.632812 93.972656 105.605469 93.972656 105.605469 C 96.867188 101.179688 94.671875 95.707031 93.875 93.652344 L 93.832031 93.582031 C 92.335938 89.820312 90.082031 83.574219 87.449219 76.285156 C 90.492188 71.804688 92.839844 68.515625 94.648438 66.28125 L 94.734375 66.183594 C 95.398438 65.363281 96.601562 63.855469 97.585938 61.925781 C 98.988281 59.121094 99.34375 56.457031 98.648438 54.015625 C 98.15625 52.289062 97.253906 51.121094 96.742188 50.546875 C 93.214844 46.609375 87.355469 47.265625 85.15625 47.519531 L 85.082031 47.535156 C 81.523438 47.941406 75.9375 48.410156 69.445312 48.933594 C 65.589844 43.785156 62.289062 39.304688 60.257812 36.359375 L 60.214844 36.289062 C 58.941406 34.464844 55.59375 29.625 50.296875 29.589844 C 50.296875 29.589844 50.269531 29.59375 50.269531 29.59375 C 49.632812 29.675781 49.019531 29.75 48.417969 29.878906 Z M 48.417969 29.878906 " fill-opacity="1" fill-rule="nonzero"/></g></g></g></g><g clip-path="url(#d30039cb8d)"><g clip-path="url(#e19cf81dbb)"><g clip-path="url(#200b836a6c)"><g clip-path="url(#0b7148e0b4)"><path fill="#ec297b" d="M 87.9375 108.414062 C 84.246094 109.1875 80.410156 107.511719 78.765625 106.785156 L 78.648438 106.730469 C 75.273438 105.242188 70.171875 103.414062 62.6875 100.960938 C 57.980469 105.242188 54.601562 108.488281 52.429688 110.851562 L 52.34375 110.949219 C 50.851562 112.566406 46.855469 116.882812 41.875 116.230469 C 40.742188 116.078125 39.636719 115.679688 38.671875 115.074219 C 38.671875 115.074219 38.671875 115.074219 38.640625 115.054688 C 34.71875 112.480469 34.519531 107.03125 34.457031 104.980469 L 34.464844 104.898438 C 34.347656 101.214844 33.972656 95.566406 33.507812 88.605469 C 27.847656 84.984375 23.625 82.472656 20.6875 80.949219 L 20.570312 80.894531 C 18.601562 79.871094 13.375 77.203125 12.722656 72.21875 C 12.503906 70.667969 12.8125 69.402344 13.023438 68.78125 C 14.46875 64.320312 19.683594 62.703125 21.65625 62.109375 L 21.730469 62.09375 C 25.371094 60.960938 30.9375 59.035156 37.382812 56.792969 C 39.214844 50.054688 40.414062 45.152344 40.992188 41.789062 L 41.019531 41.679688 C 41.402344 39.507812 42.382812 33.707031 46.964844 31.570312 C 47.992188 31.089844 49.164062 30.820312 50.292969 30.816406 C 55.011719 30.847656 58.125 35.316406 59.292969 37.003906 L 59.332031 37.074219 C 61.46875 40.128906 64.910156 44.789062 68.925781 50.195312 C 75.703125 49.660156 81.546875 49.164062 85.230469 48.757812 L 85.308594 48.742188 C 87.355469 48.519531 92.78125 47.902344 95.894531 51.378906 C 96.3125 51.867188 97.101562 52.878906 97.546875 54.378906 C 98.929688 59.210938 95.222656 63.78125 93.851562 65.480469 L 93.765625 65.574219 C 91.875 67.90625 89.382812 71.386719 86.1875 76.132812 C 88.894531 83.667969 91.222656 90.132812 92.769531 94.015625 L 92.8125 94.085938 C 93.578125 95.988281 95.585938 101.058594 93.03125 104.992188 C 93.03125 104.992188 93.03125 104.992188 93.011719 105.019531 C 92.578125 105.6875 91.78125 106.640625 90.546875 107.371094 C 89.664062 107.917969 88.8125 108.230469 87.9375 108.414062 Z M 61.5 95.300781 C 61.953125 95.207031 62.429688 95.238281 62.878906 95.378906 C 71.339844 98.125 77.035156 100.167969 80.8125 101.808594 L 80.925781 101.859375 C 85.773438 103.980469 87.214844 103.101562 87.679688 102.820312 C 88.097656 102.578125 88.34375 102.238281 88.441406 102.085938 C 89.46875 100.484375 88.203125 97.328125 87.738281 96.117188 L 87.695312 96.046875 C 86.035156 91.875 83.511719 84.851562 80.578125 76.738281 C 80.277344 75.9375 80.40625 75.046875 80.863281 74.351562 C 84.53125 68.875 87.339844 64.914062 89.484375 62.265625 L 89.570312 62.171875 C 92.898438 58.074219 92.425781 56.449219 92.292969 55.925781 C 92.125 55.386719 91.816406 55.035156 91.808594 55.007812 C 90.539062 53.574219 87.117188 53.980469 85.835938 54.121094 L 85.757812 54.136719 C 81.714844 54.59375 75.511719 55.113281 67.804688 55.710938 C 66.875 55.773438 65.980469 55.386719 65.433594 54.640625 C 61.019531 48.71875 57.15625 43.542969 54.828125 40.191406 L 54.785156 40.121094 C 54.042969 39.074219 52.085938 36.242188 50.195312 36.222656 C 50.089844 36.21875 49.648438 36.234375 49.171875 36.464844 C 47.144531 37.414062 46.476562 41.34375 46.246094 42.621094 L 46.21875 42.730469 C 45.550781 46.53125 44.265625 51.898438 42.132812 59.585938 C 41.894531 60.445312 41.253906 61.128906 40.421875 61.410156 C 33.363281 63.855469 27.210938 65.984375 23.25 67.210938 L 23.175781 67.226562 C 21.945312 67.613281 18.648438 68.621094 18.0625 70.441406 C 18.039062 70.472656 17.898438 70.921875 17.988281 71.476562 C 18.296875 73.6875 21.824219 75.507812 22.996094 76.097656 L 23.109375 76.152344 C 26.460938 77.878906 31.046875 80.628906 37.523438 84.785156 C 38.246094 85.234375 38.695312 86 38.742188 86.855469 C 39.277344 94.503906 39.679688 100.667969 39.8125 104.664062 L 39.828125 104.742188 C 39.863281 106.039062 40 109.433594 41.585938 110.488281 C 41.882812 110.660156 42.226562 110.796875 42.578125 110.855469 C 44.789062 111.148438 47.476562 108.230469 48.371094 107.257812 L 48.457031 107.164062 C 50.953125 104.445312 54.703125 100.859375 60.257812 95.875 C 60.625 95.617188 61.050781 95.394531 61.5 95.300781 Z M 91.617188 63.9375 Z M 91.617188 63.9375 " fill-opacity="1" fill-rule="nonzero"/></g></g></g></g><g clip-path="url(#e239f41bb3)"><g clip-path="url(#c34e44a547)"><g clip-path="url(#a6084faea4)"><g clip-path="url(#3145ce5562)"><path fill="#f2e3e6" d="M 86.648438 102.148438 C 84.941406 102.507812 82.253906 101.320312 81.363281 100.933594 L 81.246094 100.878906 C 77.4375 99.222656 71.714844 97.15625 63.226562 94.417969 C 62.605469 94.207031 61.949219 94.1875 61.320312 94.320312 C 60.695312 94.453125 60.101562 94.757812 59.59375 95.207031 C 54.019531 100.21875 50.265625 103.804688 47.726562 106.558594 L 47.644531 106.65625 C 46.980469 107.367188 44.976562 109.542969 43.292969 109.894531 C 43.09375 109.9375 42.914062 109.949219 42.75 109.929688 C 42.558594 109.890625 42.339844 109.832031 42.1875 109.734375 C 41.664062 109.375 41.03125 108.226562 40.914062 104.800781 L 40.925781 104.71875 C 40.785156 100.695312 40.378906 94.507812 39.84375 86.859375 C 39.757812 85.699219 39.140625 84.628906 38.144531 84 C 31.636719 79.824219 27.046875 77.050781 23.664062 75.304688 L 23.550781 75.25 C 20.054688 73.449219 19.207031 72.164062 19.101562 71.402344 C 19.074219 71.144531 19.125 70.898438 19.136719 70.816406 C 19.320312 70.203125 20.253906 69.277344 23.578125 68.265625 L 23.652344 68.25 C 27.636719 67.019531 33.792969 64.890625 40.84375 62.417969 C 41.992188 62.019531 42.890625 61.074219 43.199219 59.910156 C 45.285156 52.128906 46.585938 46.730469 47.25 42.90625 L 47.28125 42.792969 C 47.957031 38.914062 48.9375 37.714844 49.628906 37.386719 C 49.722656 37.339844 49.847656 37.316406 49.949219 37.292969 C 50 37.285156 50.097656 37.261719 50.203125 37.265625 C 50.839844 37.289062 51.984375 37.886719 53.96875 40.710938 L 54.007812 40.78125 C 56.335938 44.132812 60.203125 49.332031 64.617188 55.253906 C 65.382812 56.269531 66.628906 56.847656 67.890625 56.738281 C 75.335938 56.140625 81.851562 55.609375 85.894531 55.152344 L 85.96875 55.136719 C 89.425781 54.75 90.625 55.230469 91.0625 55.6875 C 91.128906 55.753906 91.277344 55.957031 91.328125 56.207031 C 91.535156 56.949219 91.285156 58.492188 88.808594 61.546875 L 88.722656 61.640625 C 86.5625 64.320312 83.726562 68.285156 80.035156 73.792969 C 79.378906 74.765625 79.242188 75.996094 79.628906 77.09375 C 82.570312 85.230469 85.09375 92.253906 86.761719 96.453125 L 86.777344 96.527344 C 88.046875 99.710938 87.929688 101.019531 87.597656 101.558594 C 87.515625 101.679688 87.34375 101.847656 87.15625 101.964844 C 87.019531 102.046875 86.847656 102.109375 86.648438 102.148438 Z M 86.648438 102.148438 " fill-opacity="1" fill-rule="nonzero"/></g></g></g></g><g clip-path="url(#a5adb13f2b)"><g clip-path="url(#5c031a835f)"><g clip-path="url(#de18a74bc9)"><g clip-path="url(#6605b3ec4a)"><path fill="#ed83b5" d="M 51.03125 42.949219 C 53.402344 46.371094 57.257812 51.519531 61.671875 57.441406 C 63.203125 59.5 65.664062 60.605469 68.214844 60.40625 C 75.890625 59.789062 82.125 59.289062 86.21875 58.824219 C 86.140625 58.945312 86.03125 59.046875 85.925781 59.171875 L 85.839844 59.269531 C 83.574219 62.070312 80.761719 66.007812 76.949219 71.695312 C 75.632812 73.644531 75.335938 76.113281 76.140625 78.320312 C 79.050781 86.441406 81.570312 93.441406 83.277344 97.707031 C 83.136719 97.660156 82.988281 97.585938 82.847656 97.535156 L 82.734375 97.484375 C 78.808594 95.769531 72.972656 93.675781 64.371094 90.882812 C 63.105469 90.46875 61.789062 90.433594 60.558594 90.691406 C 59.304688 90.953125 58.09375 91.546875 57.101562 92.433594 C 51.4375 97.519531 47.597656 101.199219 44.996094 104.023438 L 44.910156 104.117188 C 44.804688 104.246094 44.695312 104.347656 44.585938 104.445312 C 44.4375 100.375 44.03125 94.1875 43.507812 86.585938 C 43.355469 84.238281 42.097656 82.125 40.132812 80.863281 C 33.527344 76.605469 28.824219 73.800781 25.328125 72 L 25.214844 71.945312 C 25.066406 71.871094 24.945312 71.792969 24.804688 71.746094 C 28.835938 70.480469 34.988281 68.351562 42.019531 65.90625 C 44.339844 65.105469 46.09375 63.222656 46.75 60.863281 C 48.925781 53.007812 50.257812 47.5 50.945312 43.539062 L 50.976562 43.429688 C 50.964844 43.25 50.980469 43.089844 51.03125 42.949219 M 49.207031 33.632812 C 48.855469 33.707031 48.460938 33.816406 48.054688 34.007812 C 44.695312 35.601562 43.878906 40.582031 43.605469 42.257812 C 42.929688 46.164062 41.535156 51.738281 39.574219 58.867188 C 32.082031 61.488281 26.265625 63.492188 22.503906 64.648438 C 20.808594 65.1875 16.589844 66.4375 15.554688 69.609375 C 15.492188 69.804688 15.207031 70.703125 15.367188 71.84375 C 15.878906 75.527344 20.414062 77.789062 21.910156 78.546875 C 25.347656 80.308594 30.09375 83.207031 36.089844 87.070312 C 36.625 94.851562 37.03125 100.910156 37.167969 104.800781 C 37.226562 106.566406 37.335938 110.960938 40.152344 112.777344 C 40.335938 112.894531 41.117188 113.382812 42.25 113.539062 C 42.871094 113.617188 43.464844 113.570312 44.039062 113.449219 C 46.976562 112.832031 49.503906 110.027344 50.464844 108.988281 C 53.023438 106.203125 56.9375 102.507812 62.066406 97.875 C 69.882812 100.414062 75.851562 102.507812 79.746094 104.226562 C 81.046875 104.789062 84.464844 106.347656 87.398438 105.730469 C 87.976562 105.609375 88.5625 105.40625 89.097656 105.085938 C 90.070312 104.488281 90.59375 103.726562 90.710938 103.542969 C 92.535156 100.757812 90.871094 96.6875 90.230469 95.019531 C 88.625 90.992188 86.242188 84.382812 83.152344 75.777344 C 86.597656 70.609375 89.429688 66.617188 91.636719 63.90625 C 92.695312 62.585938 95.9375 58.691406 94.929688 55.136719 C 94.617188 54.027344 93.996094 53.320312 93.859375 53.167969 C 91.636719 50.679688 87.265625 51.207031 85.503906 51.417969 C 81.589844 51.875 75.488281 52.371094 67.628906 53.003906 C 62.929688 46.722656 59.3125 41.835938 57.089844 38.617188 C 56.078125 37.15625 53.613281 33.542969 50.257812 33.519531 C 50.101562 33.523438 49.707031 33.527344 49.207031 33.632812 Z M 49.207031 33.632812 " fill-opacity="1" fill-rule="nonzero"/></g></g></g></g><g clip-path="url(#18cf5cdd93)"><g clip-path="url(#98a20f4fd9)"><g clip-path="url(#816d4d823c)"><g clip-path="url(#843cf20b49)"><path fill="#fff48b" d="M 49.207031 33.632812 C 49.734375 33.523438 50.125 33.519531 50.257812 33.519531 C 53.613281 33.542969 56.082031 37.183594 57.089844 38.617188 C 59.3125 41.835938 62.957031 46.71875 67.625 52.976562 C 75.480469 52.347656 81.585938 51.847656 85.503906 51.417969 C 87.265625 51.207031 91.636719 50.679688 93.859375 53.167969 C 93.996094 53.320312 94.617188 54.027344 94.929688 55.136719 C 95.941406 58.714844 92.699219 62.609375 91.636719 63.90625 C 89.429688 66.617188 86.605469 70.636719 83.152344 75.777344 C 86.242188 84.382812 88.625 90.992188 90.230469 95.019531 C 90.890625 96.660156 92.554688 100.726562 90.710938 103.542969 C 90.59375 103.726562 90.070312 104.488281 89.097656 105.085938 C 88.5625 105.40625 88 105.601562 87.398438 105.730469 C 84.464844 106.347656 81.019531 104.796875 79.746094 104.226562 C 75.851562 102.507812 69.882812 100.414062 62.066406 97.875 C 56.929688 102.480469 53.023438 106.203125 50.464844 108.988281 C 49.503906 110.027344 47 112.828125 44.039062 113.449219 C 43.464844 113.570312 42.84375 113.621094 42.25 113.539062 C 41.117188 113.382812 40.328125 112.867188 40.152344 112.777344 C 37.359375 110.957031 37.25 106.5625 37.167969 104.800781 C 37.03125 100.910156 36.625 94.851562 36.089844 87.070312 C 30.09375 83.207031 25.351562 80.335938 21.910156 78.546875 C 20.410156 77.765625 15.875 75.503906 15.367188 71.84375 C 15.207031 70.703125 15.492188 69.804688 15.554688 69.609375 C 16.589844 66.4375 20.804688 65.160156 22.503906 64.648438 C 26.261719 63.464844 32.074219 61.460938 39.574219 58.867188 C 41.535156 51.738281 42.929688 46.164062 43.605469 42.257812 C 43.878906 40.582031 44.695312 35.601562 48.054688 34.007812 C 48.460938 33.816406 48.855469 33.707031 49.207031 33.632812 M 48.417969 29.878906 C 47.714844 30.027344 47.054688 30.242188 46.433594 30.53125 C 41.332031 32.933594 40.21875 39.363281 39.851562 41.480469 L 39.824219 41.589844 C 39.269531 44.816406 38.128906 49.5 36.410156 55.898438 C 30.230469 58.03125 24.882812 59.886719 21.363281 60.964844 L 21.289062 60.984375 C 19.171875 61.636719 13.542969 63.394531 11.898438 68.417969 C 11.652344 69.121094 11.304688 70.582031 11.546875 72.359375 C 12.296875 77.925781 18.113281 80.914062 20.019531 81.898438 L 20.136719 81.953125 C 22.984375 83.417969 27 85.816406 32.378906 89.234375 C 32.84375 95.933594 33.191406 101.324219 33.3125 104.90625 L 33.304688 104.988281 C 33.375 107.195312 33.589844 113.082031 38.019531 115.96875 C 38.019531 115.96875 38.050781 115.988281 38.050781 115.988281 C 39.167969 116.695312 40.417969 117.164062 41.738281 117.332031 C 42.761719 117.457031 43.800781 117.421875 44.828125 117.203125 C 48.894531 116.351562 51.902344 113.078125 53.203125 111.679688 L 53.289062 111.585938 C 55.378906 109.316406 58.558594 106.246094 63.007812 102.226562 C 70.097656 104.554688 74.976562 106.324219 78.230469 107.734375 L 78.347656 107.789062 C 80.078125 108.546875 84.171875 110.328125 88.238281 109.472656 C 89.289062 109.253906 90.257812 108.867188 91.117188 108.347656 C 92.539062 107.5 93.433594 106.398438 93.953125 105.632812 C 93.953125 105.632812 93.972656 105.605469 93.972656 105.605469 C 96.867188 101.179688 94.671875 95.707031 93.875 93.652344 L 93.832031 93.582031 C 92.335938 89.820312 90.082031 83.574219 87.449219 76.285156 C 90.492188 71.804688 92.839844 68.515625 94.648438 66.28125 L 94.734375 66.183594 C 95.398438 65.363281 96.601562 63.855469 97.585938 61.925781 C 98.988281 59.121094 99.34375 56.457031 98.648438 54.015625 C 98.15625 52.289062 97.253906 51.121094 96.742188 50.546875 C 93.214844 46.609375 87.355469 47.265625 85.15625 47.519531 L 85.082031 47.535156 C 81.523438 47.941406 75.9375 48.410156 69.445312 48.933594 C 65.589844 43.785156 62.289062 39.304688 60.257812 36.359375 L 60.214844 36.289062 C 58.941406 34.464844 55.59375 29.625 50.296875 29.589844 C 50.296875 29.589844 50.269531 29.59375 50.269531 29.59375 C 49.632812 29.675781 49.019531 29.75 48.417969 29.878906 Z M 48.417969 29.878906 " fill-opacity="1" fill-rule="nonzero"/></g></g></g></g><g clip-path="url(#9359c6d22f)"><g clip-path="url(#478e4ad519)"><g clip-path="url(#7ffebab43c)"><g clip-path="url(#087eba2ede)"><path fill="#ec297b" d="M 87.9375 108.414062 C 84.246094 109.1875 80.410156 107.511719 78.765625 106.785156 L 78.648438 106.730469 C 75.273438 105.242188 70.171875 103.414062 62.6875 100.960938 C 57.980469 105.242188 54.601562 108.488281 52.429688 110.851562 L 52.34375 110.949219 C 50.851562 112.566406 46.855469 116.882812 41.875 116.230469 C 40.742188 116.078125 39.636719 115.679688 38.671875 115.074219 C 38.671875 115.074219 38.671875 115.074219 38.640625 115.054688 C 34.71875 112.480469 34.519531 107.03125 34.457031 104.980469 L 34.464844 104.898438 C 34.347656 101.214844 33.972656 95.566406 33.507812 88.605469 C 27.847656 84.984375 23.625 82.472656 20.6875 80.949219 L 20.570312 80.894531 C 18.601562 79.871094 13.375 77.203125 12.722656 72.21875 C 12.503906 70.667969 12.8125 69.402344 13.023438 68.78125 C 14.46875 64.320312 19.683594 62.703125 21.65625 62.109375 L 21.730469 62.09375 C 25.371094 60.960938 30.9375 59.035156 37.382812 56.792969 C 39.214844 50.054688 40.414062 45.152344 40.992188 41.789062 L 41.019531 41.679688 C 41.402344 39.507812 42.382812 33.707031 46.964844 31.570312 C 47.992188 31.089844 49.164062 30.820312 50.292969 30.816406 C 55.011719 30.847656 58.125 35.316406 59.292969 37.003906 L 59.332031 37.074219 C 61.46875 40.128906 64.910156 44.789062 68.925781 50.195312 C 75.703125 49.660156 81.546875 49.164062 85.230469 48.757812 L 85.308594 48.742188 C 87.355469 48.519531 92.78125 47.902344 95.894531 51.378906 C 96.3125 51.867188 97.101562 52.878906 97.546875 54.378906 C 98.929688 59.210938 95.222656 63.78125 93.851562 65.480469 L 93.765625 65.574219 C 91.875 67.90625 89.382812 71.386719 86.1875 76.132812 C 88.894531 83.667969 91.222656 90.132812 92.769531 94.015625 L 92.8125 94.085938 C 93.578125 95.988281 95.585938 101.058594 93.03125 104.992188 C 93.03125 104.992188 93.03125 104.992188 93.011719 105.019531 C 92.578125 105.6875 91.78125 106.640625 90.546875 107.371094 C 89.664062 107.917969 88.8125 108.230469 87.9375 108.414062 Z M 61.5 95.300781 C 61.953125 95.207031 62.429688 95.238281 62.878906 95.378906 C 71.339844 98.125 77.035156 100.167969 80.8125 101.808594 L 80.925781 101.859375 C 85.773438 103.980469 87.214844 103.101562 87.679688 102.820312 C 88.097656 102.578125 88.34375 102.238281 88.441406 102.085938 C 89.46875 100.484375 88.203125 97.328125 87.738281 96.117188 L 87.695312 96.046875 C 86.035156 91.875 83.511719 84.851562 80.578125 76.738281 C 80.277344 75.9375 80.40625 75.046875 80.863281 74.351562 C 84.53125 68.875 87.339844 64.914062 89.484375 62.265625 L 89.570312 62.171875 C 92.898438 58.074219 92.425781 56.449219 92.292969 55.925781 C 92.125 55.386719 91.816406 55.035156 91.808594 55.007812 C 90.539062 53.574219 87.117188 53.980469 85.835938 54.121094 L 85.757812 54.136719 C 81.714844 54.59375 75.511719 55.113281 67.804688 55.710938 C 66.875 55.773438 65.980469 55.386719 65.433594 54.640625 C 61.019531 48.71875 57.15625 43.542969 54.828125 40.191406 L 54.785156 40.121094 C 54.042969 39.074219 52.085938 36.242188 50.195312 36.222656 C 50.089844 36.21875 49.648438 36.234375 49.171875 36.464844 C 47.144531 37.414062 46.476562 41.34375 46.246094 42.621094 L 46.21875 42.730469 C 45.550781 46.53125 44.265625 51.898438 42.132812 59.585938 C 41.894531 60.445312 41.253906 61.128906 40.421875 61.410156 C 33.363281 63.855469 27.210938 65.984375 23.25 67.210938 L 23.175781 67.226562 C 21.945312 67.613281 18.648438 68.621094 18.0625 70.441406 C 18.039062 70.472656 17.898438 70.921875 17.988281 71.476562 C 18.296875 73.6875 21.824219 75.507812 22.996094 76.097656 L 23.109375 76.152344 C 26.460938 77.878906 31.046875 80.628906 37.523438 84.785156 C 38.246094 85.234375 38.695312 86 38.742188 86.855469 C 39.277344 94.503906 39.679688 100.667969 39.8125 104.664062 L 39.828125 104.742188 C 39.863281 106.039062 40 109.433594 41.585938 110.488281 C 41.882812 110.660156 42.226562 110.796875 42.578125 110.855469 C 44.789062 111.148438 47.476562 108.230469 48.371094 107.257812 L 48.457031 107.164062 C 50.953125 104.445312 54.703125 100.859375 60.257812 95.875 C 60.625 95.617188 61.050781 95.394531 61.5 95.300781 Z M 91.617188 63.9375 Z M 91.617188 63.9375 " fill-opacity="1" fill-rule="nonzero"/></g></g></g></g><path stroke-linecap="butt" transform="matrix(0.412733, 0, 0, 0.412733, 46.403817, 57.846635)" fill="none" stroke-linejoin="miter" d="M 8.154705 70.00085 L 24.386075 70.00085 C 25.294653 70.00085 26.013944 69.281559 26.013944 68.372981 L 26.013944 59.239877 C 26.013944 58.331299 26.723771 57.621473 27.651278 57.621473 C 28.559856 57.621473 29.269682 58.39755 29.269682 59.306128 L 29.269682 68.372981 C 29.269682 69.281559 30.055224 70.00085 30.963802 70.00085 L 47.195172 70.00085 C 48.122679 70.00085 48.832505 69.281559 48.832505 68.372981 L 48.832505 31.14967 C 48.832505 23.445684 43.229607 17.842786 35.525621 17.842786 L 19.758005 17.842786 C 12.072948 17.842786 6.451121 23.445684 6.451121 31.14967 L 6.451121 68.372981 C 6.451121 69.281559 7.246127 70.00085 8.154705 70.00085 Z M 27.651278 41.976893 C 26.723771 41.976893 26.013944 41.257602 26.013944 40.330095 L 26.013944 35.124699 C 26.013944 34.206657 26.723771 33.487366 27.651278 33.487366 C 28.559856 33.487366 29.269682 34.206657 29.269682 35.124699 L 29.269682 40.330095 C 29.269682 41.257602 28.559856 41.976893 27.651278 41.976893 Z M 53.782363 70.00085 L 102.675225 70.00085 C 103.583803 70.00085 104.303094 69.281559 104.303094 68.372981 L 104.303094 55.974675 C 104.303094 55.075561 103.517552 54.35627 102.618439 54.35627 L 73.278936 54.35627 C 72.360894 54.35627 71.641603 53.636979 71.641603 52.728401 C 71.641603 51.810358 72.360894 51.091067 73.278936 51.091067 L 100.072527 51.091067 C 100.971641 51.091067 101.690932 50.371776 101.690932 49.472662 L 101.690932 38.380437 C 101.690932 37.471859 100.914855 36.752568 100.006276 36.752568 L 73.278936 36.752568 C 72.360894 36.752568 71.641603 36.033277 71.641603 35.124699 C 71.641603 34.206657 72.360894 33.487366 73.278936 33.487366 L 102.675225 33.487366 C 103.583803 33.487366 104.303094 32.777539 104.303094 31.868961 L 104.303094 19.480119 C 104.303094 18.562077 103.583803 17.842786 102.675225 17.842786 L 53.725577 17.842786 C 52.79807 17.842786 52.078779 18.562077 52.078779 19.480119 L 52.078779 68.372981 C 52.078779 69.281559 52.873785 70.00085 53.782363 70.00085 Z M 109.196166 70.00085 L 146.419476 70.00085 C 154.113998 70.00085 159.716896 64.397951 159.716896 56.693966 L 159.716896 49.406412 C 159.716896 41.702426 154.113998 36.099528 146.419476 36.099528 L 128.758989 36.099528 C 127.831482 36.099528 127.121655 35.380237 127.121655 34.481123 C 127.121655 33.553616 127.831482 32.834325 128.758989 32.834325 L 158.089027 32.834325 C 158.997605 32.834325 159.716896 32.124498 159.716896 31.21592 L 159.716896 19.480119 C 159.716896 18.562077 158.997605 17.842786 158.089027 17.842786 L 120.865716 17.842786 C 113.171195 17.842786 107.558832 23.445684 107.558832 31.14967 L 107.558832 38.456152 C 107.558832 46.141209 113.171195 51.744108 120.865716 51.744108 L 138.526204 51.744108 C 139.434782 51.744108 140.154073 52.463399 140.154073 53.381441 C 140.154073 54.290019 139.434782 55.00931 138.526204 55.00931 L 109.196166 55.00931 C 108.278123 55.00931 107.558832 55.719137 107.558832 56.627715 L 107.558832 68.372981 C 107.558832 69.281559 108.278123 70.00085 109.196166 70.00085 Z M 174.509684 70.00085 L 190.741054 70.00085 C 191.659096 70.00085 192.378387 69.224773 192.378387 68.316194 L 192.378387 37.083821 C 192.378387 36.165778 193.154465 35.446487 194.063043 35.446487 L 200.593448 35.446487 C 201.502026 35.446487 202.211853 34.727196 202.211853 33.828082 L 202.211853 19.480119 C 202.211853 18.628327 201.502026 17.842786 200.593448 17.842786 L 164.609968 17.776535 C 163.682461 17.776535 162.96317 18.495826 162.96317 19.423333 L 162.96317 33.828082 C 162.96317 34.727196 163.682461 35.446487 164.609968 35.446487 L 171.11198 35.446487 C 172.039487 35.446487 172.815564 36.165778 172.815564 37.083821 L 172.815564 68.372981 C 172.815564 69.281559 173.601106 70.00085 174.509684 70.00085 Z M 207.171175 70.00085 L 223.402545 70.00085 C 224.311123 70.00085 225.030414 69.281559 225.030414 68.372981 L 225.030414 54.025017 C 225.030414 53.116439 225.749705 52.397148 226.667748 52.397148 C 227.576326 52.397148 228.295617 53.173225 228.295617 54.100732 L 228.295617 68.372981 C 228.295617 69.281559 229.071694 70.00085 229.980272 70.00085 L 246.211642 70.00085 C 247.139149 70.00085 247.848976 69.281559 247.848976 68.372981 L 247.848976 19.480119 C 247.848976 18.562077 247.072899 17.842786 246.145392 17.842786 L 229.914022 17.842786 C 229.005444 17.842786 228.295617 18.562077 228.295617 19.480119 L 228.295617 33.828082 C 228.295617 34.727196 227.576326 35.446487 226.667748 35.446487 C 225.749705 35.446487 225.030414 34.727196 225.030414 33.828082 L 225.030414 19.480119 C 225.030414 18.562077 224.244873 17.842786 223.345759 17.842786 L 207.104925 17.842786 C 206.186882 17.842786 205.467591 18.562077 205.467591 19.480119 L 205.467591 68.372981 C 205.467591 69.281559 206.262597 70.00085 207.171175 70.00085 Z M 252.798834 70.00085 L 301.691695 70.00085 C 302.600273 70.00085 303.319564 69.281559 303.319564 68.372981 L 303.319564 55.974675 C 303.319564 55.075561 302.543487 54.35627 301.634909 54.35627 L 272.295406 54.35627 C 271.377364 54.35627 270.658073 53.636979 270.658073 52.728401 C 270.658073 51.810358 271.377364 51.091067 272.295406 51.091067 L 299.088997 51.091067 C 299.988111 51.091067 300.707402 50.371776 300.707402 49.472662 L 300.707402 38.380437 C 300.707402 37.471859 299.931325 36.752568 299.022747 36.752568 L 272.295406 36.752568 C 271.377364 36.752568 270.658073 36.033277 270.658073 35.124699 C 270.658073 34.206657 271.377364 33.487366 272.295406 33.487366 L 301.691695 33.487366 C 302.600273 33.487366 303.319564 32.777539 303.319564 31.868961 L 303.319564 19.480119 C 303.319564 18.562077 302.600273 17.842786 301.691695 17.842786 L 252.742048 17.842786 C 251.814541 17.842786 251.104714 18.562077 251.104714 19.480119 L 251.104714 68.372981 C 251.104714 69.281559 251.89972 70.00085 252.798834 70.00085 Z M 318.112352 70.00085 L 334.343722 70.00085 C 335.271229 70.00085 335.99052 69.224773 335.99052 68.316194 L 335.99052 37.083821 C 335.99052 36.165778 336.766597 35.446487 337.675175 35.446487 L 344.196116 35.446487 C 345.104694 35.446487 345.823985 34.727196 345.823985 33.828082 L 345.823985 19.480119 C 345.823985 18.628327 345.104694 17.842786 344.196116 17.842786 L 308.212636 17.776535 C 307.294594 17.776535 306.575303 18.495826 306.575303 19.423333 L 306.575303 33.828082 C 306.575303 34.727196 307.294594 35.446487 308.212636 35.446487 L 314.724113 35.446487 C 315.642155 35.446487 316.427697 36.165778 316.427697 37.083821 L 316.427697 68.372981 C 316.427697 69.281559 317.203774 70.00085 318.112352 70.00085 Z M 350.783308 70.00085 L 367.014678 70.00085 C 367.923256 70.00085 368.633083 69.281559 368.633083 68.372981 L 368.633083 19.480119 C 368.633083 18.562077 367.857005 17.842786 366.948427 17.842786 L 350.717057 17.842786 C 349.78955 17.842786 349.079724 18.562077 349.079724 19.480119 L 349.079724 68.372981 C 349.079724 69.281559 349.87473 70.00085 350.783308 70.00085 Z M 385.195705 70.00085 L 422.42848 70.00085 C 423.327594 70.00085 424.046885 69.224773 424.046885 68.316194 L 424.046885 54.025017 C 424.046885 53.116439 423.327594 52.397148 422.42848 52.397148 L 393.088978 52.397148 C 392.170935 52.397148 391.451644 51.677857 391.451644 50.778743 L 391.451644 37.083821 C 391.451644 36.165778 392.170935 35.446487 393.088978 35.446487 L 422.42848 35.446487 C 423.327594 35.446487 424.046885 34.67041 424.046885 33.761832 L 424.046885 19.480119 C 424.046885 18.562077 423.327594 17.842786 422.42848 17.842786 L 385.195705 17.842786 C 377.510648 17.842786 371.888821 23.445684 371.888821 31.14967 L 371.888821 56.693966 C 371.888821 64.397951 377.510648 70.00085 385.195705 70.00085 Z M 385.195705 70.00085 " stroke="#fff48b" stroke-width="9.453347" stroke-opacity="1" stroke-miterlimit="4"/><g fill="#ec297b" fill-opacity="1"><g transform="translate(48.396543, 86.737931)"><g><path d="M 1.371094 0 L 8.070312 0 C 8.449219 0 8.746094 -0.296875 8.746094 -0.671875 L 8.746094 -4.441406 C 8.746094 -4.816406 9.039062 -5.113281 9.417969 -5.113281 C 9.792969 -5.113281 10.089844 -4.789062 10.089844 -4.414062 L 10.089844 -0.671875 C 10.089844 -0.296875 10.414062 0 10.789062 0 L 17.488281 0 C 17.867188 0 18.160156 -0.296875 18.160156 -0.671875 L 18.160156 -16.035156 C 18.160156 -19.210938 15.847656 -21.523438 12.671875 -21.523438 L 6.160156 -21.523438 C 2.988281 -21.523438 0.671875 -19.210938 0.671875 -16.035156 L 0.671875 -0.671875 C 0.671875 -0.296875 0.996094 0 1.371094 0 Z M 9.417969 -11.570312 C 9.039062 -11.570312 8.746094 -11.867188 8.746094 -12.242188 L 8.746094 -14.394531 C 8.746094 -14.769531 9.039062 -15.066406 9.417969 -15.066406 C 9.792969 -15.066406 10.089844 -14.769531 10.089844 -14.394531 L 10.089844 -12.242188 C 10.089844 -11.867188 9.792969 -11.570312 9.417969 -11.570312 Z M 9.417969 -11.570312 "/></g></g></g><g fill="#ec297b" fill-opacity="1"><g transform="translate(67.230046, 86.737931)"><g><path d="M 1.371094 0 L 21.550781 0 C 21.929688 0 22.222656 -0.296875 22.222656 -0.671875 L 22.222656 -5.785156 C 22.222656 -6.160156 21.902344 -6.457031 21.523438 -6.457031 L 9.417969 -6.457031 C 9.039062 -6.457031 8.746094 -6.753906 8.746094 -7.128906 C 8.746094 -7.507812 9.039062 -7.804688 9.417969 -7.804688 L 20.476562 -7.804688 C 20.851562 -7.804688 21.148438 -8.097656 21.148438 -8.476562 L 21.148438 -13.050781 C 21.148438 -13.425781 20.824219 -13.722656 20.449219 -13.722656 L 9.417969 -13.722656 C 9.039062 -13.722656 8.746094 -14.019531 8.746094 -14.394531 C 8.746094 -14.769531 9.039062 -15.066406 9.417969 -15.066406 L 21.550781 -15.066406 C 21.929688 -15.066406 22.222656 -15.363281 22.222656 -15.738281 L 22.222656 -20.851562 C 22.222656 -21.230469 21.929688 -21.523438 21.550781 -21.523438 L 1.34375 -21.523438 C 0.96875 -21.523438 0.671875 -21.230469 0.671875 -20.851562 L 0.671875 -0.671875 C 0.671875 -0.296875 0.996094 0 1.371094 0 Z M 1.371094 0 "/></g></g></g><g fill="#ec297b" fill-opacity="1"><g transform="translate(90.126199, 86.737931)"><g><path d="M 1.34375 0 L 16.707031 0 C 19.882812 0 22.199219 -2.3125 22.199219 -5.488281 L 22.199219 -8.503906 C 22.199219 -11.675781 19.882812 -13.992188 16.707031 -13.992188 L 9.417969 -13.992188 C 9.039062 -13.992188 8.746094 -14.289062 8.746094 -14.664062 C 8.746094 -15.039062 9.039062 -15.335938 9.417969 -15.335938 L 21.523438 -15.335938 C 21.902344 -15.335938 22.199219 -15.632812 22.199219 -16.007812 L 22.199219 -20.851562 C 22.199219 -21.230469 21.902344 -21.523438 21.523438 -21.523438 L 6.160156 -21.523438 C 2.988281 -21.523438 0.671875 -19.210938 0.671875 -16.035156 L 0.671875 -13.023438 C 0.671875 -9.847656 2.988281 -7.535156 6.160156 -7.535156 L 13.453125 -7.535156 C 13.828125 -7.535156 14.125 -7.238281 14.125 -6.859375 C 14.125 -6.484375 13.828125 -6.1875 13.453125 -6.1875 L 1.34375 -6.1875 C 0.96875 -6.1875 0.671875 -5.890625 0.671875 -5.515625 L 0.671875 -0.671875 C 0.671875 -0.296875 0.96875 0 1.34375 0 Z M 1.34375 0 "/></g></g></g><g fill="#ec297b" fill-opacity="1"><g transform="translate(112.995448, 86.737931)"><g><path d="M 5.433594 0 L 12.132812 0 C 12.511719 0 12.808594 -0.324219 12.808594 -0.699219 L 12.808594 -13.585938 C 12.808594 -13.964844 13.128906 -14.261719 13.507812 -14.261719 L 16.199219 -14.261719 C 16.574219 -14.261719 16.871094 -14.554688 16.871094 -14.933594 L 16.871094 -20.851562 C 16.871094 -21.203125 16.574219 -21.523438 16.199219 -21.523438 L 1.34375 -21.550781 C 0.96875 -21.550781 0.671875 -21.253906 0.671875 -20.878906 L 0.671875 -14.933594 C 0.671875 -14.554688 0.96875 -14.261719 1.34375 -14.261719 L 4.035156 -14.261719 C 4.414062 -14.261719 4.734375 -13.964844 4.734375 -13.585938 L 4.734375 -0.671875 C 4.734375 -0.296875 5.058594 0 5.433594 0 Z M 5.433594 0 "/></g></g></g><g fill="#ec297b" fill-opacity="1"><g transform="translate(130.537512, 86.737931)"><g><path d="M 1.371094 0 L 8.070312 0 C 8.449219 0 8.746094 -0.296875 8.746094 -0.671875 L 8.746094 -6.59375 C 8.746094 -6.96875 9.039062 -7.265625 9.417969 -7.265625 C 9.792969 -7.265625 10.089844 -6.941406 10.089844 -6.566406 L 10.089844 -0.671875 C 10.089844 -0.296875 10.414062 0 10.789062 0 L 17.488281 0 C 17.867188 0 18.160156 -0.296875 18.160156 -0.671875 L 18.160156 -20.851562 C 18.160156 -21.230469 17.839844 -21.523438 17.460938 -21.523438 L 10.761719 -21.523438 C 10.386719 -21.523438 10.089844 -21.230469 10.089844 -20.851562 L 10.089844 -14.933594 C 10.089844 -14.554688 9.792969 -14.261719 9.417969 -14.261719 C 9.039062 -14.261719 8.746094 -14.554688 8.746094 -14.933594 L 8.746094 -20.851562 C 8.746094 -21.230469 8.421875 -21.523438 8.042969 -21.523438 L 1.34375 -21.523438 C 0.96875 -21.523438 0.671875 -21.230469 0.671875 -20.851562 L 0.671875 -0.671875 C 0.671875 -0.296875 0.996094 0 1.371094 0 Z M 1.371094 0 "/></g></g></g><g fill="#ec297b" fill-opacity="1"><g transform="translate(149.371015, 86.737931)"><g><path d="M 1.371094 0 L 21.550781 0 C 21.929688 0 22.222656 -0.296875 22.222656 -0.671875 L 22.222656 -5.785156 C 22.222656 -6.160156 21.902344 -6.457031 21.523438 -6.457031 L 9.417969 -6.457031 C 9.039062 -6.457031 8.746094 -6.753906 8.746094 -7.128906 C 8.746094 -7.507812 9.039062 -7.804688 9.417969 -7.804688 L 20.476562 -7.804688 C 20.851562 -7.804688 21.148438 -8.097656 21.148438 -8.476562 L 21.148438 -13.050781 C 21.148438 -13.425781 20.824219 -13.722656 20.449219 -13.722656 L 9.417969 -13.722656 C 9.039062 -13.722656 8.746094 -14.019531 8.746094 -14.394531 C 8.746094 -14.769531 9.039062 -15.066406 9.417969 -15.066406 L 21.550781 -15.066406 C 21.929688 -15.066406 22.222656 -15.363281 22.222656 -15.738281 L 22.222656 -20.851562 C 22.222656 -21.230469 21.929688 -21.523438 21.550781 -21.523438 L 1.34375 -21.523438 C 0.96875 -21.523438 0.671875 -21.230469 0.671875 -20.851562 L 0.671875 -0.671875 C 0.671875 -0.296875 0.996094 0 1.371094 0 Z M 1.371094 0 "/></g></g></g><g fill="#ec297b" fill-opacity="1"><g transform="translate(172.267168, 86.737931)"><g><path d="M 5.433594 0 L 12.132812 0 C 12.511719 0 12.808594 -0.324219 12.808594 -0.699219 L 12.808594 -13.585938 C 12.808594 -13.964844 13.128906 -14.261719 13.507812 -14.261719 L 16.199219 -14.261719 C 16.574219 -14.261719 16.871094 -14.554688 16.871094 -14.933594 L 16.871094 -20.851562 C 16.871094 -21.203125 16.574219 -21.523438 16.199219 -21.523438 L 1.34375 -21.550781 C 0.96875 -21.550781 0.671875 -21.253906 0.671875 -20.878906 L 0.671875 -14.933594 C 0.671875 -14.554688 0.96875 -14.261719 1.34375 -14.261719 L 4.035156 -14.261719 C 4.414062 -14.261719 4.734375 -13.964844 4.734375 -13.585938 L 4.734375 -0.671875 C 4.734375 -0.296875 5.058594 0 5.433594 0 Z M 5.433594 0 "/></g></g></g><g fill="#ec297b" fill-opacity="1"><g transform="translate(189.809232, 86.737931)"><g><path d="M 1.371094 0 L 8.070312 0 C 8.449219 0 8.746094 -0.296875 8.746094 -0.671875 L 8.746094 -20.851562 C 8.746094 -21.230469 8.421875 -21.523438 8.042969 -21.523438 L 1.34375 -21.523438 C 0.96875 -21.523438 0.671875 -21.230469 0.671875 -20.851562 L 0.671875 -0.671875 C 0.671875 -0.296875 0.996094 0 1.371094 0 Z M 1.371094 0 "/></g></g></g><g fill="#ec297b" fill-opacity="1"><g transform="translate(199.225984, 86.737931)"><g><path d="M 6.160156 0 L 21.523438 0 C 21.902344 0 22.199219 -0.324219 22.199219 -0.699219 L 22.199219 -6.59375 C 22.199219 -6.96875 21.902344 -7.265625 21.523438 -7.265625 L 9.417969 -7.265625 C 9.039062 -7.265625 8.746094 -7.5625 8.746094 -7.9375 L 8.746094 -13.585938 C 8.746094 -13.964844 9.039062 -14.261719 9.417969 -14.261719 L 21.523438 -14.261719 C 21.902344 -14.261719 22.199219 -14.582031 22.199219 -14.960938 L 22.199219 -20.851562 C 22.199219 -21.230469 21.902344 -21.523438 21.523438 -21.523438 L 6.160156 -21.523438 C 2.988281 -21.523438 0.671875 -19.210938 0.671875 -16.035156 L 0.671875 -5.488281 C 0.671875 -2.3125 2.988281 0 6.160156 0 Z M 6.160156 0 "/></g></g></g><path stroke-linecap="butt" transform="matrix(1.148737, 0, 0, 1.148737, 100.15611, 96.241799)" fill="none" stroke-linejoin="miter" d="M 1.414719 3.846273 L 1.003261 6.712872 L 0.391176 11.113084 C 0.285762 11.932598 0.224553 12.486875 0.20415 12.769114 L 0.20415 12.874529 C 0.20415 13.139766 0.244956 13.343794 0.306165 13.510417 C 0.428582 13.714446 0.673416 13.853865 1.044067 13.918474 C 1.329707 13.95928 1.945192 14.000085 2.887123 14.000085 L 7.409752 14.000085 C 8.331281 14.000085 8.926363 13.979683 9.212003 13.938877 C 9.660866 13.874268 9.970309 13.734849 10.153934 13.510417 C 10.276351 13.326792 10.378365 13.061555 10.459977 12.711306 C 10.538188 12.446069 10.623199 11.912195 10.725214 11.113084 L 11.340699 6.733275 C 11.463116 5.872955 11.524325 5.318678 11.524325 5.073844 L 11.524325 4.954827 C 11.524325 4.624982 11.483519 4.40055 11.361102 4.25433 C 11.238685 4.070705 10.993851 3.948288 10.606197 3.910882 C 10.334159 3.863276 9.745877 3.846273 8.820949 3.846273 L 8.392489 6.978109 L 7.800807 11.113084 C 7.532169 11.113084 7.345143 11.092681 7.266933 11.092681 C 7.185321 11.072278 7.120712 11.031473 7.079907 10.970264 C 7.062904 10.932859 7.062904 10.847847 7.062904 10.745833 C 7.062904 10.660821 7.079907 10.541804 7.100309 10.358179 L 7.617181 6.712872 C 7.695392 6.019176 7.756601 5.563512 7.756601 5.318678 C 7.777004 5.199662 7.777004 5.094247 7.777004 5.016036 C 7.777004 4.730396 7.736198 4.499164 7.654587 4.339342 C 7.532169 4.094508 7.266933 3.948288 6.855475 3.910882 C 6.590239 3.863276 6.015559 3.846273 5.117834 3.846273 L 4.628166 7.20254 L 4.094291 11.113084 C 3.808652 11.113084 3.642028 11.092681 3.563818 11.092681 C 3.478806 11.072278 3.438 11.031473 3.397194 10.990667 C 3.376792 10.949861 3.359789 10.885252 3.359789 10.807041 C 3.359789 10.72543 3.376792 10.58261 3.397194 10.375181 L 3.907265 6.712872 C 4.01268 6.097386 4.073889 5.668927 4.073889 5.444496 C 4.111294 5.240467 4.111294 5.073844 4.111294 4.954827 C 4.111294 4.584176 4.073889 4.359745 3.907265 4.193122 C 3.767846 4.029899 3.499209 3.931285 3.114955 3.890479 C 2.842917 3.846273 2.275038 3.846273 1.414719 3.846273 Z M 12.119407 6.712872 C 11.789562 9.21222 11.585533 10.660821 11.503922 11.092681 C 11.398507 11.850987 11.340699 12.361058 11.320296 12.629695 L 11.320296 12.874529 C 11.320296 13.160169 11.378104 13.3846 11.463116 13.551223 C 11.585533 13.714446 11.789562 13.833462 12.119407 13.901472 C 12.405047 13.938877 12.979727 13.979683 13.857049 13.979683 L 18.665318 13.979683 C 19.590246 13.979683 20.185329 13.938877 20.470969 13.901472 C 20.858623 13.81646 21.12386 13.67024 21.290483 13.425406 C 21.409499 13.24178 21.514914 12.95614 21.593125 12.585489 C 21.654334 12.320252 21.739345 11.830584 21.837959 11.092681 L 22.453445 6.712872 C 22.579262 5.934164 22.640471 5.40369 22.640471 5.158856 L 22.640471 4.954827 C 22.640471 4.645384 22.599665 4.420953 22.49425 4.274733 C 22.395637 4.114911 22.208611 3.989093 21.963777 3.948288 C 21.678137 3.863276 21.045649 3.846273 20.039109 3.846273 L 15.332854 3.846273 C 14.51334 3.846273 13.959063 3.846273 13.673424 3.890479 C 13.261966 3.931285 12.979727 4.050302 12.792701 4.25433 C 12.588673 4.458358 12.42545 4.869816 12.303033 5.505704 C 12.258827 5.709732 12.197618 6.117789 12.119407 6.712872 Z M 16.026551 6.712872 L 19.549441 6.712872 L 19.035969 10.358179 C 18.995164 10.603013 18.974761 10.745833 18.933955 10.827444 C 18.933955 10.912456 18.889749 10.970264 18.852344 11.01107 C 18.811538 11.051875 18.75033 11.072278 18.665318 11.092681 L 14.407926 11.092681 L 14.921397 7.467777 C 14.9418 7.34876 14.962203 7.243346 14.962203 7.20254 C 15.003009 7.018915 15.043814 6.899898 15.08802 6.852291 C 15.145828 6.794483 15.247843 6.753678 15.37366 6.733275 C 15.472274 6.712872 15.703506 6.712872 16.026551 6.712872 Z M 23.459985 6.733275 L 22.433042 14.000085 C 23.538196 14.000085 24.231892 13.95928 24.524333 13.901472 C 24.806572 13.81646 25.014001 13.694043 25.156821 13.53082 C 25.316643 13.343794 25.422058 13.061555 25.503669 12.690903 C 25.568278 12.425666 25.646489 11.912195 25.751903 11.136887 L 26.241572 7.593594 C 26.282377 7.328358 26.323183 7.161734 26.343586 7.083524 C 26.380991 6.957706 26.425197 6.879495 26.506808 6.831889 C 26.568017 6.794483 26.653029 6.753678 26.751642 6.753678 C 26.857057 6.733275 27.061085 6.733275 27.367128 6.733275 L 30.845812 6.733275 C 31.702731 6.733275 32.260409 6.712872 32.522245 6.692469 C 32.954105 6.655064 33.263548 6.549649 33.447174 6.383026 C 33.654602 6.223204 33.794022 5.934164 33.899437 5.543109 C 33.977647 5.26087 34.059259 4.703192 34.181676 3.863276 L 26.323183 3.863276 C 25.626086 3.863276 25.156821 3.890479 24.86778 3.931285 C 24.541335 3.96869 24.279499 4.094508 24.112875 4.274733 C 23.949653 4.441356 23.803432 4.750799 23.704819 5.199662 C 23.664013 5.444496 23.579001 5.954567 23.459985 6.733275 Z M 42.472029 2.554094 L 42.288403 3.846273 L 37.51754 3.846273 C 36.738831 3.846273 36.191355 3.863276 35.898915 3.931285 C 35.57587 3.96869 35.310633 4.094508 35.14401 4.25433 C 34.980787 4.420953 34.86177 4.68619 34.756356 5.053441 C 34.695147 5.318678 34.610135 5.872955 34.491119 6.733275 C 34.406107 7.222943 34.304093 7.943843 34.161273 8.923179 C 34.042256 9.905916 33.936842 10.620015 33.875633 11.113084 C 33.797422 11.772776 33.729413 12.201235 33.692008 12.446069 C 33.692008 12.605892 33.671605 12.769114 33.671605 12.894932 C 33.671605 13.221377 33.749816 13.469612 33.875633 13.629434 C 33.99465 13.755251 34.202079 13.853865 34.491119 13.918474 C 34.776759 13.95928 35.388844 14.000085 36.330775 14.000085 L 40.918013 14.000085 C 41.83614 14.000085 42.451626 13.979683 42.737266 13.938877 C 43.046709 13.874268 43.27114 13.796057 43.437763 13.694043 C 43.662194 13.53082 43.825417 13.221377 43.927431 12.80992 C 44.005642 12.544683 44.090654 11.970003 44.189268 11.113084 L 44.294682 10.358179 L 45.79089 -0.329507 C 44.910168 -0.329507 44.335488 -0.329507 44.049848 -0.288702 C 43.662194 -0.247896 43.369754 -0.122079 43.192929 0.0411441 C 43.026306 0.180564 42.880086 0.4458 42.781472 0.816452 C 42.69646 1.105492 42.597846 1.676772 42.472029 2.554094 Z M 38.09222 6.733275 L 41.876946 6.733275 L 41.387278 10.358179 C 41.346472 10.562207 41.326069 10.681224 41.288664 10.766236 C 41.268261 10.885252 41.224055 10.970264 41.162847 11.01107 C 41.122041 11.051875 41.060832 11.072278 40.975821 11.092681 C 40.89761 11.092681 40.730987 11.113084 40.448747 11.113084 L 36.783038 11.113084 L 37.293108 7.48818 C 37.333914 7.287552 37.354317 7.144732 37.354317 7.083524 C 37.395123 6.957706 37.418926 6.899898 37.459732 6.852291 C 37.500537 6.794483 37.578748 6.753678 37.66376 6.753678 C 37.745371 6.733275 37.888191 6.733275 38.09222 6.733275 Z M 49.881659 -0.329507 C 49.062145 -0.329507 48.487465 -0.329507 48.201826 -0.288702 C 47.878781 -0.247896 47.610143 -0.186688 47.423117 -0.0642705 C 47.178283 0.0819498 46.994658 0.36759 46.872241 0.796049 C 46.814433 1.061286 46.709018 1.635966 46.562798 2.537091 L 45.603864 9.518262 L 44.971376 14.000085 C 45.79089 14.000085 46.338366 13.979683 46.610404 13.95928 C 47.100072 13.901472 47.446921 13.755251 47.654349 13.551223 C 47.814172 13.364197 47.936589 13.081958 48.0182 12.690903 C 48.103212 12.405264 48.184823 11.891792 48.286837 11.136887 L 49.004337 5.913761 Z M 53.261729 3.846273 C 52.316398 3.846273 51.704313 3.863276 51.418673 3.910882 C 51.048021 3.948288 50.762382 4.070705 50.558353 4.25433 C 50.374728 4.420953 50.228507 4.771202 50.129894 5.26087 C 50.089088 5.505704 50.004076 5.974969 49.88506 6.712872 L 49.269574 11.092681 C 49.164159 11.912195 49.102951 12.446069 49.082548 12.731709 L 49.082548 12.874529 C 49.082548 13.160169 49.123354 13.364197 49.208366 13.510417 C 49.327382 13.694043 49.534811 13.81646 49.81705 13.901472 C 50.109491 13.938877 50.636564 13.979683 51.456078 13.979683 L 59.195555 13.979683 L 59.195555 13.649837 C 59.195555 13.034351 59.195555 12.629695 59.154749 12.38146 C 59.134346 11.932598 59.052735 11.646958 58.889512 11.480335 C 58.763695 11.317112 58.539263 11.215098 58.212818 11.177693 C 57.988387 11.136887 57.474915 11.113084 56.679205 11.113084 L 52.173578 11.113084 C 52.217784 10.885252 52.238187 10.745833 52.238187 10.681224 C 52.25859 10.562207 52.278993 10.477196 52.316398 10.43639 C 52.357204 10.395584 52.421813 10.375181 52.483021 10.375181 C 52.540829 10.358179 52.646244 10.358179 52.785663 10.358179 L 57.083861 10.358179 C 57.804761 10.358179 58.294429 10.337776 58.559666 10.29697 C 58.967723 10.252764 59.260164 10.130347 59.443789 9.967125 C 59.603611 9.783499 59.749832 9.497859 59.828043 9.106805 C 59.913054 8.841568 59.994666 8.307694 60.10008 7.48818 L 60.219097 6.712872 C 60.304109 6.059981 60.361917 5.628121 60.38232 5.40369 C 60.402722 5.220064 60.402722 5.073844 60.402722 4.954827 C 60.402722 4.54337 60.324512 4.25433 60.117083 4.114911 C 59.95386 3.989093 59.644417 3.910882 59.195555 3.863276 C 58.950721 3.846273 58.457652 3.846273 57.719749 3.846273 Z M 53.302535 6.733275 L 57.29129 6.733275 C 57.270887 6.957706 57.250484 7.124329 57.230081 7.20254 C 57.230081 7.287552 57.209678 7.328358 57.168873 7.369163 C 57.131468 7.406568 57.046456 7.447374 56.924039 7.467777 L 52.687049 7.467777 C 52.727855 7.222943 52.748258 7.083524 52.748258 7.018915 C 52.785663 6.937303 52.806066 6.879495 52.83327 6.831889 C 52.870675 6.794483 52.911481 6.753678 52.952286 6.753678 C 52.993092 6.733275 53.115509 6.733275 53.302535 6.733275 Z M 53.302535 6.733275 " stroke="#fff48b" stroke-width="5.373558" stroke-opacity="1" stroke-miterlimit="4"/><g fill="#ec297b" fill-opacity="1"><g transform="translate(100.15611, 112.324121)"><g><path d="M 1.621094 -11.664062 L 1.152344 -8.371094 L 0.445312 -3.316406 C 0.328125 -2.375 0.257812 -1.738281 0.234375 -1.410156 L 0.234375 -1.292969 C 0.234375 -0.988281 0.28125 -0.753906 0.351562 -0.5625 C 0.492188 -0.328125 0.777344 -0.164062 1.199219 -0.09375 C 1.527344 -0.046875 2.234375 0 3.316406 0 L 8.511719 0 C 9.570312 0 10.253906 -0.0234375 10.582031 -0.0703125 C 11.097656 -0.140625 11.453125 -0.304688 11.664062 -0.5625 C 11.804688 -0.777344 11.921875 -1.082031 12.015625 -1.480469 C 12.109375 -1.789062 12.203125 -2.398438 12.320312 -3.316406 L 13.027344 -8.347656 C 13.167969 -9.335938 13.238281 -9.96875 13.238281 -10.253906 L 13.238281 -10.394531 C 13.238281 -10.769531 13.191406 -11.027344 13.050781 -11.191406 C 12.910156 -11.40625 12.628906 -11.546875 12.179688 -11.59375 C 11.875 -11.640625 11.191406 -11.664062 10.136719 -11.664062 L 9.640625 -8.066406 L 8.960938 -3.316406 C 8.652344 -3.316406 8.441406 -3.339844 8.347656 -3.339844 C 8.253906 -3.363281 8.183594 -3.410156 8.136719 -3.480469 C 8.113281 -3.527344 8.113281 -3.621094 8.113281 -3.738281 C 8.113281 -3.832031 8.136719 -3.972656 8.160156 -4.1875 L 8.746094 -8.371094 C 8.839844 -9.171875 8.910156 -9.6875 8.910156 -9.96875 C 8.9375 -10.109375 8.9375 -10.230469 8.9375 -10.324219 C 8.9375 -10.652344 8.886719 -10.910156 8.792969 -11.097656 C 8.652344 -11.382812 8.347656 -11.546875 7.878906 -11.59375 C 7.570312 -11.640625 6.914062 -11.664062 5.878906 -11.664062 L 5.3125 -7.808594 L 4.703125 -3.316406 C 4.375 -3.316406 4.1875 -3.339844 4.089844 -3.339844 C 3.996094 -3.363281 3.949219 -3.410156 3.902344 -3.457031 C 3.878906 -3.503906 3.855469 -3.574219 3.855469 -3.667969 C 3.855469 -3.761719 3.878906 -3.925781 3.902344 -4.160156 L 4.492188 -8.371094 C 4.609375 -9.078125 4.679688 -9.570312 4.679688 -9.828125 C 4.726562 -10.0625 4.726562 -10.253906 4.726562 -10.394531 C 4.726562 -10.816406 4.679688 -11.074219 4.492188 -11.261719 C 4.328125 -11.453125 4.019531 -11.570312 3.574219 -11.617188 C 3.269531 -11.664062 2.609375 -11.664062 1.621094 -11.664062 Z M 1.621094 -11.664062 "/></g></g></g><g fill="#ec297b" fill-opacity="1"><g transform="translate(112.923692, 112.324121)"><g><path d="M 1.152344 -8.371094 C 0.777344 -5.503906 0.539062 -3.832031 0.445312 -3.339844 C 0.328125 -2.46875 0.257812 -1.882812 0.234375 -1.574219 L 0.234375 -1.292969 C 0.234375 -0.964844 0.304688 -0.707031 0.398438 -0.515625 C 0.539062 -0.328125 0.777344 -0.1875 1.152344 -0.117188 C 1.480469 -0.0703125 2.140625 -0.0234375 3.152344 -0.0234375 L 8.675781 -0.0234375 C 9.734375 -0.0234375 10.417969 -0.0703125 10.746094 -0.117188 C 11.191406 -0.210938 11.5 -0.375 11.6875 -0.660156 C 11.828125 -0.871094 11.945312 -1.199219 12.039062 -1.621094 C 12.109375 -1.929688 12.203125 -2.492188 12.320312 -3.339844 L 13.027344 -8.371094 C 13.167969 -9.265625 13.238281 -9.875 13.238281 -10.160156 L 13.238281 -10.394531 C 13.238281 -10.746094 13.191406 -11.003906 13.074219 -11.167969 C 12.957031 -11.359375 12.746094 -11.5 12.460938 -11.546875 C 12.132812 -11.640625 11.40625 -11.664062 10.253906 -11.664062 L 4.84375 -11.664062 C 3.902344 -11.664062 3.269531 -11.664062 2.9375 -11.617188 C 2.46875 -11.570312 2.140625 -11.429688 1.929688 -11.191406 C 1.691406 -10.957031 1.503906 -10.488281 1.363281 -9.757812 C 1.316406 -9.523438 1.246094 -9.054688 1.152344 -8.371094 Z M 5.644531 -8.371094 L 9.6875 -8.371094 L 9.101562 -4.1875 C 9.054688 -3.902344 9.03125 -3.738281 8.984375 -3.644531 C 8.984375 -3.550781 8.9375 -3.480469 8.886719 -3.433594 C 8.839844 -3.386719 8.769531 -3.363281 8.675781 -3.339844 L 3.785156 -3.339844 L 4.375 -7.5 C 4.398438 -7.640625 4.421875 -7.761719 4.421875 -7.808594 C 4.46875 -8.019531 4.515625 -8.160156 4.5625 -8.207031 C 4.632812 -8.277344 4.75 -8.324219 4.890625 -8.347656 C 5.007812 -8.371094 5.265625 -8.371094 5.644531 -8.371094 Z M 5.644531 -8.371094 "/></g></g></g><g fill="#ec297b" fill-opacity="1"><g transform="translate(125.691275, 112.324121)"><g><path d="M 1.410156 -8.347656 L 0.234375 0 C 1.503906 0 2.304688 -0.046875 2.632812 -0.117188 C 2.960938 -0.210938 3.199219 -0.351562 3.363281 -0.539062 C 3.550781 -0.753906 3.667969 -1.082031 3.761719 -1.503906 C 3.832031 -1.8125 3.925781 -2.398438 4.042969 -3.292969 L 4.609375 -7.359375 C 4.65625 -7.664062 4.703125 -7.855469 4.726562 -7.949219 C 4.773438 -8.089844 4.820312 -8.183594 4.914062 -8.230469 C 4.984375 -8.277344 5.078125 -8.324219 5.195312 -8.324219 C 5.3125 -8.347656 5.550781 -8.347656 5.902344 -8.347656 L 9.898438 -8.347656 C 10.886719 -8.347656 11.523438 -8.371094 11.828125 -8.394531 C 12.320312 -8.441406 12.675781 -8.558594 12.886719 -8.746094 C 13.121094 -8.9375 13.285156 -9.265625 13.402344 -9.710938 C 13.496094 -10.039062 13.589844 -10.675781 13.734375 -11.640625 L 4.703125 -11.640625 C 3.902344 -11.640625 3.363281 -11.617188 3.035156 -11.570312 C 2.65625 -11.523438 2.351562 -11.382812 2.164062 -11.167969 C 1.976562 -10.980469 1.8125 -10.628906 1.691406 -10.109375 C 1.644531 -9.828125 1.550781 -9.242188 1.410156 -8.347656 Z M 1.410156 -8.347656 "/></g></g></g><g fill="#ec297b" fill-opacity="1"><g transform="translate(138.599944, 112.324121)"><g><path d="M 10.347656 -13.144531 L 10.136719 -11.664062 L 4.65625 -11.664062 C 3.761719 -11.664062 3.128906 -11.640625 2.796875 -11.570312 C 2.421875 -11.523438 2.117188 -11.382812 1.929688 -11.191406 C 1.738281 -11.003906 1.597656 -10.699219 1.480469 -10.277344 C 1.410156 -9.96875 1.316406 -9.335938 1.175781 -8.347656 C 1.082031 -7.785156 0.964844 -6.960938 0.800781 -5.832031 C 0.660156 -4.703125 0.539062 -3.878906 0.46875 -3.316406 C 0.375 -2.5625 0.304688 -2.070312 0.257812 -1.789062 C 0.257812 -1.597656 0.234375 -1.410156 0.234375 -1.269531 C 0.234375 -0.894531 0.328125 -0.613281 0.46875 -0.421875 C 0.613281 -0.28125 0.847656 -0.164062 1.175781 -0.09375 C 1.503906 -0.046875 2.210938 0 3.292969 0 L 8.558594 0 C 9.617188 0 10.324219 -0.0234375 10.652344 -0.0703125 C 11.003906 -0.140625 11.261719 -0.234375 11.453125 -0.351562 C 11.710938 -0.539062 11.898438 -0.894531 12.015625 -1.363281 C 12.109375 -1.667969 12.203125 -2.328125 12.320312 -3.316406 L 12.4375 -4.1875 L 14.15625 -16.460938 C 13.144531 -16.460938 12.484375 -16.460938 12.15625 -16.414062 C 11.710938 -16.367188 11.382812 -16.226562 11.167969 -16.035156 C 10.980469 -15.871094 10.816406 -15.566406 10.699219 -15.144531 C 10.605469 -14.8125 10.488281 -14.15625 10.347656 -13.144531 Z M 5.3125 -8.347656 L 9.664062 -8.347656 L 9.101562 -4.1875 C 9.054688 -3.949219 9.03125 -3.808594 8.984375 -3.714844 C 8.960938 -3.574219 8.910156 -3.480469 8.839844 -3.433594 C 8.792969 -3.386719 8.722656 -3.363281 8.628906 -3.339844 C 8.535156 -3.339844 8.347656 -3.316406 8.019531 -3.316406 L 3.808594 -3.316406 L 4.398438 -7.476562 C 4.445312 -7.710938 4.46875 -7.878906 4.46875 -7.949219 C 4.515625 -8.089844 4.539062 -8.160156 4.585938 -8.207031 C 4.632812 -8.277344 4.726562 -8.324219 4.820312 -8.324219 C 4.914062 -8.347656 5.078125 -8.347656 5.3125 -8.347656 Z M 5.3125 -8.347656 "/></g></g></g><g fill="#ec297b" fill-opacity="1"><g transform="translate(151.579145, 112.324121)"><g><path d="M 5.878906 -16.460938 C 4.9375 -16.460938 4.28125 -16.460938 3.949219 -16.414062 C 3.574219 -16.367188 3.269531 -16.296875 3.058594 -16.15625 C 2.773438 -15.988281 2.5625 -15.660156 2.421875 -15.167969 C 2.351562 -14.859375 2.234375 -14.203125 2.070312 -13.167969 L 0.964844 -5.148438 L 0.234375 0 C 1.175781 0 1.8125 -0.0234375 2.117188 -0.046875 C 2.679688 -0.117188 3.082031 -0.28125 3.316406 -0.515625 C 3.503906 -0.730469 3.644531 -1.058594 3.738281 -1.503906 C 3.832031 -1.835938 3.925781 -2.421875 4.042969 -3.292969 L 4.867188 -9.289062 Z M 5.878906 -16.460938 "/></g></g></g><g fill="#ec297b" fill-opacity="1"><g transform="translate(156.305232, 112.324121)"><g><path d="M 5.03125 -11.664062 C 3.949219 -11.664062 3.246094 -11.640625 2.914062 -11.59375 C 2.492188 -11.546875 2.164062 -11.40625 1.929688 -11.191406 C 1.714844 -11.003906 1.550781 -10.605469 1.433594 -10.039062 C 1.386719 -9.757812 1.292969 -9.21875 1.152344 -8.371094 L 0.445312 -3.339844 C 0.328125 -2.398438 0.257812 -1.789062 0.234375 -1.457031 L 0.234375 -1.292969 C 0.234375 -0.964844 0.28125 -0.730469 0.375 -0.5625 C 0.515625 -0.351562 0.753906 -0.210938 1.082031 -0.117188 C 1.410156 -0.0703125 2.023438 -0.0234375 2.960938 -0.0234375 L 11.851562 -0.0234375 L 11.851562 -0.398438 C 11.851562 -1.105469 11.851562 -1.574219 11.804688 -1.859375 C 11.78125 -2.375 11.6875 -2.703125 11.5 -2.890625 C 11.359375 -3.082031 11.097656 -3.199219 10.722656 -3.246094 C 10.464844 -3.292969 9.875 -3.316406 8.960938 -3.316406 L 3.785156 -3.316406 C 3.832031 -3.574219 3.855469 -3.738281 3.855469 -3.808594 C 3.878906 -3.949219 3.902344 -4.042969 3.949219 -4.089844 C 3.996094 -4.136719 4.066406 -4.160156 4.136719 -4.160156 C 4.210938 -4.1875 4.328125 -4.1875 4.492188 -4.1875 L 9.429688 -4.1875 C 10.253906 -4.1875 10.816406 -4.210938 11.121094 -4.257812 C 11.59375 -4.304688 11.921875 -4.445312 12.132812 -4.632812 C 12.320312 -4.84375 12.484375 -5.171875 12.582031 -5.621094 C 12.675781 -5.925781 12.769531 -6.535156 12.886719 -7.476562 L 13.027344 -8.371094 C 13.121094 -9.125 13.191406 -9.617188 13.214844 -9.875 C 13.238281 -10.085938 13.238281 -10.253906 13.238281 -10.394531 C 13.238281 -10.863281 13.144531 -11.191406 12.910156 -11.359375 C 12.722656 -11.5 12.367188 -11.59375 11.851562 -11.640625 C 11.570312 -11.664062 11.003906 -11.664062 10.160156 -11.664062 Z M 5.078125 -8.347656 L 9.664062 -8.347656 C 9.640625 -8.089844 9.617188 -7.902344 9.59375 -7.808594 C 9.59375 -7.710938 9.570312 -7.664062 9.523438 -7.617188 C 9.476562 -7.570312 9.382812 -7.523438 9.242188 -7.5 L 4.375 -7.5 C 4.421875 -7.785156 4.445312 -7.949219 4.445312 -8.019531 C 4.492188 -8.113281 4.515625 -8.183594 4.539062 -8.230469 C 4.585938 -8.277344 4.632812 -8.324219 4.679688 -8.324219 C 4.726562 -8.347656 4.867188 -8.347656 5.078125 -8.347656 Z M 5.078125 -8.347656 "/></g></g></g></svg>