<svg xmlns="http://www.w3.org/2000/svg" xmlns:xlink="http://www.w3.org/1999/xlink" width="336" zoomAndPan="magnify" viewBox="0 0 252 143.999998" height="192" preserveAspectRatio="xMidYMid meet" version="1.0"><defs><g/><clipPath id="5790f27a38"><path d="M 168 33 L 236 33 L 236 115 L 168 115 Z M 168 33 " clip-rule="nonzero"/></clipPath><clipPath id="bd2b8316ab"><path d="M 135.25 57.34375 L 210.496094 10.761719 L 248.003906 71.339844 L 172.753906 117.925781 Z M 135.25 57.34375 " clip-rule="nonzero"/></clipPath><clipPath id="98078b4905"><path d="M 135.25 57.34375 L 210.496094 10.761719 L 248.003906 71.339844 L 172.753906 117.925781 Z M 135.25 57.34375 " clip-rule="nonzero"/></clipPath><clipPath id="f2542dbe4e"><path d="M 19 37 L 92 37 L 92 110 L 19 110 Z M 19 37 " clip-rule="nonzero"/></clipPath><clipPath id="289a2aa9f6"><path d="M 4.152344 39.136719 L 91.496094 20.792969 L 109.222656 105.203125 L 21.878906 123.546875 Z M 4.152344 39.136719 " clip-rule="nonzero"/></clipPath><clipPath id="99e9df936b"><path d="M 4.152344 39.136719 L 91.496094 20.792969 L 109.222656 105.203125 L 21.878906 123.546875 Z M 4.152344 39.136719 " clip-rule="nonzero"/></clipPath><clipPath id="3b2c9e8b41"><path d="M 15 33 L 95 33 L 95 114 L 15 114 Z M 15 33 " clip-rule="nonzero"/></clipPath><clipPath id="d4abccb011"><path d="M 4.152344 39.136719 L 91.496094 20.792969 L 109.222656 105.203125 L 21.878906 123.546875 Z M 4.152344 39.136719 " clip-rule="nonzero"/></clipPath><clipPath id="c65805b378"><path d="M 4.152344 39.136719 L 91.496094 20.792969 L 109.222656 105.203125 L 21.878906 123.546875 Z M 4.152344 39.136719 " clip-rule="nonzero"/></clipPath><clipPath id="3d39b6d45e"><path d="M 11 29 L 99 29 L 99 118 L 11 118 Z M 11 29 " clip-rule="nonzero"/></clipPath><clipPath id="7db318c14e"><path d="M 4.152344 39.136719 L 91.496094 20.792969 L 109.222656 105.203125 L 21.878906 123.546875 Z M 4.152344 39.136719 " clip-rule="nonzero"/></clipPath><clipPath id="529990b560"><path d="M 4.152344 39.136719 L 91.496094 20.792969 L 109.222656 105.203125 L 21.878906 123.546875 Z M 4.152344 39.136719 " clip-rule="nonzero"/></clipPath><clipPath id="04ad5cd882"><path d="M 12 30 L 98 30 L 98 117 L 12 117 Z M 12 30 " clip-rule="nonzero"/></clipPath><clipPath id="c9bc6d133d"><path d="M 4.152344 39.136719 L 91.496094 20.792969 L 109.222656 105.203125 L 21.878906 123.546875 Z M 4.152344 39.136719 " clip-rule="nonzero"/></clipPath><clipPath id="aaf0a755d1"><path d="M 4.152344 39.136719 L 91.496094 20.792969 L 109.222656 105.203125 L 21.878906 123.546875 Z M 4.152344 39.136719 " clip-rule="nonzero"/></clipPath><clipPath id="2abb4b589f"><path d="M 19 37 L 92 37 L 92 110 L 19 110 Z M 19 37 " clip-rule="nonzero"/></clipPath><clipPath id="77673be45d"><path d="M 4.152344 39.136719 L 91.496094 20.792969 L 109.222656 105.203125 L 21.878906 123.546875 Z M 4.152344 39.136719 " clip-rule="nonzero"/></clipPath><clipPath id="9289cca270"><path d="M 4.152344 39.136719 L 91.496094 20.792969 L 109.222656 105.203125 L 21.878906 123.546875 Z M 4.152344 39.136719 " clip-rule="nonzero"/></clipPath><clipPath id="c3b50b0baf"><path d="M 15 33 L 95 33 L 95 114 L 15 114 Z M 15 33 " clip-rule="nonzero"/></clipPath><clipPath id="7def2cc36c"><path d="M 4.152344 39.136719 L 91.496094 20.792969 L 109.222656 105.203125 L 21.878906 123.546875 Z M 4.152344 39.136719 " clip-rule="nonzero"/></clipPath><clipPath id="b9c19fd983"><path d="M 4.152344 39.136719 L 91.496094 20.792969 L 109.222656 105.203125 L 21.878906 123.546875 Z M 4.152344 39.136719 " clip-rule="nonzero"/></clipPath><clipPath id="1b568aa202"><path d="M 11 29 L 99 29 L 99 118 L 11 118 Z M 11 29 " clip-rule="nonzero"/></clipPath><clipPath id="ecb26eb70d"><path d="M 4.152344 39.136719 L 91.496094 20.792969 L 109.222656 105.203125 L 21.878906 123.546875 Z M 4.152344 39.136719 " clip-rule="nonzero"/></clipPath><clipPath id="a57cb23a9b"><path d="M 4.152344 39.136719 L 91.496094 20.792969 L 109.222656 105.203125 L 21.878906 123.546875 Z M 4.152344 39.136719 " clip-rule="nonzero"/></clipPath><clipPath id="e48b8ea772"><path d="M 12 30 L 98 30 L 98 117 L 12 117 Z M 12 30 " clip-rule="nonzero"/></clipPath><clipPath id="1d11d942ce"><path d="M 4.152344 39.136719 L 91.496094 20.792969 L 109.222656 105.203125 L 21.878906 123.546875 Z M 4.152344 39.136719 " clip-rule="nonzero"/></clipPath><clipPath id="e4f5d30130"><path d="M 4.152344 39.136719 L 91.496094 20.792969 L 109.222656 105.203125 L 21.878906 123.546875 Z M 4.152344 39.136719 " clip-rule="nonzero"/></clipPath></defs><g clip-path="url(#5790f27a38)"><g clip-path="url(#bd2b8316ab)"><g clip-path="url(#98078b4905)"><path fill="#bbdefb" d="M 197.421875 102.570312 C 188.542969 108.066406 179.554688 112.183594 171.167969 114.828125 C 176.625 112.496094 182.210938 109.605469 187.753906 106.171875 C 215.539062 88.96875 231.71875 64.765625 223.882812 52.109375 C 218.554688 43.5 203.484375 42.457031 185.636719 48.085938 C 207.527344 38.722656 227.28125 38.378906 233.554688 48.511719 C 241.386719 61.160156 225.210938 85.367188 197.421875 102.570312 Z M 168.351562 53.527344 L 168.238281 53.34375 C 179.332031 46.472656 179.023438 44.175781 172.765625 34.074219 L 172.953125 33.957031 C 179.207031 44.0625 181.132812 45.359375 192.226562 38.492188 L 192.339844 38.679688 C 181.246094 45.546875 181.546875 47.839844 187.800781 57.945312 L 187.617188 58.058594 C 181.363281 47.957031 179.445312 46.660156 168.351562 53.527344 " fill-opacity="1" fill-rule="evenodd"/></g></g></g><g clip-path="url(#f2542dbe4e)"><g clip-path="url(#289a2aa9f6)"><g clip-path="url(#99e9df936b)"><path fill="#f2e3e6" d="M 86.453125 102.140625 C 84.753906 102.496094 82.074219 101.308594 81.183594 100.921875 L 81.066406 100.867188 C 77.269531 99.210938 71.558594 97.144531 63.09375 94.402344 C 62.476562 94.191406 61.820312 94.171875 61.191406 94.304688 C 60.566406 94.4375 59.980469 94.742188 59.472656 95.1875 C 53.914062 100.195312 50.171875 103.777344 47.640625 106.527344 L 47.558594 106.625 C 46.898438 107.339844 44.898438 109.507812 43.222656 109.859375 C 43.019531 109.902344 42.839844 109.914062 42.679688 109.894531 C 42.488281 109.859375 42.265625 109.800781 42.117188 109.699219 C 41.597656 109.339844 40.964844 108.191406 40.84375 104.769531 L 40.855469 104.6875 C 40.714844 100.667969 40.304688 94.484375 39.769531 86.839844 C 39.683594 85.679688 39.066406 84.609375 38.074219 83.980469 C 31.582031 79.804688 27 77.03125 23.628906 75.285156 L 23.515625 75.230469 C 20.027344 73.429688 19.183594 72.144531 19.074219 71.382812 C 19.046875 71.125 19.097656 70.878906 19.109375 70.800781 C 19.292969 70.1875 20.222656 69.261719 23.535156 68.25 L 23.613281 68.234375 C 27.585938 67.007812 33.722656 64.882812 40.753906 62.414062 C 41.898438 62.015625 42.796875 61.070312 43.101562 59.910156 C 45.179688 52.132812 46.476562 46.738281 47.136719 42.917969 L 47.167969 42.808594 C 47.839844 38.929688 48.816406 37.730469 49.507812 37.40625 C 49.601562 37.359375 49.726562 37.332031 49.824219 37.3125 C 49.875 37.300781 49.976562 37.28125 50.082031 37.285156 C 50.714844 37.308594 51.859375 37.902344 53.835938 40.726562 L 53.875 40.796875 C 56.199219 44.148438 60.058594 49.347656 64.464844 55.265625 C 65.226562 56.28125 66.46875 56.859375 67.726562 56.75 C 75.152344 56.15625 81.652344 55.628906 85.683594 55.175781 L 85.757812 55.160156 C 89.203125 54.773438 90.402344 55.253906 90.839844 55.710938 C 90.90625 55.777344 91.050781 55.980469 91.105469 56.230469 C 91.3125 56.972656 91.0625 58.511719 88.59375 61.566406 L 88.507812 61.660156 C 86.351562 64.335938 83.527344 68.296875 79.851562 73.796875 C 79.191406 74.773438 79.058594 76.003906 79.445312 77.097656 C 82.382812 85.230469 84.902344 92.253906 86.566406 96.449219 L 86.582031 96.523438 C 87.851562 99.707031 87.734375 101.011719 87.402344 101.550781 C 87.324219 101.671875 87.148438 101.839844 86.964844 101.957031 C 86.824219 102.035156 86.65625 102.097656 86.453125 102.140625 Z M 86.453125 102.140625 " fill-opacity="1" fill-rule="nonzero"/></g></g></g><g clip-path="url(#3b2c9e8b41)"><g clip-path="url(#d4abccb011)"><g clip-path="url(#c65805b378)"><path fill="#90d6f9" d="M 50.90625 42.960938 C 53.273438 46.382812 57.121094 51.53125 61.527344 57.453125 C 63.054688 59.507812 65.507812 60.613281 68.054688 60.417969 C 75.710938 59.804688 81.925781 59.308594 86.011719 58.839844 C 85.929688 58.960938 85.820312 59.0625 85.71875 59.191406 L 85.632812 59.285156 C 83.375 62.085938 80.566406 66.019531 76.769531 71.703125 C 75.457031 73.648438 75.164062 76.113281 75.96875 78.324219 C 78.875 86.4375 81.386719 93.433594 83.09375 97.699219 C 82.953125 97.652344 82.804688 97.578125 82.664062 97.527344 L 82.550781 97.476562 C 78.636719 95.761719 72.816406 93.667969 64.234375 90.871094 C 62.972656 90.457031 61.65625 90.417969 60.429688 90.675781 C 59.179688 90.941406 57.972656 91.53125 56.984375 92.417969 C 51.335938 97.5 47.511719 101.175781 44.914062 103.992188 L 44.832031 104.089844 C 44.726562 104.214844 44.617188 104.316406 44.507812 104.417969 C 44.359375 100.347656 43.949219 94.164062 43.421875 86.566406 C 43.269531 84.222656 42.015625 82.109375 40.054688 80.847656 C 33.464844 76.589844 28.773438 73.785156 25.289062 71.984375 L 25.171875 71.929688 C 25.027344 71.855469 24.90625 71.777344 24.765625 71.730469 C 28.78125 70.464844 34.921875 68.34375 41.933594 65.902344 C 44.246094 65.105469 45.992188 63.222656 46.648438 60.863281 C 48.8125 53.015625 50.140625 47.511719 50.824219 43.554688 L 50.851562 43.445312 C 50.839844 43.261719 50.859375 43.101562 50.90625 42.960938 M 49.085938 33.652344 C 48.734375 33.726562 48.339844 33.835938 47.933594 34.023438 C 44.585938 35.617188 43.773438 40.59375 43.5 42.269531 C 42.832031 46.171875 41.441406 51.742188 39.488281 58.867188 C 32.015625 61.480469 26.21875 63.480469 22.464844 64.636719 C 20.773438 65.171875 16.570312 66.421875 15.535156 69.589844 C 15.472656 69.785156 15.191406 70.683594 15.351562 71.824219 C 15.863281 75.503906 20.390625 77.769531 21.878906 78.527344 C 25.308594 80.289062 30.042969 83.1875 36.027344 87.050781 C 36.5625 94.828125 36.972656 100.878906 37.109375 104.769531 C 37.167969 106.535156 37.277344 110.925781 40.089844 112.738281 C 40.269531 112.859375 41.054688 113.347656 42.183594 113.5 C 42.800781 113.582031 43.390625 113.535156 43.96875 113.414062 C 46.894531 112.800781 49.414062 109.996094 50.371094 108.960938 C 52.921875 106.175781 56.824219 102.484375 61.9375 97.859375 C 69.734375 100.402344 75.6875 102.496094 79.574219 104.210938 C 80.871094 104.777344 84.277344 106.332031 87.207031 105.71875 C 87.78125 105.597656 88.367188 105.398438 88.898438 105.074219 C 89.871094 104.480469 90.390625 103.71875 90.511719 103.535156 C 92.328125 100.75 90.664062 96.683594 90.027344 95.015625 C 88.425781 90.988281 86.042969 84.382812 82.957031 75.785156 C 86.394531 70.621094 89.214844 66.632812 91.414062 63.925781 C 92.46875 62.605469 95.699219 58.714844 94.695312 55.164062 C 94.382812 54.054688 93.765625 53.347656 93.628906 53.191406 C 91.40625 50.707031 87.050781 51.230469 85.292969 51.441406 C 81.390625 51.894531 75.300781 52.390625 67.464844 53.015625 C 62.777344 46.738281 59.167969 41.855469 56.949219 38.636719 C 55.9375 37.175781 53.480469 33.566406 50.132812 33.539062 C 49.976562 33.542969 49.585938 33.546875 49.085938 33.652344 Z M 49.085938 33.652344 " fill-opacity="1" fill-rule="nonzero"/></g></g></g><g clip-path="url(#3d39b6d45e)"><g clip-path="url(#7db318c14e)"><g clip-path="url(#529990b560)"><path fill="#bbdefb" d="M 49.085938 33.652344 C 49.609375 33.542969 50 33.539062 50.132812 33.539062 C 53.480469 33.566406 55.941406 37.203125 56.949219 38.636719 C 59.167969 41.855469 62.804688 46.734375 67.460938 52.992188 C 75.296875 52.367188 81.386719 51.871094 85.292969 51.441406 C 87.050781 51.230469 91.40625 50.707031 93.628906 53.191406 C 93.765625 53.347656 94.382812 54.054688 94.695312 55.164062 C 95.707031 58.738281 92.472656 62.628906 91.414062 63.925781 C 89.214844 66.632812 86.398438 70.648438 82.957031 75.785156 C 86.042969 84.382812 88.425781 90.988281 90.027344 95.015625 C 90.683594 96.65625 92.347656 100.71875 90.511719 103.535156 C 90.390625 103.71875 89.871094 104.480469 88.898438 105.074219 C 88.367188 105.398438 87.808594 105.59375 87.207031 105.71875 C 84.277344 106.332031 80.84375 104.78125 79.574219 104.210938 C 75.6875 102.496094 69.734375 100.402344 61.9375 97.859375 C 56.820312 102.460938 52.921875 106.175781 50.371094 108.960938 C 49.414062 109.996094 46.917969 112.792969 43.96875 113.414062 C 43.390625 113.535156 42.773438 113.585938 42.183594 113.5 C 41.054688 113.347656 40.265625 112.832031 40.089844 112.738281 C 37.304688 110.921875 37.191406 106.527344 37.109375 104.769531 C 36.972656 100.878906 36.5625 94.828125 36.027344 87.050781 C 30.042969 83.1875 25.3125 80.3125 21.878906 78.527344 C 20.382812 77.742188 15.859375 75.480469 15.351562 71.824219 C 15.191406 70.683594 15.472656 69.785156 15.535156 69.589844 C 16.570312 66.421875 20.769531 65.148438 22.464844 64.636719 C 26.214844 63.457031 32.011719 61.457031 39.488281 58.867188 C 41.441406 51.742188 42.832031 46.171875 43.5 42.269531 C 43.773438 40.59375 44.585938 35.617188 47.933594 34.023438 C 48.339844 33.835938 48.734375 33.726562 49.085938 33.652344 M 48.296875 29.898438 C 47.59375 30.046875 46.933594 30.265625 46.316406 30.550781 C 41.230469 32.949219 40.125 39.375 39.757812 41.488281 L 39.726562 41.601562 C 39.175781 44.824219 38.042969 49.503906 36.332031 55.898438 C 30.167969 58.027344 24.835938 59.878906 21.324219 60.957031 L 21.25 60.972656 C 19.140625 61.625 13.527344 63.378906 11.890625 68.398438 C 11.644531 69.101562 11.300781 70.558594 11.542969 72.335938 C 12.292969 77.902344 18.09375 80.886719 19.996094 81.875 L 20.113281 81.925781 C 22.957031 83.394531 26.960938 85.792969 32.328125 89.210938 C 32.792969 95.90625 33.140625 101.292969 33.265625 104.871094 L 33.253906 104.953125 C 33.328125 107.15625 33.542969 113.042969 37.964844 115.929688 C 37.964844 115.929688 37.992188 115.949219 37.992188 115.949219 C 39.109375 116.65625 40.355469 117.125 41.671875 117.292969 C 42.691406 117.417969 43.730469 117.382812 44.753906 117.167969 C 48.808594 116.316406 51.804688 113.046875 53.105469 111.652344 L 53.191406 111.554688 C 55.273438 109.289062 58.445312 106.21875 62.878906 102.207031 C 69.949219 104.535156 74.816406 106.308594 78.0625 107.714844 L 78.179688 107.769531 C 79.90625 108.53125 83.992188 110.3125 88.042969 109.460938 C 89.09375 109.242188 90.058594 108.855469 90.917969 108.335938 C 92.332031 107.488281 93.226562 106.386719 93.742188 105.625 C 93.742188 105.625 93.765625 105.59375 93.765625 105.59375 C 96.648438 101.175781 94.457031 95.707031 93.660156 93.652344 L 93.617188 93.582031 C 92.125 89.820312 89.871094 83.582031 87.246094 76.292969 C 90.277344 71.816406 92.617188 68.53125 94.421875 66.296875 L 94.503906 66.203125 C 95.167969 65.382812 96.367188 63.878906 97.347656 61.945312 C 98.742188 59.144531 99.097656 56.484375 98.402344 54.042969 C 97.910156 52.320312 97.011719 51.148438 96.5 50.578125 C 92.984375 46.640625 87.136719 47.292969 84.945312 47.542969 L 84.867188 47.5625 C 81.324219 47.964844 75.75 48.429688 69.277344 48.953125 C 65.425781 43.804688 62.136719 39.324219 60.105469 36.378906 L 60.066406 36.3125 C 58.792969 34.488281 55.453125 29.652344 50.167969 29.609375 C 50.167969 29.609375 50.144531 29.617188 50.144531 29.617188 C 49.507812 29.699219 48.894531 29.773438 48.296875 29.898438 Z M 48.296875 29.898438 " fill-opacity="1" fill-rule="nonzero"/></g></g></g><g clip-path="url(#04ad5cd882)"><g clip-path="url(#c9bc6d133d)"><g clip-path="url(#aaf0a755d1)"><path fill="#536dfe" d="M 87.742188 108.402344 C 84.066406 109.171875 80.238281 107.496094 78.597656 106.769531 L 78.480469 106.714844 C 75.113281 105.226562 70.023438 103.394531 62.558594 100.941406 C 57.867188 105.21875 54.5 108.460938 52.332031 110.820312 L 52.246094 110.917969 C 50.757812 112.535156 46.777344 116.847656 41.808594 116.191406 C 40.675781 116.039062 39.574219 115.640625 38.613281 115.035156 C 38.613281 115.035156 38.613281 115.035156 38.582031 115.015625 C 34.671875 112.441406 34.46875 106.996094 34.402344 104.945312 L 34.414062 104.867188 C 34.292969 101.179688 33.917969 95.539062 33.449219 88.582031 C 27.804688 84.960938 23.59375 82.449219 20.660156 80.925781 L 20.542969 80.871094 C 18.578125 79.847656 13.367188 77.179688 12.714844 72.195312 C 12.492188 70.648438 12.800781 69.382812 13.011719 68.761719 C 14.453125 64.304688 19.652344 62.691406 21.617188 62.097656 L 21.691406 62.082031 C 25.324219 60.953125 30.875 59.027344 37.300781 56.792969 C 39.128906 50.058594 40.320312 45.160156 40.894531 41.800781 L 40.921875 41.6875 C 41.304688 39.519531 42.28125 33.722656 46.847656 31.589844 C 47.871094 31.113281 49.042969 30.839844 50.164062 30.839844 C 54.875 30.871094 57.980469 35.335938 59.144531 37.027344 L 59.1875 37.097656 C 61.316406 40.148438 64.75 44.808594 68.757812 50.210938 C 75.515625 49.679688 81.34375 49.1875 85.019531 48.78125 L 85.097656 48.765625 C 87.140625 48.546875 92.550781 47.933594 95.65625 51.410156 C 96.070312 51.894531 96.859375 52.90625 97.304688 54.40625 C 98.683594 59.238281 94.992188 63.800781 93.625 65.496094 L 93.539062 65.59375 C 91.652344 67.921875 89.167969 71.398438 85.984375 76.140625 C 88.691406 83.671875 91.011719 90.132812 92.558594 94.015625 L 92.601562 94.085938 C 93.367188 95.988281 95.371094 101.050781 92.824219 104.984375 C 92.824219 104.984375 92.824219 104.984375 92.804688 105.011719 C 92.371094 105.679688 91.578125 106.628906 90.347656 107.359375 C 89.46875 107.910156 88.621094 108.21875 87.742188 108.402344 Z M 61.375 95.285156 C 61.824219 95.191406 62.300781 95.222656 62.746094 95.363281 C 71.1875 98.109375 76.867188 100.15625 80.636719 101.796875 L 80.75 101.847656 C 85.585938 103.96875 87.019531 103.09375 87.484375 102.8125 C 87.902344 102.566406 88.144531 102.230469 88.246094 102.078125 C 89.265625 100.480469 88.003906 97.320312 87.539062 96.113281 L 87.5 96.042969 C 85.839844 91.871094 83.320312 84.851562 80.390625 76.742188 C 80.089844 75.941406 80.21875 75.054688 80.671875 74.355469 C 84.332031 68.886719 87.132812 64.929688 89.265625 62.285156 L 89.351562 62.1875 C 92.671875 58.097656 92.199219 56.472656 92.0625 55.949219 C 91.898438 55.410156 91.589844 55.058594 91.585938 55.03125 C 90.316406 53.601562 86.902344 54.003906 85.625 54.140625 L 85.546875 54.15625 C 81.515625 54.613281 75.328125 55.128906 67.644531 55.722656 C 66.714844 55.789062 65.824219 55.398438 65.277344 54.652344 C 60.871094 48.734375 57.015625 43.558594 54.691406 40.207031 L 54.652344 40.136719 C 53.910156 39.09375 51.957031 36.261719 50.070312 36.242188 C 49.964844 36.238281 49.523438 36.25 49.050781 36.480469 C 47.027344 37.429688 46.363281 41.355469 46.136719 42.632812 L 46.105469 42.742188 C 45.441406 46.539062 44.164062 51.902344 42.042969 59.585938 C 41.804688 60.445312 41.164062 61.125 40.335938 61.40625 C 33.296875 63.851562 27.160156 65.972656 23.210938 67.195312 L 23.136719 67.210938 C 21.910156 67.597656 18.621094 68.605469 18.039062 70.425781 C 18.015625 70.453125 17.875 70.902344 17.96875 71.457031 C 18.273438 73.667969 21.792969 75.488281 22.960938 76.078125 L 23.074219 76.132812 C 26.417969 77.859375 30.992188 80.609375 37.453125 84.765625 C 38.175781 85.214844 38.625 85.980469 38.671875 86.832031 C 39.207031 94.480469 39.613281 100.640625 39.746094 104.632812 L 39.761719 104.710938 C 39.800781 106.007812 39.9375 109.402344 41.515625 110.453125 C 41.8125 110.625 42.15625 110.761719 42.507812 110.820312 C 44.710938 111.113281 47.390625 108.203125 48.285156 107.230469 L 48.371094 107.132812 C 50.855469 104.417969 54.597656 100.835938 60.136719 95.859375 C 60.5 95.601562 60.921875 95.378906 61.375 95.285156 Z M 91.394531 63.953125 Z M 91.394531 63.953125 " fill-opacity="1" fill-rule="nonzero"/></g></g></g><g clip-path="url(#2abb4b589f)"><g clip-path="url(#77673be45d)"><g clip-path="url(#9289cca270)"><path fill="#f2e3e6" d="M 86.453125 102.140625 C 84.753906 102.496094 82.074219 101.308594 81.183594 100.921875 L 81.066406 100.867188 C 77.269531 99.210938 71.558594 97.144531 63.09375 94.402344 C 62.476562 94.191406 61.820312 94.171875 61.191406 94.304688 C 60.566406 94.4375 59.980469 94.742188 59.472656 95.1875 C 53.914062 100.195312 50.171875 103.777344 47.640625 106.527344 L 47.558594 106.625 C 46.898438 107.339844 44.898438 109.507812 43.222656 109.859375 C 43.019531 109.902344 42.839844 109.914062 42.679688 109.894531 C 42.488281 109.859375 42.265625 109.800781 42.117188 109.699219 C 41.597656 109.339844 40.964844 108.191406 40.84375 104.769531 L 40.855469 104.6875 C 40.714844 100.667969 40.304688 94.484375 39.769531 86.839844 C 39.683594 85.679688 39.066406 84.609375 38.074219 83.980469 C 31.582031 79.804688 27 77.03125 23.628906 75.285156 L 23.515625 75.230469 C 20.027344 73.429688 19.183594 72.144531 19.074219 71.382812 C 19.046875 71.125 19.097656 70.878906 19.109375 70.800781 C 19.292969 70.1875 20.222656 69.261719 23.535156 68.25 L 23.613281 68.234375 C 27.585938 67.007812 33.722656 64.882812 40.753906 62.414062 C 41.898438 62.015625 42.796875 61.070312 43.101562 59.910156 C 45.179688 52.132812 46.476562 46.738281 47.136719 42.917969 L 47.167969 42.808594 C 47.839844 38.929688 48.816406 37.730469 49.507812 37.40625 C 49.601562 37.359375 49.726562 37.332031 49.824219 37.3125 C 49.875 37.300781 49.976562 37.28125 50.082031 37.285156 C 50.714844 37.308594 51.859375 37.902344 53.835938 40.726562 L 53.875 40.796875 C 56.199219 44.148438 60.058594 49.347656 64.464844 55.265625 C 65.226562 56.28125 66.46875 56.859375 67.726562 56.75 C 75.152344 56.15625 81.652344 55.628906 85.683594 55.175781 L 85.757812 55.160156 C 89.203125 54.773438 90.402344 55.253906 90.839844 55.710938 C 90.90625 55.777344 91.050781 55.980469 91.105469 56.230469 C 91.3125 56.972656 91.0625 58.511719 88.59375 61.566406 L 88.507812 61.660156 C 86.351562 64.335938 83.527344 68.296875 79.851562 73.796875 C 79.191406 74.773438 79.058594 76.003906 79.445312 77.097656 C 82.382812 85.230469 84.902344 92.253906 86.566406 96.449219 L 86.582031 96.523438 C 87.851562 99.707031 87.734375 101.011719 87.402344 101.550781 C 87.324219 101.671875 87.148438 101.839844 86.964844 101.957031 C 86.824219 102.035156 86.65625 102.097656 86.453125 102.140625 Z M 86.453125 102.140625 " fill-opacity="1" fill-rule="nonzero"/></g></g></g><g clip-path="url(#c3b50b0baf)"><g clip-path="url(#7def2cc36c)"><g clip-path="url(#b9c19fd983)"><path fill="#90d6f9" d="M 50.90625 42.960938 C 53.273438 46.382812 57.121094 51.53125 61.527344 57.453125 C 63.054688 59.507812 65.507812 60.613281 68.054688 60.417969 C 75.710938 59.804688 81.925781 59.308594 86.011719 58.839844 C 85.929688 58.960938 85.820312 59.0625 85.71875 59.191406 L 85.632812 59.285156 C 83.375 62.085938 80.566406 66.019531 76.769531 71.703125 C 75.457031 73.648438 75.164062 76.113281 75.96875 78.324219 C 78.875 86.4375 81.386719 93.433594 83.09375 97.699219 C 82.953125 97.652344 82.804688 97.578125 82.664062 97.527344 L 82.550781 97.476562 C 78.636719 95.761719 72.816406 93.667969 64.234375 90.871094 C 62.972656 90.457031 61.65625 90.417969 60.429688 90.675781 C 59.179688 90.941406 57.972656 91.53125 56.984375 92.417969 C 51.335938 97.5 47.511719 101.175781 44.914062 103.992188 L 44.832031 104.089844 C 44.726562 104.214844 44.617188 104.316406 44.507812 104.417969 C 44.359375 100.347656 43.949219 94.164062 43.421875 86.566406 C 43.269531 84.222656 42.015625 82.109375 40.054688 80.847656 C 33.464844 76.589844 28.773438 73.785156 25.289062 71.984375 L 25.171875 71.929688 C 25.027344 71.855469 24.90625 71.777344 24.765625 71.730469 C 28.78125 70.464844 34.921875 68.34375 41.933594 65.902344 C 44.246094 65.105469 45.992188 63.222656 46.648438 60.863281 C 48.8125 53.015625 50.140625 47.511719 50.824219 43.554688 L 50.851562 43.445312 C 50.839844 43.261719 50.859375 43.101562 50.90625 42.960938 M 49.085938 33.652344 C 48.734375 33.726562 48.339844 33.835938 47.933594 34.023438 C 44.585938 35.617188 43.773438 40.59375 43.5 42.269531 C 42.832031 46.171875 41.441406 51.742188 39.488281 58.867188 C 32.015625 61.480469 26.21875 63.480469 22.464844 64.636719 C 20.773438 65.171875 16.570312 66.421875 15.535156 69.589844 C 15.472656 69.785156 15.191406 70.683594 15.351562 71.824219 C 15.863281 75.503906 20.390625 77.769531 21.878906 78.527344 C 25.308594 80.289062 30.042969 83.1875 36.027344 87.050781 C 36.5625 94.828125 36.972656 100.878906 37.109375 104.769531 C 37.167969 106.535156 37.277344 110.925781 40.089844 112.738281 C 40.269531 112.859375 41.054688 113.347656 42.183594 113.5 C 42.800781 113.582031 43.390625 113.535156 43.96875 113.414062 C 46.894531 112.800781 49.414062 109.996094 50.371094 108.960938 C 52.921875 106.175781 56.824219 102.484375 61.9375 97.859375 C 69.734375 100.402344 75.6875 102.496094 79.574219 104.210938 C 80.871094 104.777344 84.277344 106.332031 87.207031 105.71875 C 87.78125 105.597656 88.367188 105.398438 88.898438 105.074219 C 89.871094 104.480469 90.390625 103.71875 90.511719 103.535156 C 92.328125 100.75 90.664062 96.683594 90.027344 95.015625 C 88.425781 90.988281 86.042969 84.382812 82.957031 75.785156 C 86.394531 70.621094 89.214844 66.632812 91.414062 63.925781 C 92.46875 62.605469 95.699219 58.714844 94.695312 55.164062 C 94.382812 54.054688 93.765625 53.347656 93.628906 53.191406 C 91.40625 50.707031 87.050781 51.230469 85.292969 51.441406 C 81.390625 51.894531 75.300781 52.390625 67.464844 53.015625 C 62.777344 46.738281 59.167969 41.855469 56.949219 38.636719 C 55.9375 37.175781 53.480469 33.566406 50.132812 33.539062 C 49.976562 33.542969 49.585938 33.546875 49.085938 33.652344 Z M 49.085938 33.652344 " fill-opacity="1" fill-rule="nonzero"/></g></g></g><g clip-path="url(#1b568aa202)"><g clip-path="url(#ecb26eb70d)"><g clip-path="url(#a57cb23a9b)"><path fill="#bbdefb" d="M 49.085938 33.652344 C 49.609375 33.542969 50 33.539062 50.132812 33.539062 C 53.480469 33.566406 55.941406 37.203125 56.949219 38.636719 C 59.167969 41.855469 62.804688 46.734375 67.460938 52.992188 C 75.296875 52.367188 81.386719 51.871094 85.292969 51.441406 C 87.050781 51.230469 91.40625 50.707031 93.628906 53.191406 C 93.765625 53.347656 94.382812 54.054688 94.695312 55.164062 C 95.707031 58.738281 92.472656 62.628906 91.414062 63.925781 C 89.214844 66.632812 86.398438 70.648438 82.957031 75.785156 C 86.042969 84.382812 88.425781 90.988281 90.027344 95.015625 C 90.683594 96.65625 92.347656 100.71875 90.511719 103.535156 C 90.390625 103.71875 89.871094 104.480469 88.898438 105.074219 C 88.367188 105.398438 87.808594 105.59375 87.207031 105.71875 C 84.277344 106.332031 80.84375 104.78125 79.574219 104.210938 C 75.6875 102.496094 69.734375 100.402344 61.9375 97.859375 C 56.820312 102.460938 52.921875 106.175781 50.371094 108.960938 C 49.414062 109.996094 46.917969 112.792969 43.96875 113.414062 C 43.390625 113.535156 42.773438 113.585938 42.183594 113.5 C 41.054688 113.347656 40.265625 112.832031 40.089844 112.738281 C 37.304688 110.921875 37.191406 106.527344 37.109375 104.769531 C 36.972656 100.878906 36.5625 94.828125 36.027344 87.050781 C 30.042969 83.1875 25.3125 80.3125 21.878906 78.527344 C 20.382812 77.742188 15.859375 75.480469 15.351562 71.824219 C 15.191406 70.683594 15.472656 69.785156 15.535156 69.589844 C 16.570312 66.421875 20.769531 65.148438 22.464844 64.636719 C 26.214844 63.457031 32.011719 61.457031 39.488281 58.867188 C 41.441406 51.742188 42.832031 46.171875 43.5 42.269531 C 43.773438 40.59375 44.585938 35.617188 47.933594 34.023438 C 48.339844 33.835938 48.734375 33.726562 49.085938 33.652344 M 48.296875 29.898438 C 47.59375 30.046875 46.933594 30.265625 46.316406 30.550781 C 41.230469 32.949219 40.125 39.375 39.757812 41.488281 L 39.726562 41.601562 C 39.175781 44.824219 38.042969 49.503906 36.332031 55.898438 C 30.167969 58.027344 24.835938 59.878906 21.324219 60.957031 L 21.25 60.972656 C 19.140625 61.625 13.527344 63.378906 11.890625 68.398438 C 11.644531 69.101562 11.300781 70.558594 11.542969 72.335938 C 12.292969 77.902344 18.09375 80.886719 19.996094 81.875 L 20.113281 81.925781 C 22.957031 83.394531 26.960938 85.792969 32.328125 89.210938 C 32.792969 95.90625 33.140625 101.292969 33.265625 104.871094 L 33.253906 104.953125 C 33.328125 107.15625 33.542969 113.042969 37.964844 115.929688 C 37.964844 115.929688 37.992188 115.949219 37.992188 115.949219 C 39.109375 116.65625 40.355469 117.125 41.671875 117.292969 C 42.691406 117.417969 43.730469 117.382812 44.753906 117.167969 C 48.808594 116.316406 51.804688 113.046875 53.105469 111.652344 L 53.191406 111.554688 C 55.273438 109.289062 58.445312 106.21875 62.878906 102.207031 C 69.949219 104.535156 74.816406 106.308594 78.0625 107.714844 L 78.179688 107.769531 C 79.90625 108.53125 83.992188 110.3125 88.042969 109.460938 C 89.09375 109.242188 90.058594 108.855469 90.917969 108.335938 C 92.332031 107.488281 93.226562 106.386719 93.742188 105.625 C 93.742188 105.625 93.765625 105.59375 93.765625 105.59375 C 96.648438 101.175781 94.457031 95.707031 93.660156 93.652344 L 93.617188 93.582031 C 92.125 89.820312 89.871094 83.582031 87.246094 76.292969 C 90.277344 71.816406 92.617188 68.53125 94.421875 66.296875 L 94.503906 66.203125 C 95.167969 65.382812 96.367188 63.878906 97.347656 61.945312 C 98.742188 59.144531 99.097656 56.484375 98.402344 54.042969 C 97.910156 52.320312 97.011719 51.148438 96.5 50.578125 C 92.984375 46.640625 87.136719 47.292969 84.945312 47.542969 L 84.867188 47.5625 C 81.324219 47.964844 75.75 48.429688 69.277344 48.953125 C 65.425781 43.804688 62.136719 39.324219 60.105469 36.378906 L 60.066406 36.3125 C 58.792969 34.488281 55.453125 29.652344 50.167969 29.609375 C 50.167969 29.609375 50.144531 29.617188 50.144531 29.617188 C 49.507812 29.699219 48.894531 29.773438 48.296875 29.898438 Z M 48.296875 29.898438 " fill-opacity="1" fill-rule="nonzero"/></g></g></g><g clip-path="url(#e48b8ea772)"><g clip-path="url(#1d11d942ce)"><g clip-path="url(#e4f5d30130)"><path fill="#536dfe" d="M 87.742188 108.402344 C 84.066406 109.171875 80.238281 107.496094 78.597656 106.769531 L 78.480469 106.714844 C 75.113281 105.226562 70.023438 103.394531 62.558594 100.941406 C 57.867188 105.21875 54.5 108.460938 52.332031 110.820312 L 52.246094 110.917969 C 50.757812 112.535156 46.777344 116.847656 41.808594 116.191406 C 40.675781 116.039062 39.574219 115.640625 38.613281 115.035156 C 38.613281 115.035156 38.613281 115.035156 38.582031 115.015625 C 34.671875 112.441406 34.46875 106.996094 34.402344 104.945312 L 34.414062 104.867188 C 34.292969 101.179688 33.917969 95.539062 33.449219 88.582031 C 27.804688 84.960938 23.59375 82.449219 20.660156 80.925781 L 20.542969 80.871094 C 18.578125 79.847656 13.367188 77.179688 12.714844 72.195312 C 12.492188 70.648438 12.800781 69.382812 13.011719 68.761719 C 14.453125 64.304688 19.652344 62.691406 21.617188 62.097656 L 21.691406 62.082031 C 25.324219 60.953125 30.875 59.027344 37.300781 56.792969 C 39.128906 50.058594 40.320312 45.160156 40.894531 41.800781 L 40.921875 41.6875 C 41.304688 39.519531 42.28125 33.722656 46.847656 31.589844 C 47.871094 31.113281 49.042969 30.839844 50.164062 30.839844 C 54.875 30.871094 57.980469 35.335938 59.144531 37.027344 L 59.1875 37.097656 C 61.316406 40.148438 64.75 44.808594 68.757812 50.210938 C 75.515625 49.679688 81.34375 49.1875 85.019531 48.78125 L 85.097656 48.765625 C 87.140625 48.546875 92.550781 47.933594 95.65625 51.410156 C 96.070312 51.894531 96.859375 52.90625 97.304688 54.40625 C 98.683594 59.238281 94.992188 63.800781 93.625 65.496094 L 93.539062 65.59375 C 91.652344 67.921875 89.167969 71.398438 85.984375 76.140625 C 88.691406 83.671875 91.011719 90.132812 92.558594 94.015625 L 92.601562 94.085938 C 93.367188 95.988281 95.371094 101.050781 92.824219 104.984375 C 92.824219 104.984375 92.824219 104.984375 92.804688 105.011719 C 92.371094 105.679688 91.578125 106.628906 90.347656 107.359375 C 89.46875 107.910156 88.621094 108.21875 87.742188 108.402344 Z M 61.375 95.285156 C 61.824219 95.191406 62.300781 95.222656 62.746094 95.363281 C 71.1875 98.109375 76.867188 100.15625 80.636719 101.796875 L 80.75 101.847656 C 85.585938 103.96875 87.019531 103.09375 87.484375 102.8125 C 87.902344 102.566406 88.144531 102.230469 88.246094 102.078125 C 89.265625 100.480469 88.003906 97.320312 87.539062 96.113281 L 87.5 96.042969 C 85.839844 91.871094 83.320312 84.851562 80.390625 76.742188 C 80.089844 75.941406 80.21875 75.054688 80.671875 74.355469 C 84.332031 68.886719 87.132812 64.929688 89.265625 62.285156 L 89.351562 62.1875 C 92.671875 58.097656 92.199219 56.472656 92.0625 55.949219 C 91.898438 55.410156 91.589844 55.058594 91.585938 55.03125 C 90.316406 53.601562 86.902344 54.003906 85.625 54.140625 L 85.546875 54.15625 C 81.515625 54.613281 75.328125 55.128906 67.644531 55.722656 C 66.714844 55.789062 65.824219 55.398438 65.277344 54.652344 C 60.871094 48.734375 57.015625 43.558594 54.691406 40.207031 L 54.652344 40.136719 C 53.910156 39.09375 51.957031 36.261719 50.070312 36.242188 C 49.964844 36.238281 49.523438 36.25 49.050781 36.480469 C 47.027344 37.429688 46.363281 41.355469 46.136719 42.632812 L 46.105469 42.742188 C 45.441406 46.539062 44.164062 51.902344 42.042969 59.585938 C 41.804688 60.445312 41.164062 61.125 40.335938 61.40625 C 33.296875 63.851562 27.160156 65.972656 23.210938 67.195312 L 23.136719 67.210938 C 21.910156 67.597656 18.621094 68.605469 18.039062 70.425781 C 18.015625 70.453125 17.875 70.902344 17.96875 71.457031 C 18.273438 73.667969 21.792969 75.488281 22.960938 76.078125 L 23.074219 76.132812 C 26.417969 77.859375 30.992188 80.609375 37.453125 84.765625 C 38.175781 85.214844 38.625 85.980469 38.671875 86.832031 C 39.207031 94.480469 39.613281 100.640625 39.746094 104.632812 L 39.761719 104.710938 C 39.800781 106.007812 39.9375 109.402344 41.515625 110.453125 C 41.8125 110.625 42.15625 110.761719 42.507812 110.820312 C 44.710938 111.113281 47.390625 108.203125 48.285156 107.230469 L 48.371094 107.132812 C 50.855469 104.417969 54.597656 100.835938 60.136719 95.859375 C 60.5 95.601562 60.921875 95.378906 61.375 95.285156 Z M 91.394531 63.953125 Z M 91.394531 63.953125 " fill-opacity="1" fill-rule="nonzero"/></g></g></g><path stroke-linecap="butt" transform="matrix(0.412733, 0, 0, 0.412733, 46.40381, 57.846627)" fill="none" stroke-linejoin="miter" d="M 8.154722 70.000867 L 24.386092 70.000867 C 25.29467 70.000867 26.013961 69.281576 26.013961 68.372998 L 26.013961 59.239895 C 26.013961 58.331317 26.723788 57.62149 27.651295 57.62149 C 28.559873 57.62149 29.2697 58.397567 29.2697 59.306145 L 29.2697 68.372998 C 29.2697 69.281576 30.055241 70.000867 30.963819 70.000867 L 47.195189 70.000867 C 48.122696 70.000867 48.832523 69.281576 48.832523 68.372998 L 48.832523 31.149687 C 48.832523 23.445702 43.229624 17.842803 35.525639 17.842803 L 19.758022 17.842803 C 12.072966 17.842803 6.451138 23.445702 6.451138 31.149687 L 6.451138 68.372998 C 6.451138 69.281576 7.246144 70.000867 8.154722 70.000867 Z M 27.651295 41.97691 C 26.723788 41.97691 26.013961 41.257619 26.013961 40.330112 L 26.013961 35.124717 C 26.013961 34.206674 26.723788 33.487383 27.651295 33.487383 C 28.559873 33.487383 29.2697 34.206674 29.2697 35.124717 L 29.2697 40.330112 C 29.2697 41.257619 28.559873 41.97691 27.651295 41.97691 Z M 53.782381 70.000867 L 102.675242 70.000867 C 103.58382 70.000867 104.303111 69.281576 104.303111 68.372998 L 104.303111 55.974692 C 104.303111 55.075578 103.51757 54.356287 102.618456 54.356287 L 73.278954 54.356287 C 72.360911 54.356287 71.64162 53.636996 71.64162 52.728418 C 71.64162 51.810376 72.360911 51.091085 73.278954 51.091085 L 100.072544 51.091085 C 100.971658 51.091085 101.690949 50.371794 101.690949 49.47268 L 101.690949 38.380455 C 101.690949 37.471877 100.914872 36.752586 100.006294 36.752586 L 73.278954 36.752586 C 72.360911 36.752586 71.64162 36.033295 71.64162 35.124717 C 71.64162 34.206674 72.360911 33.487383 73.278954 33.487383 L 102.675242 33.487383 C 103.58382 33.487383 104.303111 32.777556 104.303111 31.868978 L 104.303111 19.480137 C 104.303111 18.562094 103.58382 17.842803 102.675242 17.842803 L 53.725595 17.842803 C 52.798088 17.842803 52.078797 18.562094 52.078797 19.480137 L 52.078797 68.372998 C 52.078797 69.281576 52.873803 70.000867 53.782381 70.000867 Z M 109.196183 70.000867 L 146.419494 70.000867 C 154.114015 70.000867 159.716914 64.397969 159.716914 56.693983 L 159.716914 49.406429 C 159.716914 41.702444 154.114015 36.099545 146.419494 36.099545 L 128.759006 36.099545 C 127.831499 36.099545 127.121673 35.380254 127.121673 34.48114 C 127.121673 33.553634 127.831499 32.834343 128.759006 32.834343 L 158.089044 32.834343 C 158.997623 32.834343 159.716914 32.124516 159.716914 31.215938 L 159.716914 19.480137 C 159.716914 18.562094 158.997623 17.842803 158.089044 17.842803 L 120.865734 17.842803 C 113.171213 17.842803 107.55885 23.445702 107.55885 31.149687 L 107.55885 38.45617 C 107.55885 46.141227 113.171213 51.744125 120.865734 51.744125 L 138.526221 51.744125 C 139.434799 51.744125 140.15409 52.463416 140.15409 53.381459 C 140.15409 54.290037 139.434799 55.009328 138.526221 55.009328 L 109.196183 55.009328 C 108.278141 55.009328 107.55885 55.719154 107.55885 56.627733 L 107.55885 68.372998 C 107.55885 69.281576 108.278141 70.000867 109.196183 70.000867 Z M 174.509701 70.000867 L 190.741071 70.000867 C 191.659114 70.000867 192.378405 69.22479 192.378405 68.316212 L 192.378405 37.083838 C 192.378405 36.165796 193.154482 35.446505 194.06306 35.446505 L 200.593466 35.446505 C 201.502044 35.446505 202.21187 34.727214 202.21187 33.8281 L 202.21187 19.480137 C 202.21187 18.628345 201.502044 17.842803 200.593466 17.842803 L 164.609985 17.776553 C 163.682479 17.776553 162.963188 18.495844 162.963188 19.423351 L 162.963188 33.8281 C 162.963188 34.727214 163.682479 35.446505 164.609985 35.446505 L 171.111998 35.446505 C 172.039505 35.446505 172.815582 36.165796 172.815582 37.083838 L 172.815582 68.372998 C 172.815582 69.281576 173.601123 70.000867 174.509701 70.000867 Z M 207.171193 70.000867 L 223.402563 70.000867 C 224.311141 70.000867 225.030432 69.281576 225.030432 68.372998 L 225.030432 54.025035 C 225.030432 53.116457 225.749723 52.397166 226.667765 52.397166 C 227.576344 52.397166 228.295635 53.173243 228.295635 54.10075 L 228.295635 68.372998 C 228.295635 69.281576 229.071712 70.000867 229.98029 70.000867 L 246.21166 70.000867 C 247.139167 70.000867 247.848993 69.281576 247.848993 68.372998 L 247.848993 19.480137 C 247.848993 18.562094 247.072916 17.842803 246.145409 17.842803 L 229.914039 17.842803 C 229.005461 17.842803 228.295635 18.562094 228.295635 19.480137 L 228.295635 33.8281 C 228.295635 34.727214 227.576344 35.446505 226.667765 35.446505 C 225.749723 35.446505 225.030432 34.727214 225.030432 33.8281 L 225.030432 19.480137 C 225.030432 18.562094 224.24489 17.842803 223.345777 17.842803 L 207.104942 17.842803 C 206.1869 17.842803 205.467609 18.562094 205.467609 19.480137 L 205.467609 68.372998 C 205.467609 69.281576 206.262615 70.000867 207.171193 70.000867 Z M 252.798851 70.000867 L 301.691713 70.000867 C 302.600291 70.000867 303.319582 69.281576 303.319582 68.372998 L 303.319582 55.974692 C 303.319582 55.075578 302.543505 54.356287 301.634926 54.356287 L 272.295424 54.356287 C 271.377381 54.356287 270.65809 53.636996 270.65809 52.728418 C 270.65809 51.810376 271.377381 51.091085 272.295424 51.091085 L 299.089015 51.091085 C 299.988129 51.091085 300.70742 50.371794 300.70742 49.47268 L 300.70742 38.380455 C 300.70742 37.471877 299.931342 36.752586 299.022764 36.752586 L 272.295424 36.752586 C 271.377381 36.752586 270.65809 36.033295 270.65809 35.124717 C 270.65809 34.206674 271.377381 33.487383 272.295424 33.487383 L 301.691713 33.487383 C 302.600291 33.487383 303.319582 32.777556 303.319582 31.868978 L 303.319582 19.480137 C 303.319582 18.562094 302.600291 17.842803 301.691713 17.842803 L 252.742065 17.842803 C 251.814558 17.842803 251.104732 18.562094 251.104732 19.480137 L 251.104732 68.372998 C 251.104732 69.281576 251.899738 70.000867 252.798851 70.000867 Z M 318.11237 70.000867 L 334.34374 70.000867 C 335.271246 70.000867 335.990537 69.22479 335.990537 68.316212 L 335.990537 37.083838 C 335.990537 36.165796 336.766615 35.446505 337.675193 35.446505 L 344.196134 35.446505 C 345.104712 35.446505 345.824003 34.727214 345.824003 33.8281 L 345.824003 19.480137 C 345.824003 18.628345 345.104712 17.842803 344.196134 17.842803 L 308.212654 17.776553 C 307.294611 17.776553 306.57532 18.495844 306.57532 19.423351 L 306.57532 33.8281 C 306.57532 34.727214 307.294611 35.446505 308.212654 35.446505 L 314.72413 35.446505 C 315.642173 35.446505 316.427714 36.165796 316.427714 37.083838 L 316.427714 68.372998 C 316.427714 69.281576 317.203791 70.000867 318.11237 70.000867 Z M 350.783325 70.000867 L 367.014695 70.000867 C 367.923273 70.000867 368.6331 69.281576 368.6331 68.372998 L 368.6331 19.480137 C 368.6331 18.562094 367.857023 17.842803 366.948445 17.842803 L 350.717075 17.842803 C 349.789568 17.842803 349.079741 18.562094 349.079741 19.480137 L 349.079741 68.372998 C 349.079741 69.281576 349.874747 70.000867 350.783325 70.000867 Z M 385.195722 70.000867 L 422.428497 70.000867 C 423.327611 70.000867 424.046902 69.22479 424.046902 68.316212 L 424.046902 54.025035 C 424.046902 53.116457 423.327611 52.397166 422.428497 52.397166 L 393.088995 52.397166 C 392.170952 52.397166 391.451661 51.677875 391.451661 50.778761 L 391.451661 37.083838 C 391.451661 36.165796 392.170952 35.446505 393.088995 35.446505 L 422.428497 35.446505 C 423.327611 35.446505 424.046902 34.670428 424.046902 33.761849 L 424.046902 19.480137 C 424.046902 18.562094 423.327611 17.842803 422.428497 17.842803 L 385.195722 17.842803 C 377.510666 17.842803 371.888838 23.445702 371.888838 31.149687 L 371.888838 56.693983 C 371.888838 64.397969 377.510666 70.000867 385.195722 70.000867 Z M 385.195722 70.000867 " stroke="#bbdefb" stroke-width="9.453347" stroke-opacity="1" stroke-miterlimit="4"/><g fill="#536dfe" fill-opacity="1"><g transform="translate(48.396535, 86.737923)"><g><path d="M 1.371094 0 L 8.070312 0 C 8.449219 0 8.746094 -0.296875 8.746094 -0.671875 L 8.746094 -4.441406 C 8.746094 -4.816406 9.039062 -5.113281 9.417969 -5.113281 C 9.792969 -5.113281 10.089844 -4.789062 10.089844 -4.414062 L 10.089844 -0.671875 C 10.089844 -0.296875 10.414062 0 10.789062 0 L 17.488281 0 C 17.867188 0 18.160156 -0.296875 18.160156 -0.671875 L 18.160156 -16.035156 C 18.160156 -19.210938 15.847656 -21.523438 12.671875 -21.523438 L 6.160156 -21.523438 C 2.988281 -21.523438 0.671875 -19.210938 0.671875 -16.035156 L 0.671875 -0.671875 C 0.671875 -0.296875 0.996094 0 1.371094 0 Z M 9.417969 -11.570312 C 9.039062 -11.570312 8.746094 -11.867188 8.746094 -12.242188 L 8.746094 -14.394531 C 8.746094 -14.769531 9.039062 -15.066406 9.417969 -15.066406 C 9.792969 -15.066406 10.089844 -14.769531 10.089844 -14.394531 L 10.089844 -12.242188 C 10.089844 -11.867188 9.792969 -11.570312 9.417969 -11.570312 Z M 9.417969 -11.570312 "/></g></g></g><g fill="#536dfe" fill-opacity="1"><g transform="translate(67.230039, 86.737923)"><g><path d="M 1.371094 0 L 21.550781 0 C 21.929688 0 22.222656 -0.296875 22.222656 -0.671875 L 22.222656 -5.785156 C 22.222656 -6.160156 21.902344 -6.457031 21.523438 -6.457031 L 9.417969 -6.457031 C 9.039062 -6.457031 8.746094 -6.753906 8.746094 -7.128906 C 8.746094 -7.507812 9.039062 -7.804688 9.417969 -7.804688 L 20.476562 -7.804688 C 20.851562 -7.804688 21.148438 -8.097656 21.148438 -8.476562 L 21.148438 -13.050781 C 21.148438 -13.425781 20.824219 -13.722656 20.449219 -13.722656 L 9.417969 -13.722656 C 9.039062 -13.722656 8.746094 -14.019531 8.746094 -14.394531 C 8.746094 -14.769531 9.039062 -15.066406 9.417969 -15.066406 L 21.550781 -15.066406 C 21.929688 -15.066406 22.222656 -15.363281 22.222656 -15.738281 L 22.222656 -20.851562 C 22.222656 -21.230469 21.929688 -21.523438 21.550781 -21.523438 L 1.34375 -21.523438 C 0.96875 -21.523438 0.671875 -21.230469 0.671875 -20.851562 L 0.671875 -0.671875 C 0.671875 -0.296875 0.996094 0 1.371094 0 Z M 1.371094 0 "/></g></g></g><g fill="#536dfe" fill-opacity="1"><g transform="translate(90.126192, 86.737923)"><g><path d="M 1.34375 0 L 16.707031 0 C 19.882812 0 22.199219 -2.3125 22.199219 -5.488281 L 22.199219 -8.503906 C 22.199219 -11.675781 19.882812 -13.992188 16.707031 -13.992188 L 9.417969 -13.992188 C 9.039062 -13.992188 8.746094 -14.289062 8.746094 -14.664062 C 8.746094 -15.039062 9.039062 -15.335938 9.417969 -15.335938 L 21.523438 -15.335938 C 21.902344 -15.335938 22.199219 -15.632812 22.199219 -16.007812 L 22.199219 -20.851562 C 22.199219 -21.230469 21.902344 -21.523438 21.523438 -21.523438 L 6.160156 -21.523438 C 2.988281 -21.523438 0.671875 -19.210938 0.671875 -16.035156 L 0.671875 -13.023438 C 0.671875 -9.847656 2.988281 -7.535156 6.160156 -7.535156 L 13.453125 -7.535156 C 13.828125 -7.535156 14.125 -7.238281 14.125 -6.859375 C 14.125 -6.484375 13.828125 -6.1875 13.453125 -6.1875 L 1.34375 -6.1875 C 0.96875 -6.1875 0.671875 -5.890625 0.671875 -5.515625 L 0.671875 -0.671875 C 0.671875 -0.296875 0.96875 0 1.34375 0 Z M 1.34375 0 "/></g></g></g><g fill="#536dfe" fill-opacity="1"><g transform="translate(112.995441, 86.737923)"><g><path d="M 5.433594 0 L 12.132812 0 C 12.511719 0 12.808594 -0.324219 12.808594 -0.699219 L 12.808594 -13.585938 C 12.808594 -13.964844 13.128906 -14.261719 13.507812 -14.261719 L 16.199219 -14.261719 C 16.574219 -14.261719 16.871094 -14.554688 16.871094 -14.933594 L 16.871094 -20.851562 C 16.871094 -21.203125 16.574219 -21.523438 16.199219 -21.523438 L 1.34375 -21.550781 C 0.96875 -21.550781 0.671875 -21.253906 0.671875 -20.878906 L 0.671875 -14.933594 C 0.671875 -14.554688 0.96875 -14.261719 1.34375 -14.261719 L 4.035156 -14.261719 C 4.414062 -14.261719 4.734375 -13.964844 4.734375 -13.585938 L 4.734375 -0.671875 C 4.734375 -0.296875 5.058594 0 5.433594 0 Z M 5.433594 0 "/></g></g></g><g fill="#536dfe" fill-opacity="1"><g transform="translate(130.537504, 86.737923)"><g><path d="M 1.371094 0 L 8.070312 0 C 8.449219 0 8.746094 -0.296875 8.746094 -0.671875 L 8.746094 -6.59375 C 8.746094 -6.96875 9.039062 -7.265625 9.417969 -7.265625 C 9.792969 -7.265625 10.089844 -6.941406 10.089844 -6.566406 L 10.089844 -0.671875 C 10.089844 -0.296875 10.414062 0 10.789062 0 L 17.488281 0 C 17.867188 0 18.160156 -0.296875 18.160156 -0.671875 L 18.160156 -20.851562 C 18.160156 -21.230469 17.839844 -21.523438 17.460938 -21.523438 L 10.761719 -21.523438 C 10.386719 -21.523438 10.089844 -21.230469 10.089844 -20.851562 L 10.089844 -14.933594 C 10.089844 -14.554688 9.792969 -14.261719 9.417969 -14.261719 C 9.039062 -14.261719 8.746094 -14.554688 8.746094 -14.933594 L 8.746094 -20.851562 C 8.746094 -21.230469 8.421875 -21.523438 8.042969 -21.523438 L 1.34375 -21.523438 C 0.96875 -21.523438 0.671875 -21.230469 0.671875 -20.851562 L 0.671875 -0.671875 C 0.671875 -0.296875 0.996094 0 1.371094 0 Z M 1.371094 0 "/></g></g></g><g fill="#536dfe" fill-opacity="1"><g transform="translate(149.371008, 86.737923)"><g><path d="M 1.371094 0 L 21.550781 0 C 21.929688 0 22.222656 -0.296875 22.222656 -0.671875 L 22.222656 -5.785156 C 22.222656 -6.160156 21.902344 -6.457031 21.523438 -6.457031 L 9.417969 -6.457031 C 9.039062 -6.457031 8.746094 -6.753906 8.746094 -7.128906 C 8.746094 -7.507812 9.039062 -7.804688 9.417969 -7.804688 L 20.476562 -7.804688 C 20.851562 -7.804688 21.148438 -8.097656 21.148438 -8.476562 L 21.148438 -13.050781 C 21.148438 -13.425781 20.824219 -13.722656 20.449219 -13.722656 L 9.417969 -13.722656 C 9.039062 -13.722656 8.746094 -14.019531 8.746094 -14.394531 C 8.746094 -14.769531 9.039062 -15.066406 9.417969 -15.066406 L 21.550781 -15.066406 C 21.929688 -15.066406 22.222656 -15.363281 22.222656 -15.738281 L 22.222656 -20.851562 C 22.222656 -21.230469 21.929688 -21.523438 21.550781 -21.523438 L 1.34375 -21.523438 C 0.96875 -21.523438 0.671875 -21.230469 0.671875 -20.851562 L 0.671875 -0.671875 C 0.671875 -0.296875 0.996094 0 1.371094 0 Z M 1.371094 0 "/></g></g></g><g fill="#536dfe" fill-opacity="1"><g transform="translate(172.267161, 86.737923)"><g><path d="M 5.433594 0 L 12.132812 0 C 12.511719 0 12.808594 -0.324219 12.808594 -0.699219 L 12.808594 -13.585938 C 12.808594 -13.964844 13.128906 -14.261719 13.507812 -14.261719 L 16.199219 -14.261719 C 16.574219 -14.261719 16.871094 -14.554688 16.871094 -14.933594 L 16.871094 -20.851562 C 16.871094 -21.203125 16.574219 -21.523438 16.199219 -21.523438 L 1.34375 -21.550781 C 0.96875 -21.550781 0.671875 -21.253906 0.671875 -20.878906 L 0.671875 -14.933594 C 0.671875 -14.554688 0.96875 -14.261719 1.34375 -14.261719 L 4.035156 -14.261719 C 4.414062 -14.261719 4.734375 -13.964844 4.734375 -13.585938 L 4.734375 -0.671875 C 4.734375 -0.296875 5.058594 0 5.433594 0 Z M 5.433594 0 "/></g></g></g><g fill="#536dfe" fill-opacity="1"><g transform="translate(189.809225, 86.737923)"><g><path d="M 1.371094 0 L 8.070312 0 C 8.449219 0 8.746094 -0.296875 8.746094 -0.671875 L 8.746094 -20.851562 C 8.746094 -21.230469 8.421875 -21.523438 8.042969 -21.523438 L 1.34375 -21.523438 C 0.96875 -21.523438 0.671875 -21.230469 0.671875 -20.851562 L 0.671875 -0.671875 C 0.671875 -0.296875 0.996094 0 1.371094 0 Z M 1.371094 0 "/></g></g></g><g fill="#536dfe" fill-opacity="1"><g transform="translate(199.225977, 86.737923)"><g><path d="M 6.160156 0 L 21.523438 0 C 21.902344 0 22.199219 -0.324219 22.199219 -0.699219 L 22.199219 -6.59375 C 22.199219 -6.96875 21.902344 -7.265625 21.523438 -7.265625 L 9.417969 -7.265625 C 9.039062 -7.265625 8.746094 -7.5625 8.746094 -7.9375 L 8.746094 -13.585938 C 8.746094 -13.964844 9.039062 -14.261719 9.417969 -14.261719 L 21.523438 -14.261719 C 21.902344 -14.261719 22.199219 -14.582031 22.199219 -14.960938 L 22.199219 -20.851562 C 22.199219 -21.230469 21.902344 -21.523438 21.523438 -21.523438 L 6.160156 -21.523438 C 2.988281 -21.523438 0.671875 -19.210938 0.671875 -16.035156 L 0.671875 -5.488281 C 0.671875 -2.3125 2.988281 0 6.160156 0 Z M 6.160156 0 "/></g></g></g><path stroke-linecap="butt" transform="matrix(1.148737, 0, 0, 1.148737, 100.156103, 96.241799)" fill="none" stroke-linejoin="miter" d="M 1.414725 3.846273 L 1.003268 6.712872 L 0.391183 11.113084 C 0.285768 11.932598 0.224559 12.486875 0.204157 12.769114 L 0.204157 12.874529 C 0.204157 13.139766 0.244962 13.343794 0.306171 13.510417 C 0.428588 13.714446 0.673422 13.853865 1.044073 13.918474 C 1.329713 13.95928 1.945199 14.000085 2.88713 14.000085 L 7.409759 14.000085 C 8.331287 14.000085 8.92637 13.979683 9.212009 13.938877 C 9.660872 13.874268 9.970315 13.734849 10.15394 13.510417 C 10.276357 13.326792 10.378372 13.061555 10.459983 12.711306 C 10.538194 12.446069 10.623206 11.912195 10.72522 11.113084 L 11.340705 6.733275 C 11.463122 5.872955 11.524331 5.318678 11.524331 5.073844 L 11.524331 4.954827 C 11.524331 4.624982 11.483525 4.40055 11.361108 4.25433 C 11.238691 4.070705 10.993857 3.948288 10.606203 3.910882 C 10.334165 3.863276 9.745884 3.846273 8.820955 3.846273 L 8.392495 6.978109 L 7.800813 11.113084 C 7.532176 11.113084 7.34515 11.092681 7.266939 11.092681 C 7.185328 11.072278 7.120719 11.031473 7.079913 10.970264 C 7.062911 10.932859 7.062911 10.847847 7.062911 10.745833 C 7.062911 10.660821 7.079913 10.541804 7.100316 10.358179 L 7.617188 6.712872 C 7.695398 6.019176 7.756607 5.563512 7.756607 5.318678 C 7.77701 5.199662 7.77701 5.094247 7.77701 5.016036 C 7.77701 4.730396 7.736204 4.499164 7.654593 4.339342 C 7.532176 4.094508 7.266939 3.948288 6.855482 3.910882 C 6.590245 3.863276 6.015565 3.846273 5.11784 3.846273 L 4.628172 7.20254 L 4.094298 11.113084 C 3.808658 11.113084 3.642035 11.092681 3.563824 11.092681 C 3.478812 11.072278 3.438006 11.031473 3.397201 10.990667 C 3.376798 10.949861 3.359795 10.885252 3.359795 10.807041 C 3.359795 10.72543 3.376798 10.58261 3.397201 10.375181 L 3.907272 6.712872 C 4.012686 6.097386 4.073895 5.668927 4.073895 5.444496 C 4.1113 5.240467 4.1113 5.073844 4.1113 4.954827 C 4.1113 4.584176 4.073895 4.359745 3.907272 4.193122 C 3.767852 4.029899 3.499215 3.931285 3.114961 3.890479 C 2.842924 3.846273 2.275045 3.846273 1.414725 3.846273 Z M 12.119414 6.712872 C 11.789568 9.21222 11.585539 10.660821 11.503928 11.092681 C 11.398513 11.850987 11.340705 12.361058 11.320303 12.629695 L 11.320303 12.874529 C 11.320303 13.160169 11.378111 13.3846 11.463122 13.551223 C 11.585539 13.714446 11.789568 13.833462 12.119414 13.901472 C 12.405053 13.938877 12.979733 13.979683 13.857055 13.979683 L 18.665324 13.979683 C 19.590253 13.979683 20.185336 13.938877 20.470975 13.901472 C 20.858629 13.81646 21.123866 13.67024 21.290489 13.425406 C 21.409506 13.24178 21.51492 12.95614 21.593131 12.585489 C 21.65434 12.320252 21.739352 11.830584 21.837965 11.092681 L 22.453451 6.712872 C 22.579268 5.934164 22.640477 5.40369 22.640477 5.158856 L 22.640477 4.954827 C 22.640477 4.645384 22.599671 4.420953 22.494257 4.274733 C 22.392242 4.114911 22.208617 3.989093 21.963783 3.948288 C 21.678143 3.863276 21.045655 3.846273 20.039115 3.846273 L 15.332861 3.846273 C 14.513347 3.846273 13.95907 3.846273 13.67343 3.890479 C 13.261973 3.931285 12.979733 4.050302 12.792707 4.25433 C 12.588679 4.458358 12.425456 4.869816 12.303039 5.505704 C 12.258833 5.709732 12.197625 6.117789 12.119414 6.712872 Z M 16.026557 6.712872 L 19.549447 6.712872 L 19.035976 10.358179 C 18.99517 10.603013 18.974767 10.745833 18.933961 10.827444 C 18.933961 10.912456 18.889755 10.970264 18.85235 11.01107 C 18.811544 11.051875 18.750336 11.072278 18.665324 11.092681 L 14.407932 11.092681 L 14.921403 7.467777 C 14.941806 7.34876 14.962209 7.243346 14.962209 7.20254 C 15.003015 7.018915 15.04382 6.899898 15.088027 6.852291 C 15.145835 6.794483 15.247849 6.753678 15.373666 6.733275 C 15.47228 6.712872 15.703512 6.712872 16.026557 6.712872 Z M 23.459991 6.733275 L 22.433048 14.000085 C 23.538202 14.000085 24.231898 13.95928 24.524339 13.901472 C 24.806578 13.81646 25.014007 13.694043 25.156827 13.53082 C 25.316649 13.343794 25.422064 13.061555 25.503675 12.690903 C 25.568284 12.425666 25.646495 11.912195 25.75191 11.136887 L 26.241578 7.593594 C 26.282383 7.328358 26.323189 7.161734 26.340191 7.083524 C 26.380997 6.957706 26.425203 6.879495 26.506815 6.831889 C 26.568023 6.794483 26.653035 6.753678 26.751649 6.753678 C 26.857063 6.733275 27.061092 6.733275 27.367134 6.733275 L 30.845818 6.733275 C 31.702737 6.733275 32.260415 6.712872 32.522251 6.692469 C 32.954111 6.655064 33.263554 6.549649 33.44718 6.383026 C 33.654609 6.223204 33.794028 5.934164 33.899443 5.543109 C 33.977654 5.26087 34.059265 4.703192 34.181682 3.863276 L 26.323189 3.863276 C 25.626092 3.863276 25.156827 3.890479 24.867787 3.931285 C 24.541341 3.96869 24.279505 4.094508 24.112882 4.274733 C 23.949659 4.441356 23.803439 4.750799 23.704825 5.199662 C 23.664019 5.444496 23.579007 5.954567 23.459991 6.733275 Z M 42.472035 2.554094 L 42.288409 3.846273 L 37.517546 3.846273 C 36.738838 3.846273 36.191362 3.863276 35.898921 3.931285 C 35.575876 3.96869 35.310639 4.094508 35.144016 4.25433 C 34.980793 4.420953 34.861777 4.68619 34.756362 5.053441 C 34.695153 5.318678 34.610142 5.872955 34.491125 6.733275 C 34.406113 7.222943 34.304099 7.943843 34.161279 8.923179 C 34.042263 9.905916 33.936848 10.620015 33.875639 11.113084 C 33.797429 11.772776 33.729419 12.201235 33.692014 12.446069 C 33.692014 12.605892 33.671611 12.769114 33.671611 12.894932 C 33.671611 13.221377 33.749822 13.469612 33.875639 13.629434 C 33.994656 13.755251 34.202085 13.853865 34.491125 13.918474 C 34.776765 13.95928 35.38885 14.000085 36.330781 14.000085 L 40.918019 14.000085 C 41.836147 14.000085 42.451632 13.979683 42.737272 13.938877 C 43.046715 13.874268 43.271146 13.796057 43.437769 13.694043 C 43.662201 13.53082 43.825423 13.221377 43.927437 12.80992 C 44.005648 12.544683 44.09066 11.970003 44.189274 11.113084 L 44.294689 10.358179 L 45.790897 -0.329507 C 44.910174 -0.329507 44.335494 -0.329507 44.049854 -0.288702 C 43.662201 -0.247896 43.36976 -0.122079 43.192935 0.0411441 C 43.026312 0.180564 42.880092 0.4458 42.781478 0.816452 C 42.696466 1.105492 42.597853 1.676772 42.472035 2.554094 Z M 38.092226 6.733275 L 41.876952 6.733275 L 41.387284 10.358179 C 41.346478 10.562207 41.326076 10.681224 41.28867 10.766236 C 41.268268 10.885252 41.224061 10.970264 41.162853 11.01107 C 41.122047 11.051875 41.060839 11.072278 40.975827 11.092681 C 40.897616 11.092681 40.730993 11.113084 40.448754 11.113084 L 36.783044 11.113084 L 37.293115 7.48818 C 37.33392 7.287552 37.354323 7.144732 37.354323 7.083524 C 37.395129 6.957706 37.418932 6.899898 37.459738 6.852291 C 37.500544 6.794483 37.578754 6.753678 37.663766 6.753678 C 37.745378 6.733275 37.888198 6.733275 38.092226 6.733275 Z M 49.881666 -0.329507 C 49.062152 -0.329507 48.487472 -0.329507 48.201832 -0.288702 C 47.878787 -0.247896 47.606749 -0.186688 47.423124 -0.0642705 C 47.17829 0.0819498 46.994664 0.36759 46.872247 0.796049 C 46.814439 1.061286 46.709024 1.635966 46.562804 2.537091 L 45.603871 9.518262 L 44.971383 14.000085 C 45.790897 14.000085 46.338373 13.979683 46.610411 13.95928 C 47.100079 13.901472 47.446927 13.755251 47.654356 13.551223 C 47.814178 13.364197 47.936595 13.081958 48.018206 12.690903 C 48.103218 12.405264 48.18483 11.891792 48.286844 11.136887 L 49.004344 5.913761 Z M 53.261736 3.846273 C 52.316404 3.846273 51.700919 3.863276 51.418679 3.910882 C 51.048028 3.948288 50.762388 4.070705 50.55836 4.25433 C 50.374734 4.420953 50.228514 4.771202 50.1299 5.26087 C 50.089094 5.505704 50.004083 5.974969 49.885066 6.712872 L 49.26958 11.092681 C 49.164166 11.912195 49.102957 12.446069 49.082554 12.731709 L 49.082554 12.874529 C 49.082554 13.160169 49.12336 13.364197 49.208372 13.510417 C 49.327388 13.694043 49.534817 13.81646 49.817057 13.901472 C 50.109497 13.938877 50.636571 13.979683 51.456084 13.979683 L 59.195561 13.979683 L 59.195561 13.649837 C 59.195561 13.034351 59.195561 12.629695 59.154755 12.38146 C 59.134352 11.932598 59.052741 11.646958 58.889518 11.480335 C 58.763701 11.317112 58.53927 11.215098 58.212824 11.177693 C 57.988393 11.136887 57.474922 11.113084 56.679211 11.113084 L 52.173584 11.113084 C 52.21779 10.885252 52.238193 10.745833 52.238193 10.681224 C 52.258596 10.562207 52.278999 10.477196 52.316404 10.43639 C 52.35721 10.395584 52.421819 10.375181 52.483027 10.375181 C 52.540835 10.358179 52.64625 10.358179 52.785669 10.358179 L 57.083867 10.358179 C 57.804767 10.358179 58.294436 10.337776 58.559672 10.29697 C 58.967729 10.252764 59.26017 10.130347 59.443795 9.967125 C 59.603618 9.783499 59.749838 9.497859 59.828049 9.106805 C 59.913061 8.841568 59.994672 8.307694 60.100087 7.48818 L 60.219103 6.712872 C 60.304115 6.059981 60.361923 5.628121 60.382326 5.40369 C 60.402729 5.220064 60.402729 5.073844 60.402729 4.954827 C 60.402729 4.54337 60.324518 4.25433 60.117089 4.114911 C 59.953866 3.989093 59.644423 3.910882 59.195561 3.863276 C 58.950727 3.846273 58.457658 3.846273 57.719756 3.846273 Z M 53.302541 6.733275 L 57.291296 6.733275 C 57.270893 6.957706 57.25049 7.124329 57.230087 7.20254 C 57.230087 7.287552 57.209685 7.328358 57.168879 7.369163 C 57.131474 7.406568 57.046462 7.447374 56.924045 7.467777 L 52.687056 7.467777 C 52.727861 7.222943 52.748264 7.083524 52.748264 7.018915 C 52.785669 6.937303 52.806072 6.879495 52.833276 6.831889 C 52.870681 6.794483 52.911487 6.753678 52.952293 6.753678 C 52.993098 6.733275 53.115515 6.733275 53.302541 6.733275 Z M 53.302541 6.733275 " stroke="#bbdefb" stroke-width="5.373558" stroke-opacity="1" stroke-miterlimit="4"/><g fill="#536dfe" fill-opacity="1"><g transform="translate(100.156103, 112.324121)"><g><path d="M 1.621094 -11.664062 L 1.152344 -8.371094 L 0.445312 -3.316406 C 0.328125 -2.375 0.257812 -1.738281 0.234375 -1.410156 L 0.234375 -1.292969 C 0.234375 -0.988281 0.28125 -0.753906 0.351562 -0.5625 C 0.492188 -0.328125 0.777344 -0.164062 1.199219 -0.09375 C 1.527344 -0.046875 2.234375 0 3.316406 0 L 8.511719 0 C 9.570312 0 10.253906 -0.0234375 10.582031 -0.0703125 C 11.097656 -0.140625 11.453125 -0.304688 11.664062 -0.5625 C 11.804688 -0.777344 11.921875 -1.082031 12.015625 -1.480469 C 12.109375 -1.789062 12.203125 -2.398438 12.320312 -3.316406 L 13.027344 -8.347656 C 13.167969 -9.335938 13.238281 -9.96875 13.238281 -10.253906 L 13.238281 -10.394531 C 13.238281 -10.769531 13.191406 -11.027344 13.050781 -11.191406 C 12.910156 -11.40625 12.628906 -11.546875 12.179688 -11.59375 C 11.875 -11.640625 11.191406 -11.664062 10.136719 -11.664062 L 9.640625 -8.066406 L 8.960938 -3.316406 C 8.652344 -3.316406 8.441406 -3.339844 8.347656 -3.339844 C 8.253906 -3.363281 8.183594 -3.410156 8.136719 -3.480469 C 8.113281 -3.527344 8.113281 -3.621094 8.113281 -3.738281 C 8.113281 -3.832031 8.136719 -3.972656 8.160156 -4.1875 L 8.746094 -8.371094 C 8.839844 -9.171875 8.910156 -9.6875 8.910156 -9.96875 C 8.9375 -10.109375 8.9375 -10.230469 8.9375 -10.324219 C 8.9375 -10.652344 8.886719 -10.910156 8.792969 -11.097656 C 8.652344 -11.382812 8.347656 -11.546875 7.878906 -11.59375 C 7.570312 -11.640625 6.914062 -11.664062 5.878906 -11.664062 L 5.3125 -7.808594 L 4.703125 -3.316406 C 4.375 -3.316406 4.1875 -3.339844 4.089844 -3.339844 C 3.996094 -3.363281 3.949219 -3.410156 3.902344 -3.457031 C 3.878906 -3.503906 3.855469 -3.574219 3.855469 -3.667969 C 3.855469 -3.761719 3.878906 -3.925781 3.902344 -4.160156 L 4.492188 -8.371094 C 4.609375 -9.078125 4.679688 -9.570312 4.679688 -9.828125 C 4.726562 -10.0625 4.726562 -10.253906 4.726562 -10.394531 C 4.726562 -10.816406 4.679688 -11.074219 4.492188 -11.261719 C 4.328125 -11.453125 4.019531 -11.570312 3.574219 -11.617188 C 3.269531 -11.664062 2.609375 -11.664062 1.621094 -11.664062 Z M 1.621094 -11.664062 "/></g></g></g><g fill="#536dfe" fill-opacity="1"><g transform="translate(112.923685, 112.324121)"><g><path d="M 1.152344 -8.371094 C 0.777344 -5.503906 0.539062 -3.832031 0.445312 -3.339844 C 0.328125 -2.46875 0.257812 -1.882812 0.234375 -1.574219 L 0.234375 -1.292969 C 0.234375 -0.964844 0.304688 -0.707031 0.398438 -0.515625 C 0.539062 -0.328125 0.777344 -0.1875 1.152344 -0.117188 C 1.480469 -0.0703125 2.140625 -0.0234375 3.152344 -0.0234375 L 8.675781 -0.0234375 C 9.734375 -0.0234375 10.417969 -0.0703125 10.746094 -0.117188 C 11.191406 -0.210938 11.5 -0.375 11.6875 -0.660156 C 11.828125 -0.871094 11.945312 -1.199219 12.039062 -1.621094 C 12.109375 -1.929688 12.203125 -2.492188 12.320312 -3.339844 L 13.027344 -8.371094 C 13.167969 -9.265625 13.238281 -9.875 13.238281 -10.160156 L 13.238281 -10.394531 C 13.238281 -10.746094 13.191406 -11.003906 13.074219 -11.167969 C 12.957031 -11.359375 12.746094 -11.5 12.460938 -11.546875 C 12.132812 -11.640625 11.40625 -11.664062 10.253906 -11.664062 L 4.84375 -11.664062 C 3.902344 -11.664062 3.269531 -11.664062 2.9375 -11.617188 C 2.46875 -11.570312 2.140625 -11.429688 1.929688 -11.191406 C 1.691406 -10.957031 1.503906 -10.488281 1.363281 -9.757812 C 1.316406 -9.523438 1.246094 -9.054688 1.152344 -8.371094 Z M 5.644531 -8.371094 L 9.6875 -8.371094 L 9.101562 -4.1875 C 9.054688 -3.902344 9.03125 -3.738281 8.984375 -3.644531 C 8.984375 -3.550781 8.9375 -3.480469 8.886719 -3.433594 C 8.839844 -3.386719 8.769531 -3.363281 8.675781 -3.339844 L 3.785156 -3.339844 L 4.375 -7.5 C 4.398438 -7.640625 4.421875 -7.761719 4.421875 -7.808594 C 4.46875 -8.019531 4.515625 -8.160156 4.5625 -8.207031 C 4.632812 -8.277344 4.75 -8.324219 4.890625 -8.347656 C 5.007812 -8.371094 5.265625 -8.371094 5.644531 -8.371094 Z M 5.644531 -8.371094 "/></g></g></g><g fill="#536dfe" fill-opacity="1"><g transform="translate(125.691268, 112.324121)"><g><path d="M 1.410156 -8.347656 L 0.234375 0 C 1.503906 0 2.304688 -0.046875 2.632812 -0.117188 C 2.960938 -0.210938 3.199219 -0.351562 3.363281 -0.539062 C 3.550781 -0.753906 3.667969 -1.082031 3.761719 -1.503906 C 3.832031 -1.8125 3.925781 -2.398438 4.042969 -3.292969 L 4.609375 -7.359375 C 4.65625 -7.664062 4.703125 -7.855469 4.726562 -7.949219 C 4.773438 -8.089844 4.820312 -8.183594 4.914062 -8.230469 C 4.984375 -8.277344 5.078125 -8.324219 5.195312 -8.324219 C 5.3125 -8.347656 5.550781 -8.347656 5.902344 -8.347656 L 9.898438 -8.347656 C 10.886719 -8.347656 11.523438 -8.371094 11.828125 -8.394531 C 12.320312 -8.441406 12.675781 -8.558594 12.886719 -8.746094 C 13.121094 -8.9375 13.285156 -9.265625 13.402344 -9.710938 C 13.496094 -10.039062 13.589844 -10.675781 13.734375 -11.640625 L 4.703125 -11.640625 C 3.902344 -11.640625 3.363281 -11.617188 3.035156 -11.570312 C 2.65625 -11.523438 2.351562 -11.382812 2.164062 -11.167969 C 1.976562 -10.980469 1.8125 -10.628906 1.691406 -10.109375 C 1.644531 -9.828125 1.550781 -9.242188 1.410156 -8.347656 Z M 1.410156 -8.347656 "/></g></g></g><g fill="#536dfe" fill-opacity="1"><g transform="translate(138.599937, 112.324121)"><g><path d="M 10.347656 -13.144531 L 10.136719 -11.664062 L 4.65625 -11.664062 C 3.761719 -11.664062 3.128906 -11.640625 2.796875 -11.570312 C 2.421875 -11.523438 2.117188 -11.382812 1.929688 -11.191406 C 1.738281 -11.003906 1.597656 -10.699219 1.480469 -10.277344 C 1.410156 -9.96875 1.316406 -9.335938 1.175781 -8.347656 C 1.082031 -7.785156 0.964844 -6.960938 0.800781 -5.832031 C 0.660156 -4.703125 0.539062 -3.878906 0.46875 -3.316406 C 0.375 -2.5625 0.304688 -2.070312 0.257812 -1.789062 C 0.257812 -1.597656 0.234375 -1.410156 0.234375 -1.269531 C 0.234375 -0.894531 0.328125 -0.613281 0.46875 -0.421875 C 0.613281 -0.28125 0.847656 -0.164062 1.175781 -0.09375 C 1.503906 -0.046875 2.210938 0 3.292969 0 L 8.558594 0 C 9.617188 0 10.324219 -0.0234375 10.652344 -0.0703125 C 11.003906 -0.140625 11.261719 -0.234375 11.453125 -0.351562 C 11.710938 -0.539062 11.898438 -0.894531 12.015625 -1.363281 C 12.109375 -1.667969 12.203125 -2.328125 12.320312 -3.316406 L 12.4375 -4.1875 L 14.15625 -16.460938 C 13.144531 -16.460938 12.484375 -16.460938 12.15625 -16.414062 C 11.710938 -16.367188 11.382812 -16.226562 11.167969 -16.035156 C 10.980469 -15.871094 10.816406 -15.566406 10.699219 -15.144531 C 10.605469 -14.8125 10.488281 -14.15625 10.347656 -13.144531 Z M 5.3125 -8.347656 L 9.664062 -8.347656 L 9.101562 -4.1875 C 9.054688 -3.949219 9.03125 -3.808594 8.984375 -3.714844 C 8.960938 -3.574219 8.910156 -3.480469 8.839844 -3.433594 C 8.792969 -3.386719 8.722656 -3.363281 8.628906 -3.339844 C 8.535156 -3.339844 8.347656 -3.316406 8.019531 -3.316406 L 3.808594 -3.316406 L 4.398438 -7.476562 C 4.445312 -7.710938 4.46875 -7.878906 4.46875 -7.949219 C 4.515625 -8.089844 4.539062 -8.160156 4.585938 -8.207031 C 4.632812 -8.277344 4.726562 -8.324219 4.820312 -8.324219 C 4.914062 -8.347656 5.078125 -8.347656 5.3125 -8.347656 Z M 5.3125 -8.347656 "/></g></g></g><g fill="#536dfe" fill-opacity="1"><g transform="translate(151.579138, 112.324121)"><g><path d="M 5.878906 -16.460938 C 4.9375 -16.460938 4.28125 -16.460938 3.949219 -16.414062 C 3.574219 -16.367188 3.269531 -16.296875 3.058594 -16.15625 C 2.773438 -15.988281 2.5625 -15.660156 2.421875 -15.167969 C 2.351562 -14.859375 2.234375 -14.203125 2.070312 -13.167969 L 0.964844 -5.148438 L 0.234375 0 C 1.175781 0 1.8125 -0.0234375 2.117188 -0.046875 C 2.679688 -0.117188 3.082031 -0.28125 3.316406 -0.515625 C 3.503906 -0.730469 3.644531 -1.058594 3.738281 -1.503906 C 3.832031 -1.835938 3.925781 -2.421875 4.042969 -3.292969 L 4.867188 -9.289062 Z M 5.878906 -16.460938 "/></g></g></g><g fill="#536dfe" fill-opacity="1"><g transform="translate(156.305225, 112.324121)"><g><path d="M 5.03125 -11.664062 C 3.949219 -11.664062 3.246094 -11.640625 2.914062 -11.59375 C 2.492188 -11.546875 2.164062 -11.40625 1.929688 -11.191406 C 1.714844 -11.003906 1.550781 -10.605469 1.433594 -10.039062 C 1.386719 -9.757812 1.292969 -9.21875 1.152344 -8.371094 L 0.445312 -3.339844 C 0.328125 -2.398438 0.257812 -1.789062 0.234375 -1.457031 L 0.234375 -1.292969 C 0.234375 -0.964844 0.28125 -0.730469 0.375 -0.5625 C 0.515625 -0.351562 0.753906 -0.210938 1.082031 -0.117188 C 1.410156 -0.0703125 2.023438 -0.0234375 2.960938 -0.0234375 L 11.851562 -0.0234375 L 11.851562 -0.398438 C 11.851562 -1.105469 11.851562 -1.574219 11.804688 -1.859375 C 11.78125 -2.375 11.6875 -2.703125 11.5 -2.890625 C 11.359375 -3.082031 11.097656 -3.199219 10.722656 -3.246094 C 10.464844 -3.292969 9.875 -3.316406 8.960938 -3.316406 L 3.785156 -3.316406 C 3.832031 -3.574219 3.855469 -3.738281 3.855469 -3.808594 C 3.878906 -3.949219 3.902344 -4.042969 3.949219 -4.089844 C 3.996094 -4.136719 4.066406 -4.160156 4.136719 -4.160156 C 4.210938 -4.1875 4.328125 -4.1875 4.492188 -4.1875 L 9.429688 -4.1875 C 10.253906 -4.1875 10.816406 -4.210938 11.121094 -4.257812 C 11.59375 -4.304688 11.921875 -4.445312 12.132812 -4.632812 C 12.320312 -4.84375 12.484375 -5.171875 12.582031 -5.621094 C 12.675781 -5.925781 12.769531 -6.535156 12.886719 -7.476562 L 13.027344 -8.371094 C 13.121094 -9.125 13.191406 -9.617188 13.214844 -9.875 C 13.238281 -10.085938 13.238281 -10.253906 13.238281 -10.394531 C 13.238281 -10.863281 13.144531 -11.191406 12.910156 -11.359375 C 12.722656 -11.5 12.367188 -11.59375 11.851562 -11.640625 C 11.570312 -11.664062 11.003906 -11.664062 10.160156 -11.664062 Z M 5.078125 -8.347656 L 9.664062 -8.347656 C 9.640625 -8.089844 9.617188 -7.902344 9.59375 -7.808594 C 9.59375 -7.710938 9.570312 -7.664062 9.523438 -7.617188 C 9.476562 -7.570312 9.382812 -7.523438 9.242188 -7.5 L 4.375 -7.5 C 4.421875 -7.785156 4.445312 -7.949219 4.445312 -8.019531 C 4.492188 -8.113281 4.515625 -8.183594 4.539062 -8.230469 C 4.585938 -8.277344 4.632812 -8.324219 4.679688 -8.324219 C 4.726562 -8.347656 4.867188 -8.347656 5.078125 -8.347656 Z M 5.078125 -8.347656 "/></g></g></g></svg>